/* XPM */
static char * door_green_locked_xpm[] = {
"64 64 10 1",
" 	c #232325",
".	c #39393D",
"+	c #525258",
"@	c #787F7F",
"#	c #5E5F65",
"$	c #245C0C",
"%	c #3DAB0E",
"&	c #5E7960",
"*	c #5CF31A",
"=	c #5E8E5C",
"                                                                ",
"                                                                ",
"       ............................ .....................       ",
"      .++++++++++++++++++++++++++++ @++++++++++++++++++++.      ",
"     .+++++++++++++++++++++++++++## @###########++++++++++.     ",
"    .++############################ @####################++.    ",
"   .++############################# @#####################++.   ",
"  .++############################## @######################++.  ",
"  ++############           @@@@@### @##@@@@@@@@     ########++  ",
"  +############ ++++++++++#####@### @##@########++++ ########+  ",
"  +########### +###############@### @##@############+ #######+  ",
"  +########## +################@### @##@#############+ ######+  ",
"  +######### +#################@### @##@##############+ #####+  ",
"  +######## +##################@### @##@###############+ ####+  ",
"  +####### +###################@### @##@################+ ###+  ",
"  +###### +####################@### @##@#################+ ##+  ",
"  +##### +#####################@### @##@##################+ #+  ",
"  +#### +######################@### @##@##################+ #+  ",
"  +### +######################@#### @##@##################+ #+  ",
"  +## +######################@##### @##@##################+ #+  ",
" $$# +######################@###### @##@##################+ #$$ ",
" $%# +#####################@####### @##@##################+ #%$ ",
" %%# +####################@######## @##@##################+ #%% ",
" %%# @@@@@@@@@@@@@@@@@@@@@######### @##@@@@@@@@@@@@@@@@@@@@ #%% ",
" %%#&############################## @######################&#%% ",
" %%&&&############################# @#####################&&&*% ",
" %*&&&############################# @#####################&&&*% ",
" %*&&&############################# @#####################&&&*% ",
" %*&=&############################ @######################&=&*% ",
" %*==&############################ @######################&==*% ",
" %*==&########################### @#######################&==*% ",
" %*==&########################### @#######################&==*% ",
" %*==&########################## @########################&==*% ",
" %*==&########################## @########################&==*% ",
" %*==&######################### @#########################&==*% ",
" %*==&######################### @#########################&&=*% ",
" %*=&&######################## @##########################&&=*% ",
" %*&&&######################## @##########################&&&*% ",
" %*&&######################### @###########################&&*% ",
" %%#&######################### @###########################&#%% ",
" %%#                      #### @#######                     #%% ",
" %%# ++++++++++++++++++++ #### @###### ++++++++++++++++++++ #%% ",
" $%# +##################+ #### @##### +###################+ #%$ ",
" $$# +##################+ #### @#### +####################+ #$$ ",
"  +#@#################### #### @### +#####################+ #+  ",
"  +#@####################@#### @###@######################+ #+  ",
"  +#@####################@#### @###@######################+ #+  ",
"  +#@####################@#### @###@######################+ #+  ",
"  +#@####################@#### @###@######################+ #+  ",
"  +#@####################@#### @###@######################+ #+  ",
"  +#@####################@#### @###@######################+ #+  ",
"  +#@####################@#### @###@######################+ #+  ",
"  +#@####################@#### @###@######################+ #+  ",
"  +#@####################@#### @###@####################### #+  ",
"  +##@###################@#### @###@######################@##+  ",
"  +###@##################@#### @###@#####################@###+  ",
"  +####@#################@#### @###@####################@####+  ",
"  +#####@################@#### @###@###################@#####+  ",
"  +######@###############@#### @###@##################@######+  ",
"   +######@##############@#### @###@#################@######+   ",
"    +######@#############@#### @###@################@######+    ",
"     +######@@@@@@@@@@@@@@#### @###@@@@@@@@@@@@@@@@@######+     ",
"      +####################### @#########################+      ",
"       +###################### @########################+       "};
