/* XPM */
static char * texture_door_red_xpm[] = {
"64 64 13 1",
" 	c #232325",
".	c #39393D",
"+	c #4E4448",
"@	c #525258",
"#	c #77656C",
"$	c #5E5F65",
"%	c #8A757D",
"&	c #9B0D1D",
"*	c #FF001D",
"=	c #79636A",
"-	c #F37D8B",
";	c #8E666E",
">	c #8C666E",
"                                                                ",
"                                                                ",
"       ............................ +....................       ",
"      .@@@@@@@@@@@@@@@@@@@@@@@@@@@@ #@@@@@@@@@@@@@@@@@@@@.      ",
"     .@@@@@@@@@@@@@@@@@@@@@@@@@@@$$ %$$$$$$$$$$$@@@@@@@@@@.     ",
"    .@@$$$$$$$$$$$$$$$$$$$$$$$$$$$$ %$$$$$$$$$$$$$$$$$$$$@@.    ",
"   .@@$$$$$$$$$$$$$$$$$$$$$$$$$$$$$ %$$$$$$$$$$$$$$$$$$$$$@@.   ",
"  .@@$$$$$$$$$$$$$$$$$$$$$$$$$$$$$$ %$$$$$$$$$$$$$$$$$$$$$$@@.  ",
"  @@$$$$$$$$$$$$           %%%%%$$$ %$$%%%%%%%%     $$$$$$$$@@  ",
"  @$$$$$$$$$$$$ @@@@@@@@@@$$$$$%$$$ %$$%$$$$$$$$@@@@ $$$$$$$$@  ",
"  @$$$$$$$$$$$ @$$$$$$$$$$$$$$$%$$$ %$$%$$$$$$$$$$$$@ $$$$$$$@  ",
"  @$$$$$$$$$$ @$$$$$$$$$$$$$$$$%$$$ %$$%$$$$$$$$$$$$$@ $$$$$$@  ",
"  @$$$$$$$$$ @$$$$$$$$$$$$$$$$$%$$$ %$$%$$$$$$$$$$$$$$@ $$$$$@  ",
"  @$$$$$$$$ @$$$$$$$$$$$$$$$$$$%$$$ %$$%$$$$$$$$$$$$$$$@ $$$$@  ",
"  @$$$$$$$ @$$$$$$$$$$$$$$$$$$$%$$$ %$$%$$$$$$$$$$$$$$$$@ $$$@  ",
"  @$$$$$$ @$$$$$$$$$$$$$$$$$$$$%$$$ %$$%$$$$$$$$$$$$$$$$$@ $$@  ",
"  @$$$$$ @$$$$$$$$$$$$$$$$$$$$$%$$$ %$$%$$$$$$$$$$$$$$$$$$@ $@  ",
"  @$$$$ @$$$$$$$$$$$$$$$$$$$$$$%$$$ %$$%$$$$$$$$$$$$$$$$$$@ $@  ",
"  @$$$ @$$$$$$$$$$$$$$$$$$$$$$%$$$$ %$$%$$$$$$$$$$$$$$$$$$@ $@  ",
"  @$$ @$$$$$$$$$$$$$$$$$$$$$$%$$$$$ %$$%$$$$$$$$$$$$$$$$$$@ $@  ",
" &&$ @$$$$$$$$$$$$$$$$$$$$$$%$$$$$$ %$$%$$$$$$$$$$$$$$$$$$@ $&& ",
" &*$ @$$$$$$$$$$$$$$$$$$$$$%$$$$$$$ %$$%$$$$$$$$$$$$$$$$$$@ $*& ",
" **$ @$$$$$$$$$$$$$$$$$$$$%$$$$$$$$ %$$%$$$$$$$$$$$$$$$$$$@ $** ",
" **$ %%%%%%%%%%%%%%%%%%%%%$$$$$$$$$ %$$%%%%%%%%%%%%%%%%%%%% $** ",
" **$=$$$$$$$$$$$$$$$$$$$$$$$$$$$$$$ %$$$$$$$$$$$$$$$$$$$$$$=$** ",
" **===$$$$$$$$$$$$$$$$$$$$$$$$$$$$$ %$$$$$$$$$$$$$$$$$$$$$===-* ",
" *-===$$$$$$$$$$$$$$$$$$$$$$$$$$$$$ %$$$$$$$$$$$$$$$$$$$$$===-* ",
" *-===$$$$$$$$$$$$$$$$$$$$$$$$$$$$$ %$$$$$$$$$$$$$$$$$$$$$===-* ",
" *-=;=$$$$$$$$$$$$$$$$$$$$$$$$$$$$ %$$$$$$$$$$$$$$$$$$$$$$=>=-* ",
" *-;;=$$$$$$$$$$$$$$$$$$$$$$$$$$$$ %$$$$$$$$$$$$$$$$$$$$$$=>>-* ",
" *-;;=$$$$$$$$$$$$$$$$$$$$$$$$$$$ %$$$$$$$$$$$$$$$$$$$$$$$=>>-* ",
" *-;;=$$$$$$$$$$$$$$$$$$$$$$$$$$$ %$$$$$$$$$$$$$$$$$$$$$$$=>>-* ",
" *-;;=$$$$$$$$$$$$$$$$$$$$$$$$$$ %$$$$$$$$$$$$$$$$$$$$$$$$=>>-* ",
" *-;;=$$$$$$$$$$$$$$$$$$$$$$$$$$ %$$$$$$$$$$$$$$$$$$$$$$$$=>>-* ",
" *-;;=$$$$$$$$$$$$$$$$$$$$$$$$$ %$$$$$$$$$$$$$$$$$$$$$$$$$=>>-* ",
" *-;;=$$$$$$$$$$$$$$$$$$$$$$$$$ %$$$$$$$$$$$$$$$$$$$$$$$$$==>-* ",
" *-;==$$$$$$$$$$$$$$$$$$$$$$$$ %$$$$$$$$$$$$$$$$$$$$$$$$$$==>-* ",
" *-===$$$$$$$$$$$$$$$$$$$$$$$$ %$$$$$$$$$$$$$$$$$$$$$$$$$$===-* ",
" *-===$$$$$$$$$$$$$$$$$$$$$$$$ %$$$$$$$$$$$$$$$$$$$$$$$$$$===-* ",
" **$=$$$$$$$$$$$$$$$$$$$$$$$$$ %$$$$$$$$$$$$$$$$$$$$$$$$$$$=$** ",
" **$                      $$$$ %$$$$$$$                     $** ",
" **$ @@@@@@@@@@@@@@@@@@@@ $$$$ %$$$$$$ @@@@@@@@@@@@@@@@@@@@ $** ",
" &*$ @$$$$$$$$$$$$$$$$$$@ $$$$ %$$$$$ @$$$$$$$$$$$$$$$$$$$@ $*& ",
" &&$ @$$$$$$$$$$$$$$$$$$@ $$$$ %$$$$ @$$$$$$$$$$$$$$$$$$$$@ $&& ",
"  @$%$$$$$$$$$$$$$$$$$$$$ $$$$ %$$$ @$$$$$$$$$$$$$$$$$$$$$@ $@  ",
"  @$%$$$$$$$$$$$$$$$$$$$$%$$$$ %$$$%$$$$$$$$$$$$$$$$$$$$$$@ $@  ",
"  @$%$$$$$$$$$$$$$$$$$$$$%$$$$ %$$$%$$$$$$$$$$$$$$$$$$$$$$@ $@  ",
"  @$%$$$$$$$$$$$$$$$$$$$$%$$$$ %$$$%$$$$$$$$$$$$$$$$$$$$$$@ $@  ",
"  @$%$$$$$$$$$$$$$$$$$$$$%$$$$ %$$$%$$$$$$$$$$$$$$$$$$$$$$@ $@  ",
"  @$%$$$$$$$$$$$$$$$$$$$$%$$$$ %$$$%$$$$$$$$$$$$$$$$$$$$$$@ $@  ",
"  @$%$$$$$$$$$$$$$$$$$$$$%$$$$ %$$$%$$$$$$$$$$$$$$$$$$$$$$@ $@  ",
"  @$%$$$$$$$$$$$$$$$$$$$$%$$$$ %$$$%$$$$$$$$$$$$$$$$$$$$$$@ $@  ",
"  @$%$$$$$$$$$$$$$$$$$$$$%$$$$ %$$$%$$$$$$$$$$$$$$$$$$$$$$@ $@  ",
"  @$%$$$$$$$$$$$$$$$$$$$$%$$$$ %$$$%$$$$$$$$$$$$$$$$$$$$$$$ $@  ",
"  @$$%$$$$$$$$$$$$$$$$$$$%$$$$ %$$$%$$$$$$$$$$$$$$$$$$$$$$%$$@  ",
"  @$$$%$$$$$$$$$$$$$$$$$$%$$$$ %$$$%$$$$$$$$$$$$$$$$$$$$$%$$$@  ",
"  @$$$$%$$$$$$$$$$$$$$$$$%$$$$ %$$$%$$$$$$$$$$$$$$$$$$$$%$$$$@  ",
"  @$$$$$%$$$$$$$$$$$$$$$$%$$$$ %$$$%$$$$$$$$$$$$$$$$$$$%$$$$$@  ",
"  @$$$$$$%$$$$$$$$$$$$$$$%$$$$ %$$$%$$$$$$$$$$$$$$$$$$%$$$$$$@  ",
"   @$$$$$$%$$$$$$$$$$$$$$%$$$$ %$$$%$$$$$$$$$$$$$$$$$%$$$$$$@   ",
"    @$$$$$$%$$$$$$$$$$$$$%$$$$ %$$$%$$$$$$$$$$$$$$$$%$$$$$$@    ",
"     @$$$$$$%%%%%%%%%%%%%%$$$$ %$$$%%%%%%%%%%%%%%%%%$$$$$$@     ",
"      @$$$$$$$$$$$$$$$$$$$$$$$ %$$$$$$$$$$$$$$$$$$$$$$$$$@      ",
"       @$$$$$$$$$$$$$$$$$$$$$$ %$$$$$$$$$$$$$$$$$$$$$$$$@       "};
