/* XPM */
static char * door_green_unlocked_xpm[] = {
"64 64 14 1",
" 	c #232325",
".	c #39393D",
"+	c #181A17",
"@	c #0D100C",
"#	c #5E5F65",
"$	c #78827E",
"%	c #050604",
"&	c #525258",
"*	c #245C0C",
"=	c #3DAB0E",
"-	c #5E7960",
";	c #5CF31A",
">	c #5E8E5C",
",	c #686F6E",
"                                                                ",
"                                                                ",
"       ........+++@@@@@@@@@@@@@@@@@@@@@@@@@@@@@@@@+++....       ",
"      .#######$+++@@@@@@@@@@@@@@@@@@@@@@@@@@@@@@@@+++$###.      ",
"     .########$+++@@@@@@@@@@@@@@@@@@@@@@@@@@@@@@@@+++$####.     ",
"    .#########$+++@@@%%%%%%%%%%%%%%%%%%%%%%%%%%@@@+++$#####.    ",
"   .##########$+++@@@%%%%%%%%%%%%%%%%%%%%%%%%%%@@@+++$######.   ",
"  .###########$+++@@@%%%%%%%%%%%%%%%%%%%%%%%%%%@@@+++$#######.  ",
"       $$$$$##$+++@@@%%%%%%%%%%%%%%%%%%%%%%%%%%@@@+++$##$$$$    ",
"  &&&&#####$##$+++@@@%%%%%%%%%%%%%%%%%%%%%%%%%%@@@+++$##$####&  ",
"  &########$##$+++@@@%%%%%%%%%%%%%%%%%%%%%%%%%%@@@+++$##$####&  ",
"  &########$##$+++@@@%%%%%%%%%%%%%%%%%%%%%%%%%%@@@+++$##$####&  ",
"  &########$##$+++@@@%%%%%%%%%%%%%%%%%%%%%%%%%%@@@+++$##$####&  ",
"  &########$##$+++@@@%%%%%%%%%%%%%%%%%%%%%%%%%%@@@+++$##$####&  ",
"  &########$##$+++@@@%%%%%%%%%%%%%%%%%%%%%%%%%%@@@+++$##$####&  ",
"  &########$##$+++@@@%%%%%%%%%%%%%%%%%%%%%%%%%%@@@+++$##$####&  ",
"  &########$##$+++@@@%%%%%%%%%%%%%%%%%%%%%%%%%%@@@+++$##$####&  ",
"  &########$##$+++@@@%%%%%%%%%%%%%%%%%%%%%%%%%%@@@+++$##$####&  ",
"  &#######$###$+++@@@%%%%%%%%%%%%%%%%%%%%%%%%%%@@@+++$##$####&  ",
"  &######$####$+++@@@%%%%%%%%%%%%%%%%%%%%%%%%%%@@@+++$##$####&  ",
" **#####$#####$+++@@@%%%%%%%%%%%%%%%%%%%%%%%%%%@@@+++$##$####** ",
" *=###&$######$+++@@@%%%%%%%%%%%%%%%%%%%%%%%%%%@@@+++$##$####=* ",
" ==&&& #######$+++@@@%%%%%%%%%%%%%%%%%%%%%%%%%%@@@+++$## &&&&== ",
" ==   ########$+++@@@%%%%%%%%%%%%%%%%%%%%%%%%%%@@@+++$##     == ",
" ==#-#########$+++@@@%%%%%%%%%%%%%%%%%%%%%%%%%%@@@+++$#####-#== ",
" ==---########$+++@@@%%%%%%%%%%%%%%%%%%%%%%%%%%@@@+++$####---;= ",
" =;---########$+++@@@%%%%%%%%%%%%%%%%%%%%%%%%%%@@@+++$####---;= ",
" =;---########$+++@@@%%%%%%%%%%%%%%%%%%%%%%%%%%@@@+++$####---;= ",
" =;->-#######$+++@@@%%%%%%%%%%%%%%%%%%%%%%%%%%@@@+++$#####->-;= ",
" =;>>-#######$+++@@@%%%%%%%%%%%%%%%%%%%%%%%%%%@@@+++$#####->>;= ",
" =;>>-######$+++@@@%%%%%%%%%%%%%%%%%%%%%%%%%%@@@+++$######->>;= ",
" =;>>-######$+++@@@%%%%%%%%%%%%%%%%%%%%%%%%%%@@@+++$######->>;= ",
" =;>>-#####$+++@@@%%%%%%%%%%%%%%%%%%%%%%%%%%@@@+++$#######->>;= ",
" =;>>-#####$+++@@@%%%%%%%%%%%%%%%%%%%%%%%%%%@@@+++$#######->>;= ",
" =;>>-####$+++@@@%%%%%%%%%%%%%%%%%%%%%%%%%%@@@+++$########->>;= ",
" =;>>-####$+++@@@%%%%%%%%%%%%%%%%%%%%%%%%%%@@@+++$########-->;= ",
" =;>--###$+++@@@%%%%%%%%%%%%%%%%%%%%%%%%%%@@@+++$#########-->;= ",
" =;---###$+++@@@%%%%%%%%%%%%%%%%%%%%%%%%%%@@@+++$#########---;= ",
" =;--####$+++@@@%%%%%%%%%%%%%%%%%%%%%%%%%%@@@+++$##########--;= ",
" ==#-####$+++@@@%%%%%%%%%%%%%%%%%%%%%%%%%%@@@+++$##########-#== ",
" ==    ##$+++@@@%%%%%%%%%%%%%%%%%%%%%%%%%%@@@+++$######      == ",
" ==&&& ##$+++@@@%%%%%%%%%%%%%%%%%%%%%%%%%%@@@+++$##### &&&&&&== ",
" *=##& ##$+++@@@%%%%%%%%%%%%%%%%%%%%%%%%%%@@@+++$#### &######=* ",
" **##& ##$+++@@@%%%%%%%%%%%%%%%%%%%%%%%%%%@@@+++$### &#######** ",
"  &### ##$+++@@@%%%%%%%%%%%%%%%%%%%%%%%%%%@@@+++$## &########&  ",
"  &###$##$+++@@@%%%%%%%%%%%%%%%%%%%%%%%%%%@@@+++$## #########&  ",
"  &###$##$+++@@@%%%%%%%%%%%%%%%%%%%%%%%%%%@@@+++$##$#########&  ",
"  &###$##$+++@@@%%%%%%%%%%%%%%%%%%%%%%%%%%@@@+++$##$#########&  ",
"  &###$##$+++@@@%%%%%%%%%%%%%%%%%%%%%%%%%%@@@+++$##$#########&  ",
"  &###$##$+++@@@%%%%%%%%%%%%%%%%%%%%%%%%%%@@@+++$##$#########&  ",
"  &###$##$+++@@@%%%%%%%%%%%%%%%%%%%%%%%%%%@@@+++$##$#########&  ",
"  &###$##$+++@@@%%%%%%%%%%%%%%%%%%%%%%%%%%@@@+++$##$#########&  ",
"  &###$##$+++@@@%%%%%%%%%%%%%%%%%%%%%%%%%%@@@+++$##$#########&  ",
"  &###$##$+++@@@%%%%%%%%%%%%%%%%%%%%%%%%%%@@@+++$##$#########&  ",
"  &###$##$+++@@@%%%%%%%%%%%%%%%%%%%%%%%%%%@@@+++$##$#########&  ",
"  &###$##$+++@@@%%%%%%%%%%%%%%%%%%%%%%%%%%@@@+++$##$#########&  ",
"  &###$##$+++@@@%%%%%%%%%%%%%%%%%%%%%%%%%%@@@+++$##$#########&  ",
"  &###$##$+++@@@%%%%%%%%%%%%%%%%%%%%%%%%%%@@@+++$##$#########&  ",
"  &###$##$+++@@@%%%%%%%%%%%%%%%%%%%%%%%%%%@@@+++$##$#########&  ",
"   &##$##$+++@@@%%%%%%%%%%%%%%%%%%%%%%%%%%@@@+++$##$########&   ",
"    &#$##$+++@@@%%%%%%%%%%%%%%%%%%%%%%%%%%@@@+++$##$#######&    ",
"     ,$##$+++@@@%%%%%%%%%%%%%%%%%%%%%%%%%%@@@+++$##$$$$$$$,     ",
"      &##$+++@@@%%%%%%%%%%%%%%%%%%%%%%%%%%@@@+++$########&      ",
"       &&&+++@@@%%%%%%%%%%%%%%%%%%%%%%%%%%@@@+++&&&#####&       "};
