/* XPM */
static char * texture_lever_off_south_xpm[] = {
"64 64 150 2",
"  	c #1D1E67",
". 	c #1D1F68",
"+ 	c #1D206B",
"@ 	c #1C1C92",
"# 	c #1A26A1",
"$ 	c #1D1C7E",
"% 	c #1C1A67",
"& 	c #1C1A68",
"* 	c #1D1C6A",
"= 	c #1C1A69",
"- 	c #1D1D6D",
"; 	c #1D1D6C",
"> 	c #1F1D6C",
", 	c #201B6A",
"' 	c #211F70",
") 	c #221D6D",
"! 	c #1D1C6B",
"~ 	c #1E1978",
"{ 	c #1D1E6E",
"] 	c #1D1D75",
"^ 	c #1C1F7C",
"/ 	c #271F7F",
"( 	c #291C75",
"_ 	c #1E0F81",
": 	c #1D1689",
"< 	c #172EAF",
"[ 	c #2A2DB1",
"} 	c #3C1591",
"| 	c #1C1B91",
"1 	c #1434BC",
"2 	c #1D1F85",
"3 	c #3533BF",
"4 	c #501A9F",
"5 	c #3548BD",
"6 	c #4857BF",
"7 	c #4932C2",
"8 	c #626EC1",
"9 	c #1A229C",
"0 	c #7029A7",
"a 	c #1927A4",
"b 	c #1D1A72",
"c 	c #E503FE",
"d 	c #182AAA",
"e 	c #361A96",
"f 	c #6571C1",
"g 	c #623AA2",
"h 	c #C3D8F6",
"i 	c #521E8B",
"j 	c #1E2368",
"k 	c #1A2065",
"l 	c #1A2063",
"m 	c #1E2369",
"n 	c #1E236B",
"o 	c #1E236C",
"p 	c #1E2273",
"q 	c #4E5CBF",
"r 	c #1D2168",
"s 	c #1E2269",
"t 	c #1F226A",
"u 	c #1F226B",
"v 	c #6054C5",
"w 	c #7044AD",
"x 	c #3333BF",
"y 	c #686DC3",
"z 	c #66584B",
"A 	c #83705B",
"B 	c #0B0D35",
"C 	c #2E241C",
"D 	c #44362B",
"E 	c #4A3A2E",
"F 	c #6E5641",
"G 	c #6459C5",
"H 	c #81460F",
"I 	c #BB671D",
"J 	c #585858",
"K 	c #949494",
"L 	c #6B3C0E",
"M 	c #9C5619",
"N 	c #3D3D3D",
"O 	c #141749",
"P 	c #573111",
"Q 	c #854713",
"R 	c #FF001D",
"S 	c #F37D8B",
"T 	c #502805",
"U 	c #713D0F",
"V 	c #371C08",
"W 	c #4C2B0B",
"X 	c #3521A1",
"Y 	c #000000",
"Z 	c #4B21A6",
"` 	c #4F21A8",
" .	c #4A25AD",
"..	c #6620B1",
"+.	c #702EB0",
"@.	c #1A37A0",
"#.	c #6719A9",
"$.	c #5224B0",
"%.	c #6230C8",
"&.	c #613EC9",
"*.	c #6149CA",
"=.	c #713DCE",
"-.	c #7146CF",
";.	c #5F49CA",
">.	c #5F3FC9",
",.	c #7769C8",
"'.	c #7270C8",
").	c #5F62C8",
"!.	c #5F5CC6",
"~.	c #756DC6",
"{.	c #3342C1",
"].	c #4441C3",
"^.	c #5140C5",
"/.	c #5B3FC7",
"(.	c #4432C2",
"_.	c #3A1A71",
":.	c #3A1A7A",
"<.	c #3A1A80",
"[.	c #6E2E9D",
"}.	c #603D97",
"|.	c #6E2E9A",
"1.	c #6E2E97",
"2.	c #603D95",
"3.	c #3C1A8E",
"4.	c #331774",
"5.	c #472C92",
"6.	c #593C99",
"7.	c #6F2AA2",
"8.	c #6F2B9E",
"9.	c #6F2C9B",
"0.	c #683B9B",
"a.	c #4B1A94",
"b.	c #1C2167",
"c.	c #1E4B90",
"d.	c #1E3F8B",
"e.	c #3C1A87",
"f.	c #1330AC",
"g.	c #1F226D",
"h.	c #4A40A7",
"i.	c #2A25A3",
"j.	c #21226E",
"k.	c #20236E",
"l.	c #20226A",
"m.	c #1F2269",
"n.	c #1E236D",
"o.	c #1D1D67",
"p.	c #1E2268",
"q.	c #1E226A",
"r.	c #1E2168",
"s.	c #1E2068",
"      . + @ @ # # $ % % % % % % % % % & * = - ; > , & & & & & % % & & & & & & = & & & & & & & & & & & & % % % % % % % % % % % & ",
"      . + @ @ # # $ % % % % % % % % % & * = - ; ' ) ! ! ! ! ! = = = = = = = = = ! = = = = = = = = = = = & & & & & & & & & & & & ",
"      . + @ @ # # $ ~ ~ ~ ~ ~ - - - - { ] ] ] ^ / ( - - - - - - - - - - - - - - - - - - - - - - - - - - ! ! ! ! ! ! ! ! ! ! ! ! ",
"_ _ _ : # # # # # $ ~ ~ ~ ~ ~ ~ ~ ~ ~ $ < < < < [ } ~ ~ ~ ~ ~ ~ ~ ~ ~ ~ - - - - - - - ~ ~ ~ ~ ~ ~ ~ ~ ~ ~ ~ ~ ~ ~ ~ ~ ~ - - - - ",
"_ _ _ : # # # # # $ ~ ~ ~ ~ ~ ~ ~ ~ ~ $ < < < < [ } ~ ~ ~ ~ ~ ~ ~ ~ ~ ~ ~ ~ ~ ~ ~ ~ ~ ~ ~ ~ ~ ~ ~ ~ ~ ~ ~ ~ ~ ~ ~ ~ ~ ~ ~ ~ ~ ~ ",
"_ _ _ | 1 1 1 1 1 2 ~ ~ ~ ~ ~ ~ ~ ~ ~ 2 1 1 1 1 3 4 ~ ~ ~ ~ ~ ~ ~ ~ ~ ~ ~ ~ ~ ~ ~ ~ ~ ~ ~ ~ ~ ~ ~ ~ ~ ~ ~ ~ ~ ~ ~ ~ ~ ~ ~ ~ ~ ~ ",
"_ _ _ | 1 1 1 1 1 2 ~ ~ ~ ~ ~ ~ ~ ~ ~ 2 1 1 1 1 3 4 ~ ~ ~ ~ ~ ~ ~ ~ ~ ~ ~ ~ ~ ~ ~ ~ ~ ~ ~ ~ ~ ~ ~ ~ ~ ~ ~ ~ ~ ~ ~ ~ ~ ~ ~ ~ ~ ~ ",
"_ _ _ | 1 1 1 1 1 2 ~ ~ ~ ~ ~ ~ ~ ~ ~ 2 1 1 1 5 3 4 ~ ~ ~ ~ ~ ~ ~ ~ ~ ~ ~ ~ ~ ~ ~ ~ ~ ~ ~ ~ ~ ~ ~ ~ ~ ~ ~ ~ ~ ~ ~ ~ ~ ~ ~ ~ ~ ~ ",
"_ _ _ | 1 1 1 1 1 2 ~ ~ ~ ~ ~ ~ ~ ~ ~ 2 1 1 1 6 7 4 ~ ~ ~ ~ ~ ~ ~ ~ ~ ~ ~ ~ ~ ~ ~ ~ ~ ~ ~ ~ ~ ~ ~ ~ ~ ~ ~ ~ ~ ~ ~ ~ ~ ~ ~ ~ ~ ~ ",
"_ _ _ | 1 1 1 1 1 2 ~ ~ ~ ~ ~ ~ ~ ~ ~ 2 1 1 1 8 7 4 ~ ~ ~ ~ ~ ~ ~ ~ ~ ~ ~ ~ ~ ~ ~ ~ ~ ~ ~ ~ ~ ~ ~ ~ ~ ~ ~ ~ ~ ~ ~ ~ ~ ~ ~ ~ ~ ~ ",
"_ _ _ | 1 1 1 1 1 2 ~ ~ ~ ~ ~ ~ ~ ~ ~ 2 1 1 1 6 7 4 ~ ~ ~ ~ ~ ~ ~ ~ ~ ~ ~ ~ ~ ~ ~ ~ ~ ~ ~ ~ ~ ~ ~ ~ ~ ~ ~ ~ ~ ~ ~ ~ ~ ~ ~ ~ ~ ~ ",
"_ _ _ | 1 1 1 1 1 2 ~ ~ ~ ~ ~ ~ ~ ~ ~ 2 1 1 1 6 7 4 ~ ~ ~ ~ ~ ~ ~ ~ ~ ~ ~ ~ ~ ~ ~ ~ ~ ~ ~ ~ ~ ~ ~ ~ ~ ~ ~ ~ ~ ~ ~ ~ ~ ~ ~ ~ ~ ~ ",
"_ _ _ | 1 1 1 1 1 2 ~ ~ ~ ~ ~ ~ ~ ~ ~ 2 1 1 1 6 7 4 ~ ~ ~ ~ ~ ~ ~ ~ ~ ~ ~ ~ ~ ~ ~ ~ ~ ~ ~ ~ ~ ~ ~ ~ ~ ~ ~ ~ ~ ~ ~ ~ ~ ~ ~ ~ ~ ~ ",
"_ _ _ | 1 1 1 1 1 ^ ~ ~ ~ ~ ~ ~ ~ ~ ~ 9 1 1 1 6 7 4 ~ ~ ~ ~ ~ 0 0 0 0 ~ ~ ~ ~ ~ ~ 0 0 0 0 ~ ~ ~ ~ ~ ~ ~ ~ ~ ~ ~ ~ ~ ~ ~ ~ ~ ~ ~ ",
"_ _ _ | 1 1 1 1 1 ^ ~ ~ ~ ~ ~ ~ ~ ~ ~ a 1 1 1 1 7 4 ~ ~ ~ 0 0 0 0 0 0 0 ~ ~ ~ 0 0 0 0 0 0 0 ~ ~ ~ ~ ~ ~ ~ ~ ~ ~ ~ ~ ~ ~ ~ ~ ~ ~ ",
"_ _ _ | 1 1 1 1 1 ^ b ~ ~ ~ ~ ~ ~ ~ ~ a 1 1 1 1 7 4 ~ ~ ~ 0 c c c c c 0 ~ ~ ~ 0 c c c c c 0 ~ ~ ~ ~ ~ ~ ~ ~ ~ ~ ~ ~ ~ ~ ~ ~ ~ ~ ",
"| | | | 1 1 1 1 1 ^ ^ ^ ^ 2 2 2 9 a a d 1 1 1 1 7 4 ~ ~ ~ 0 c c c c c 0 ~ ~ ~ 0 c c c c c 0 ~ ~ ~ ~ ~ ~ ~ ~ ~ ~ ~ ~ 2 2 2 2 2 2 ",
"1 1 1 1 1 1 1 1 1 1 1 1 1 1 1 1 1 1 1 1 1 1 1 1 7 4 ~ ~ ~ 0 c c c c c 0 ~ ~ 0 0 c c c c c 0 0 ~ ~ ~ ~ ~ ~ ~ ~ ~ ~ ~ 2 1 1 1 1 1 ",
"1 1 1 1 1 6 6 8 8 6 6 6 6 6 6 6 6 1 1 1 1 1 1 1 7 4 ~ ~ ~ 0 c c c c c 0 0 ~ 0 0 c c c c c 0 0 ~ ~ ~ ~ ~ ~ ~ ~ ~ ~ ~ e 1 1 1 1 1 ",
"1 1 1 1 1 1 1 1 1 1 1 1 1 1 1 1 1 1 1 1 1 1 1 1 7 4 ~ ~ 0 0 c c c c c 0 0 ~ 0 0 c c c c c 0 0 ~ ~ ~ ~ ~ ~ ~ ~ ~ ~ ~ e 1 1 1 f 1 ",
"1 1 1 1 1 1 1 1 1 1 1 1 1 1 1 1 1 1 1 1 1 1 1 1 7 4 ~ ~ 0 g c c h c c g 0 ~ 0 0 c c h c c 0 0 ~ ~ ~ ~ ~ ~ ~ ~ ~ ~ ~ e 1 1 1 f 1 ",
"1 1 1 1 1 1 1 1 1 1 1 1 1 1 1 1 1 1 1 1 1 1 1 1 7 4 ~ ~ 0 g c c h c c g 0 i 0 g c c h c c 0 0 ~ ~ ~ ~ ~ ~ ~ ~ ~ ~ ~ e 1 1 1 f 1 ",
"j k k l m n n o o p p p p p p p p p p p 1 1 1 1 7 4 ~ ~ 0 g c c h c c g 0 i 0 g c c h c c 0 0 ~ ~ ~ ~ ~ ~ ~ ~ ~ ~ ~ e 1 1 1 q 1 ",
"r s t t t u t t t t t t t u u u u u u p 1 1 1 1 7 4 ~ ~ 0 g c c h c c g 0 i 0 g c c h c c g 0 ~ ~ ~ ~ ~ ~ ~ ~ ~ ~ ~ e 1 1 1 q 1 ",
"s u u u u u u u u u u u u u u u u u u p 1 1 1 1 7 4 ~ ~ 0 g c c h c c g 0 i 0 g c c h c c g 0 ~ ~ ~ ~ ~ ~ ~ ~ ~ ~ ~ e 1 1 1 q 1 ",
"u u u u u u u u u u u u u u u u u u u p 1 1 1 v 7 4 ~ ~ 0 w c c h c c g 0 i 0 g c c h c c g 0 ~ ~ ~ ~ ~ ~ ~ ~ ~ ~ ~ e x 1 1 q 1 ",
"u u u u u u u u u u u u u u u u u u u p 1 1 1 v 7 4 ~ ~ 0 w c c h c c g 0 i 0 g c c h c c g 0 ~ ~ ~ ~ ~ ~ ~ ~ ~ ~ ~ e 1 1 1 q 1 ",
"u u u u u u u u u u u u u u u u u u u p 1 1 1 y 7 4 ~ ~ 0 w c c h c c w 0 i 0 g c c h c c g 0 ~ ~ ~ ~ ~ ~ ~ ~ ~ ~ ~ e x 1 1 1 1 ",
"u u u u u u u u u z A u u u u u u u u p 1 1 1 y 7 4 ~ ~ 0 w c c h c c w 0 i 0 g c c h c c g 0 ~ ~ ~ ~ ~ ~ ~ ~ ~ ~ ~ e x 1 1 1 1 ",
"u u u u u u u u B C D u u u u u u u u p 1 1 1 y 7 4 ~ ~ 0 w c c h c c w 0 i 0 g c c h c c w 0 ~ ~ ~ ~ ~ ~ ~ ~ ~ ~ ~ e x 1 1 1 1 ",
"u u u u u u u u B E F u u u u u u u u p 1 1 1 v 7 4 ~ ~ 0 w c c h c c g 0 i 0 w c c h c c w 0 ~ ~ ~ ~ ~ ~ ~ ~ ~ ~ ~ e x 1 1 1 1 ",
"u u u u u u u u B C D u u u u u u u u p 1 1 1 v 7 4 ~ ~ 0 w c c h c c g 0 i 0 w c c h c c w 0 ~ ~ ~ ~ ~ ~ ~ ~ ~ ~ ~ e 1 1 1 1 1 ",
"u u u u u u u u B E F u u u u u u u u p 1 1 1 G 7 4 ~ ~ 0 g c c h c c g 0 i 0 g c c h c c g 0 ~ ~ ~ ~ ~ ~ ~ ~ ~ ~ ~ e 1 1 1 1 1 ",
"u u u u u u u u B C D u u u u u u u u p 1 1 1 G 7 4 ~ ~ 0 g c c h c c g 0 i 0 g c c h c c g 0 ~ ~ ~ ~ ~ ~ ~ ~ ~ ~ ~ e 1 1 1 1 1 ",
"u u u u u u u u B H I u u u u u u u u p 1 1 1 G 7 4 ~ ~ 0 g c c h c c g 0 i 0 0 c c h c c g 0 ~ ~ ~ ~ ~ ~ ~ ~ ~ ~ ~ e 1 1 1 1 1 ",
"u u u u u u u u B H I u u u u u u u u p 1 1 1 G 7 4 ~ ~ 0 g c c h c c 0 0 i 0 0 c c h c c g 0 ~ ~ ~ ~ ~ ~ ~ ~ ~ ~ ~ e 1 1 1 1 1 ",
"u u u u u u u J K L M K K u u u u u u p 1 1 1 G 7 4 ~ ~ 0 g c c h c c 0 0 i 0 0 c c h c c 0 0 ~ ~ ~ ~ ~ ~ ~ ~ ~ ~ ~ e 1 1 1 1 1 ",
"u u u u u u B N J L M J K u u u u u u p 1 1 1 G 7 4 ~ ~ 0 g c c h c c 0 0 i 0 0 c c h c c 0 0 ~ ~ ~ ~ ~ ~ ~ ~ ~ ~ ~ e 1 1 1 1 1 ",
"u O K K u u B N K P Q N K u u u u u u p 1 1 1 G 7 4 ~ ~ 0 g c c h c c 0 0 i 0 0 c c h c c 0 0 ~ ~ ~ ~ ~ ~ ~ ~ ~ ~ ~ e 1 1 1 1 1 ",
"O N R S K u B N K T U N K u u u u u u p 1 1 1 G 7 4 ~ ~ 0 g c c h c c 0 0 i 0 0 c c h c c 0 0 ~ ~ ~ ~ ~ ~ ~ ~ ~ ~ ~ e 1 1 1 1 1 ",
"O N R R K u B N K V W N K u u u u u u p 1 1 1 G 7 4 ~ ~ 0 g c c h c c 0 0 i 0 0 c c h c c 0 0 ~ ~ ~ ~ ~ ~ ~ ~ ~ ~ ~ X 7 1 1 1 1 ",
"O O N N O u B N K Y Y N K u u u u u u p 1 1 1 G 7 4 ~ ~ 0 0 c c c c c 0 0 i 0 0 c c c c c 0 0 ~ ~ ~ ~ ~ ~ ~ ~ ~ ~ ~ Z 7 1 1 1 1 ",
"u O O O u u B N K Y Y N K u u u u u u p 1 1 1 G 7 4 ~ ~ 0 0 c c c c c 0 0 _ 0 0 c c c c c 0 0 ~ ~ ~ ~ ~ ~ ~ ~ ~ ~ ~ Z 1 1 1 1 1 ",
"u u u u u u B N J K K J K u u u u u u p 1 1 1 G 7 ` ~ ~ ~ 0 c c c c c 0 0 _ 0 0 c c c c c 0 0 ~ ~ ~ ~ ~ ~ ~ ~ ~ ~ ~  .1 1 1 1 1 ",
"u u u u u u B N N N N N J u u u u u u p 1 1 1 G 7 ` ..` 4 +.c c c c c @.@.4 4 +.c c c c c +.4 ` ` ` ` ` ` #.#.`  . .$.1 1 1 1 1 ",
"u u u u u u B B B B B B u u u u u u u p 1 1 1 G 7 7 %.%.%.7 &.*.*.*.*.&.7 7 7 7 =.=.-.-.;.>.7 7 7 7 7 7 1 1 1 1 1 1 1 1 1 1 1 1 ",
"u u u u u u u u u u u u u u u u u u u p 1 1 1 G G G v v v ,.'.).!.!.!.v v 1 1 1 1 >.>.=.7 7 7 1 1 1 1 v ~.v v ~.v v v v 1 1 1 1 ",
"u u u u u u u u u u u u u u u u u u u p 1 1 1 G 1 1 1 1 1 1 1 1 1 1 1 1 1 1 1 1 1 1 1 1 1 1 1 1 1 1 1 1 1 1 1 1 1 1 1 1 1 1 1 1 ",
"u u u u u u u u u u u u u u u u u u u p 1 1 1 G 1 1 1 1 1 1 1 1 {.{.x 1 1 1 1 1 1 1 ].].1 1 1 1 1 1 1 1 1 1 1 1 1 1 1 1 1 1 1 1 ",
"u u u u u u u u u u u u u u u u u u u p 1 1 1 G 1 x x x x x ].].].].].x x x x x ^././.^.^.(.x x 1 1 1 1 1 1 1 1 1 1 1 1 1 1 1 1 ",
"u u u u u u u u u u u u u u u u u u u p 1 1 1 G x _._.:.<.[.c c c c c }.|.1.[.2.c c c c c |.<.3.1 1 1 1 1 l m j m n n o o o o o ",
"u u u u u u u u u u u u u u u u u u u p 1 1 1 G x :.4.u 5.5.c c h c c 6.7.8.9.0.c c h c c 8._ a.x 1 1 1 1 b.s t u u u u u u u u ",
"u u u u u u u u u u u u u u u u u u u p 1 1 1 G x _.t u 5.5.c c h c c c.5.5.5.d.c c h c c 5.5.e 1 1 1 1 1 m u u u u u u u u u u ",
"u u u u u u u u u u u u u u u u u u u p 1 1 1 G x :.u u 5.5.c c h c c d.5.u 5.d.c c h c c 5.5.e x 1 1 6 1 m u u u u u u u u u u ",
"u u u u u u u u u u u u u u u u u u u p 1 1 1 G x <.u u u 5.c c c c c d.5.u 5.5.c c c c c 5.5.e x 1 1 8 1 j u u u u u u u u u u ",
"u u u u u u u u u u u u u u u u u u u p 1 1 1 G x e.u u u 5.c c c c c 5.5.u u 5.c c c c c 5.u e x 1 1 6 f.n u u u u u u u u u u ",
"u u u u u u u u u u u u u u u u u u u p 1 1 1 G x 3.u u u 5.5.5.5.5.5.5.u u u 5.5.5.5.5.5.5.u e x 1 1 6 f.o u u u u u u u u u u ",
"u u u u u u u u u u u u u u u u u u u p 1 1 1 G x e u u u u 5.5.5.5.u u u u u u 5.5.5.5.u u u e x 1 1 6 1 p u u u u u u u u u u ",
"u u u u u u u u u u u u u u u u u u u p 1 1 1 G x e u u u u u u u u u u u u u u u u u u u u u e x 1 1 6 1 p u u u u u u u u u u ",
"u u u u u u u u u u u u u u u u u u u g.# # # h.i.j.u u u u u u u u u u u u u u u u u u u u u g.i.# # # # g.u u u u u u u u u u ",
"u u u u u u u u u u u u u u u u u u u g.# # # h.k.l.m.m.m.m.m.m.m.m.m.m.m.m.m.m.m.u u u u u u g.i.# # # # g.u u u u u u u u u u ",
"m.m.m.m.m.m.m.m.m.m.m.m.m.m.m.m.m.m.m.t u u u n.k.l.m.m.m.m.m.m.m.m.m.m.m.m.m.m.m.m.m.m.m.m.m.t n.n.u u u t u u u m.m.m.m.m.m.m.",
"o.o.o.o.o.o.o.o.o.o.o.o.o.o.o.o.o.o.o.  p.p.u q.t m.r.r.r.r.r.r.r.r.r.r.r.r.r.r.r.r.r.r.r.r.r.m.q.q.s s.s.o.o.o.o.o.o.o.o.o.o.o.",
"o.o.o.o.o.o.o.o.o.o.o.o.o.o.o.o.o.o.o.  p.p.u q.q.m.r.r.r.r.r.r.r.r.r.r.r.r.r.r.r.r.r.r.r.r.r.m.q.q.s s.s.o.o.o.o.o.o.o.o.o.o.o."};
