/* XPM */
static char * lever_off_base_xpm[] = {
"64 64 77 1",
" 	c #1B1565",
".	c #1B1665",
"+	c #1A1869",
"@	c #1A1562",
"#	c #1A1664",
"$	c #1A1B6A",
"%	c #1A155A",
"&	c #1B1567",
"*	c #1B1668",
"=	c #1C1A6B",
"-	c #1B1669",
";	c #1D206B",
">	c #1B1569",
",	c #1D206C",
"'	c #1E1F6B",
")	c #1D1A6B",
"!	c #1E1F6C",
"~	c #1D2070",
"{	c #172698",
"]	c #1E207F",
"^	c #1D2172",
"/	c #1F1F70",
"(	c #1434BC",
"_	c #4857BF",
":	c #626EC1",
"<	c #1D2174",
"[	c #1A229C",
"}	c #1927A4",
"|	c #1E1F6D",
"1	c #182AAA",
"2	c #6571C1",
"3	c #1C2269",
"4	c #1A2065",
"5	c #1A2063",
"6	c #1D226B",
"7	c #1D226D",
"8	c #1E2270",
"9	c #4E5CBF",
"0	c #1C1F69",
"a	c #1E2169",
"b	c #1E216B",
"c	c #1F216C",
"d	c #66584B",
"e	c #83705B",
"f	c #0B0C36",
"g	c #2E241C",
"h	c #44362B",
"i	c #4A3A2E",
"j	c #6E5641",
"k	c #81460F",
"l	c #BB671D",
"m	c #585858",
"n	c #949494",
"o	c #6B3C0E",
"p	c #9C5619",
"q	c #3D3D3D",
"r	c #141749",
"s	c #573111",
"t	c #854713",
"u	c #FF001D",
"v	c #F37D8B",
"w	c #502805",
"x	c #713D0F",
"y	c #371C08",
"z	c #4C2B0B",
"A	c #000000",
"B	c #1D2269",
"C	c #1B2067",
"D	c #1E2269",
"E	c #1B1F66",
"F	c #1E207A",
"G	c #1330AC",
"H	c #1D1D67",
"I	c #15268F",
"J	c #1C1B5F",
"K	c #1C1D63",
"L	c #1B216B",
"   .+++++. @ @@@@@@#$$+++#@%%%%%%%%%%%%%%%%%%%%%%%%%%%%%%%%@@@@@",
"&&&*=====*&&&&&&&&&-;;;;;=&&&&&&&&&&&&&&&&&&&&&&&&&&&&&&&&&&&&&&",
"&&&*=----*&&&&&&&&&-;;;;;=&&&&&&&&&&&&&&&&&&&&&&&&&&&&&&&&&&&&&&",
">>>=,,,,,')))))!!!!~{{{{{]!!!!!!!!!!!!!!!!!!!!!!!!!!!!!!!!!!!!!!",
")))'^^^^^~!!!!!!///](((((]!!!!!!!!!!!!!!!!!!!!!!!!!!!!!!!!!!!!!!",
")))~{{{{(]/////////](((((]//!!!!!!!!!!!!!!!!!!!!!!!!!!!!!!!!!!!!",
"!!/](((((]/////////](((((]//////////////////////////////////////",
"///](((((]/////////](((_(]//////////////////////////////////////",
"///](((((]/////////](((_(]//////////////////////////////////////",
"///](((((]/////////](((:(]//////////////////////////////////////",
"///](((((]/////////](((_(]//////////////////////////////////////",
"///](((((]/////////](((_(]//////////////////////////////////////",
"///](((((]/////////](((_(]//////////////////////////////////////",
"///](((((</////////[(((_(]//////////////////////////////////////",
"///](((((</////////}(((((]//////////////////////////////////////",
"///](((((<|////////}(((((]//////////////////////////////////////",
"]]]](((((<<<<]]][}}1(((((]////////////////////////////////]]]]]]",
"(((((((((((((((((((((((((]////////////////////////////////](((((",
"(((((__::________((((((((]////////////////////////////////](((((",
"(((((((((((((((((((((((((]////////////////////////////////](((2(",
"(((((((((((((((((((((((((]////////////////////////////////](((2(",
"(((((((((((((((((((((((((]////////////////////////////////](((2(",
"344567788]]]]]]]]]]](((((]////////////////////////////////](((9(",
"0abbbcbbbbbbbcccccc](((((]////////////////////////////////](((9(",
"acccccccccccccccccc](((((]////////////////////////////////](((9(",
"ccccccccccccccccccc](((_(]////////////////////////////////](((9(",
"ccccccccccccccccccc](((_(]////////////////////////////////](((9(",
"ccccccccccccccccccc](((:(]////////////////////////////////](((((",
"cccccccccdecccccccc](((:(]////////////////////////////////](((((",
"ccccccccfghcccccccc](((:(]////////////////////////////////](((((",
"ccccccccfijcccccccc](((_(]////////////////////////////////](((((",
"ccccccccfghcccccccc](((_(]////////////////////////////////](((((",
"ccccccccfijcccccccc](((9(]////////////////////////////////](((((",
"ccccccccfghcccccccc](((9(]////////////////////////////////](((((",
"ccccccccfklcccccccc](((9(]////////////////////////////////](((((",
"ccccccccfklcccccccc](((9(]////////////////////////////////](((((",
"cccccccmnopnncccccc](((9(]////////////////////////////////](((((",
"ccccccfqmopmncccccc](((9(]////////////////////////////////](((((",
"crnnccfqnstqncccccc](((9(]////////////////////////////////](((((",
"rquvncfqnwxqncccccc](((9(]////////////////////////////////](((((",
"rquuncfqnyzqncccccc](((9(]////////////////////////////////[(((((",
"rrqqrcfqnAAqncccccc](((9(]////////////////////////////////[(((((",
"crrrccfqnAAqncccccc](((9(]////////////////////////////////[(((((",
"ccccccfqmnnmncccccc](((9([////////////////////////////////}(((((",
"ccccccfqqqqqmcccccc](((9([[[]]]]]][[[]]]]][]]]][[[[[[]][}}}(((((",
"ccccccffffffccccccc](((9((((((((((((((((((((((((((((((((((((((((",
"ccccccccccccccccccc](((999___::______((((((((((((((_2__2____((((",
"ccccccccccccccccccc](((9((((((((((((((((((((((((((((((((((((((((",
"ccccccccccccccccccc](((9((((((((((((((((((((((((((((((((((((((((",
"ccccccccccccccccccc](((9((((((((((((((((((((((((((((((((((((((((",
"ccccccccccccccccccc](((9(44B6B6CBBCBC4BCCCCCCC68(((((56367788888",
"ccccccccccccccccccc](((9(B0cccccccbbbD000EEE0Dc8(((((Cabcccccccc",
"ccccccccccccccccccc](((9(4bccccccccccccccccccccF(((((6cccccccccc",
"ccccccccccccccccccc](((9(BcccccccccccccccccccccF(((_(6cccccccccc",
"ccccccccccccccccccc](((9(6cccccccccccccccccccccF(((:(3cccccccccc",
"ccccccccccccccccccc](((9(7cccccccccccccccccccccF(((_G7cccccccccc",
"ccccccccccccccccccc](((9(8cccccccccccccccccccccF(((_G8cccccccccc",
"ccccccccccccccccccc](((9(FcccccccccccccccccccccF(((_(]cccccccccc",
"ccccccccccccccccccc](((9(FcccccccccccccccccccccF(((_(]cccccccccc",
"ccccccccccccccccccc](((9(FcccccccccccccccccccccF(((((]cccccccccc",
"ccccccccccccccccccc](((9(FcccccccccccccccccccccF(((((]cccccccccc",
"HHHHHHHHHHHHHHHHHHHDIIIIIDHHHHHHHHHHHHHHHHHHHHHDIIIIIDHHHHHHHHHH",
"HHHHHHHHHHHHHHHHHHHDIIIIIDHHHHHHHHHHHHHHHHHHHHHDIIIIIDHHHHHHHHHH",
"JJJJJJJJJJJJJJJJJJJKLLLLLKJJJJJJJJJJJJJJJJJJJJJKLLLLLKJJJJJJJJJJ"};
