/* XPM */
static char * lever_on_base_xpm[] = {
"64 64 77 1",
" 	c #1B1565",
".	c #1B1665",
"+	c #1A1869",
"@	c #1A1562",
"#	c #1A1664",
"$	c #1A1B6A",
"%	c #1A155A",
"&	c #1B1567",
"*	c #1B1668",
"=	c #1C1A6B",
"-	c #1B1669",
";	c #1D206B",
">	c #1B1569",
",	c #1D206C",
"'	c #1E1F6B",
")	c #1D1A6B",
"!	c #1E1F6C",
"~	c #1D2070",
"{	c #172698",
"]	c #1E207F",
"^	c #1D2172",
"/	c #1F1F70",
"(	c #1434BC",
"_	c #4857BF",
":	c #626EC1",
"<	c #1D2174",
"[	c #1A229C",
"}	c #1927A4",
"|	c #1E1F6D",
"1	c #182AAA",
"2	c #6571C1",
"3	c #1C2269",
"4	c #1A2065",
"5	c #1A2063",
"6	c #1D226B",
"7	c #1D226D",
"8	c #1E2270",
"9	c #4E5CBF",
"0	c #1C1F69",
"a	c #1E2169",
"b	c #1E216B",
"c	c #1F216C",
"d	c #1F2467",
"e	c #585858",
"f	c #949494",
"g	c #060625",
"h	c #3D3D3D",
"i	c #141749",
"j	c #573111",
"k	c #854713",
"l	c #3DAB0E",
"m	c #5CF31A",
"n	c #502805",
"o	c #713D0F",
"p	c #371C08",
"q	c #4C2B0B",
"r	c #6B3C0E",
"s	c #9C5619",
"t	c #81460F",
"u	c #BB671D",
"v	c #2E241C",
"w	c #44362B",
"x	c #4A3A2E",
"y	c #6E5641",
"z	c #1D2269",
"A	c #1B2067",
"B	c #1E2269",
"C	c #1B1F66",
"D	c #66584B",
"E	c #83705B",
"F	c #1E207A",
"G	c #1330AC",
"H	c #1D1D67",
"I	c #15268F",
"J	c #1C1B5F",
"K	c #1C1D63",
"L	c #1B216B",
"   .+++++. @ @@@@@@#$$+++#@%%%%%%%%%%%%%%%%%%%%%%%%%%%%%%%%@@@@@",
"&&&*=====*&&&&&&&&&-;;;;;=&&&&&&&&&&&&&&&&&&&&&&&&&&&&&&&&&&&&&&",
"&&&*=----*&&&&&&&&&-;;;;;=&&&&&&&&&&&&&&&&&&&&&&&&&&&&&&&&&&&&&&",
">>>=,,,,,')))))!!!!~{{{{{]!!!!!!!!!!!!!!!!!!!!!!!!!!!!!!!!!!!!!!",
")))'^^^^^~!!!!!!///](((((]!!!!!!!!!!!!!!!!!!!!!!!!!!!!!!!!!!!!!!",
")))~{{{{(]/////////](((((]//!!!!!!!!!!!!!!!!!!!!!!!!!!!!!!!!!!!!",
"!!/](((((]/////////](((((]//////////////////////////////////////",
"///](((((]/////////](((_(]//////////////////////////////////////",
"///](((((]/////////](((_(]//////////////////////////////////////",
"///](((((]/////////](((:(]//////////////////////////////////////",
"///](((((]/////////](((_(]//////////////////////////////////////",
"///](((((]/////////](((_(]//////////////////////////////////////",
"///](((((]/////////](((_(]//////////////////////////////////////",
"///](((((</////////[(((_(]//////////////////////////////////////",
"///](((((</////////}(((((]//////////////////////////////////////",
"///](((((<|////////}(((((]//////////////////////////////////////",
"]]]](((((<<<<]]][}}1(((((]////////////////////////////////]]]]]]",
"(((((((((((((((((((((((((]////////////////////////////////](((((",
"(((((__::________((((((((]////////////////////////////////](((((",
"(((((((((((((((((((((((((]////////////////////////////////](((2(",
"(((((((((((((((((((((((((]////////////////////////////////](((2(",
"(((((((((((((((((((((((((]////////////////////////////////](((2(",
"344567788]]]]]]]]]]](((((]////////////////////////////////](((9(",
"0abbbcbbbbbbbcccccc](((((]////////////////////////////////](((9(",
"acccccccccccccccccc](((((]////////////////////////////////](((9(",
"ccccccccccccccccccc](((_(]////////////////////////////////](((9(",
"ccccccccccccccccccc](((_(]////////////////////////////////](((9(",
"ccccccccccccccccccc](((:(]////////////////////////////////](((((",
"ccccccccddddccccccc](((:(]////////////////////////////////](((((",
"ccccccccddddccccccc](((:(]////////////////////////////////](((((",
"cccccccddddcccccccc](((_(]////////////////////////////////](((((",
"ccccccddddddccccccc](((_(]////////////////////////////////](((((",
"ccccccccdddddcccccc](((9(]////////////////////////////////](((((",
"cccccccddddddcccccc](((9(]////////////////////////////////](((((",
"cccccccdddddccccccc](((9(]////////////////////////////////](((((",
"ccccccccdddcccccccc](((9(]////////////////////////////////](((((",
"cccccccefffffcccccc](((9(]////////////////////////////////](((((",
"ccccccgheeeefcccccc](((9(]////////////////////////////////](((((",
"ciffccghfjkhfcccccc](((9(]////////////////////////////////](((((",
"ihlmfcghfnohfcccccc](((9(]////////////////////////////////](((((",
"ihllfcghfpqhfcccccc](((9(]////////////////////////////////[(((((",
"iihhicghfnohfcccccc](((9(]////////////////////////////////[(((((",
"ciiiccghfjkhfcccccc](((9(]////////////////////////////////[(((((",
"ccccccghersefcccccc](((9([////////////////////////////////}(((((",
"ccccccghhrshecccccc](((9([[[]]]]]][[[]]]]][]]]][[[[[[]][}}}(((((",
"ccccccgggtugccccccc](((9((((((((((((((((((((((((((((((((((((((((",
"ccccccccitucccccccc](((999___::______((((((((((((((_2__2____((((",
"ccccccccivwcccccccc](((9((((((((((((((((((((((((((((((((((((((((",
"ccccccccixycccccccc](((9((((((((((((((((((((((((((((((((((((((((",
"ccccccccivwcccccccc](((9((((((((((((((((((((((((((((((((((((((((",
"ccccccccixycccccccc](((9(44z6z6AzzAzA4zAAAAAAA68(((((56367788888",
"ccccccccivwcccccccc](((9(z0cccccccbbbB000CCC0Bc8(((((Aabcccccccc",
"cccccccciDEcccccccc](((9(4bccccccccccccccccccccF(((((6cccccccccc",
"cccccccciiccccccccc](((9(zcccccccccccccccccccccF(((_(6cccccccccc",
"ccccccccccccccccccc](((9(6cccccccccccccccccccccF(((:(3cccccccccc",
"ccccccccccccccccccc](((9(7cccccccccccccccccccccF(((_G7cccccccccc",
"ccccccccccccccccccc](((9(8cccccccccccccccccccccF(((_G8cccccccccc",
"ccccccccccccccccccc](((9(FcccccccccccccccccccccF(((_(]cccccccccc",
"ccccccccccccccccccc](((9(FcccccccccccccccccccccF(((_(]cccccccccc",
"ccccccccccccccccccc](((9(FcccccccccccccccccccccF(((((]cccccccccc",
"ccccccccccccccccccc](((9(FcccccccccccccccccccccF(((((]cccccccccc",
"HHHHHHHHHHHHHHHHHHHBIIIIIBHHHHHHHHHHHHHHHHHHHHHBIIIIIBHHHHHHHHHH",
"HHHHHHHHHHHHHHHHHHHBIIIIIBHHHHHHHHHHHHHHHHHHHHHBIIIIIBHHHHHHHHHH",
"JJJJJJJJJJJJJJJJJJJKLLLLLKJJJJJJJJJJJJJJJJJJJJJKLLLLLKJJJJJJJJJJ"};
