/* XPM */
static char * lever_on_south_xpm[] = {
"64 64 150 2",
"  	c #1D1E67",
". 	c #1D1F68",
"+ 	c #1D206B",
"@ 	c #1C1C92",
"# 	c #1A26A1",
"$ 	c #1D1C7E",
"% 	c #1C1A67",
"& 	c #1C1A68",
"* 	c #1D1C6A",
"= 	c #1C1A69",
"- 	c #1D1D6D",
"; 	c #1D1D6C",
"> 	c #1F1D6C",
", 	c #201B6A",
"' 	c #211F70",
") 	c #221D6D",
"! 	c #1D1C6B",
"~ 	c #1E1978",
"{ 	c #1D1E6E",
"] 	c #1D1D75",
"^ 	c #1C1F7C",
"/ 	c #271F7F",
"( 	c #291C75",
"_ 	c #1E0F81",
": 	c #1D1689",
"< 	c #172EAF",
"[ 	c #2A2DB1",
"} 	c #3C1591",
"| 	c #1C1B91",
"1 	c #1434BC",
"2 	c #1D1F85",
"3 	c #3533BF",
"4 	c #501A9F",
"5 	c #3548BD",
"6 	c #4857BF",
"7 	c #4932C2",
"8 	c #626EC1",
"9 	c #1A229C",
"0 	c #7029A7",
"a 	c #1927A4",
"b 	c #1D1A72",
"c 	c #E503FE",
"d 	c #182AAA",
"e 	c #361A96",
"f 	c #6571C1",
"g 	c #623AA2",
"h 	c #C3D8F6",
"i 	c #521E8B",
"j 	c #1E2368",
"k 	c #1A2065",
"l 	c #1A2063",
"m 	c #1E2369",
"n 	c #1E236B",
"o 	c #1E236C",
"p 	c #1E2273",
"q 	c #4E5CBF",
"r 	c #1D2168",
"s 	c #1E2269",
"t 	c #1F226A",
"u 	c #1F226B",
"v 	c #6054C5",
"w 	c #7044AD",
"x 	c #3333BF",
"y 	c #686DC3",
"z 	c #1F2467",
"A 	c #6459C5",
"B 	c #585858",
"C 	c #949494",
"D 	c #060624",
"E 	c #3D3D3D",
"F 	c #141749",
"G 	c #573111",
"H 	c #854713",
"I 	c #3DAB0E",
"J 	c #5CF31A",
"K 	c #502805",
"L 	c #713D0F",
"M 	c #371C08",
"N 	c #4C2B0B",
"O 	c #3521A1",
"P 	c #4B21A6",
"Q 	c #6B3C0E",
"R 	c #9C5619",
"S 	c #4F21A8",
"T 	c #4A25AD",
"U 	c #6620B1",
"V 	c #702EB0",
"W 	c #1A37A0",
"X 	c #6719A9",
"Y 	c #5224B0",
"Z 	c #81460F",
"` 	c #BB671D",
" .	c #6230C8",
"..	c #613EC9",
"+.	c #6149CA",
"@.	c #713DCE",
"#.	c #7146CF",
"$.	c #5F49CA",
"%.	c #5F3FC9",
"&.	c #7769C8",
"*.	c #7270C8",
"=.	c #5F62C8",
"-.	c #5F5CC6",
";.	c #756DC6",
">.	c #2E241C",
",.	c #44362B",
"'.	c #4A3A2E",
").	c #6E5641",
"!.	c #3342C1",
"~.	c #4441C3",
"{.	c #5140C5",
"].	c #5B3FC7",
"^.	c #4432C2",
"/.	c #3A1A71",
"(.	c #3A1A7A",
"_.	c #3A1A80",
":.	c #6E2E9D",
"<.	c #603D97",
"[.	c #6E2E9A",
"}.	c #6E2E97",
"|.	c #603D95",
"1.	c #3C1A8E",
"2.	c #331774",
"3.	c #472C92",
"4.	c #593C99",
"5.	c #6F2AA2",
"6.	c #6F2B9E",
"7.	c #6F2C9B",
"8.	c #683B9B",
"9.	c #4B1A94",
"0.	c #1C2167",
"a.	c #66584B",
"b.	c #83705B",
"c.	c #1E4B90",
"d.	c #1E3F8B",
"e.	c #3C1A87",
"f.	c #1330AC",
"g.	c #1F226D",
"h.	c #4A40A7",
"i.	c #2A25A3",
"j.	c #21226E",
"k.	c #20236E",
"l.	c #20226A",
"m.	c #1F2269",
"n.	c #1E236D",
"o.	c #1D1D67",
"p.	c #1E2268",
"q.	c #1E226A",
"r.	c #1E2168",
"s.	c #1E2068",
"      . + @ @ # # $ % % % % % % % % % & * = - ; > , & & & & & % % & & & & & & = & & & & & & & & & & & & % % % % % % % % % % % & ",
"      . + @ @ # # $ % % % % % % % % % & * = - ; ' ) ! ! ! ! ! = = = = = = = = = ! = = = = = = = = = = = & & & & & & & & & & & & ",
"      . + @ @ # # $ ~ ~ ~ ~ ~ - - - - { ] ] ] ^ / ( - - - - - - - - - - - - - - - - - - - - - - - - - - ! ! ! ! ! ! ! ! ! ! ! ! ",
"_ _ _ : # # # # # $ ~ ~ ~ ~ ~ ~ ~ ~ ~ $ < < < < [ } ~ ~ ~ ~ ~ ~ ~ ~ ~ ~ - - - - - - - ~ ~ ~ ~ ~ ~ ~ ~ ~ ~ ~ ~ ~ ~ ~ ~ ~ - - - - ",
"_ _ _ : # # # # # $ ~ ~ ~ ~ ~ ~ ~ ~ ~ $ < < < < [ } ~ ~ ~ ~ ~ ~ ~ ~ ~ ~ ~ ~ ~ ~ ~ ~ ~ ~ ~ ~ ~ ~ ~ ~ ~ ~ ~ ~ ~ ~ ~ ~ ~ ~ ~ ~ ~ ~ ",
"_ _ _ | 1 1 1 1 1 2 ~ ~ ~ ~ ~ ~ ~ ~ ~ 2 1 1 1 1 3 4 ~ ~ ~ ~ ~ ~ ~ ~ ~ ~ ~ ~ ~ ~ ~ ~ ~ ~ ~ ~ ~ ~ ~ ~ ~ ~ ~ ~ ~ ~ ~ ~ ~ ~ ~ ~ ~ ~ ",
"_ _ _ | 1 1 1 1 1 2 ~ ~ ~ ~ ~ ~ ~ ~ ~ 2 1 1 1 1 3 4 ~ ~ ~ ~ ~ ~ ~ ~ ~ ~ ~ ~ ~ ~ ~ ~ ~ ~ ~ ~ ~ ~ ~ ~ ~ ~ ~ ~ ~ ~ ~ ~ ~ ~ ~ ~ ~ ~ ",
"_ _ _ | 1 1 1 1 1 2 ~ ~ ~ ~ ~ ~ ~ ~ ~ 2 1 1 1 5 3 4 ~ ~ ~ ~ ~ ~ ~ ~ ~ ~ ~ ~ ~ ~ ~ ~ ~ ~ ~ ~ ~ ~ ~ ~ ~ ~ ~ ~ ~ ~ ~ ~ ~ ~ ~ ~ ~ ~ ",
"_ _ _ | 1 1 1 1 1 2 ~ ~ ~ ~ ~ ~ ~ ~ ~ 2 1 1 1 6 7 4 ~ ~ ~ ~ ~ ~ ~ ~ ~ ~ ~ ~ ~ ~ ~ ~ ~ ~ ~ ~ ~ ~ ~ ~ ~ ~ ~ ~ ~ ~ ~ ~ ~ ~ ~ ~ ~ ~ ",
"_ _ _ | 1 1 1 1 1 2 ~ ~ ~ ~ ~ ~ ~ ~ ~ 2 1 1 1 8 7 4 ~ ~ ~ ~ ~ ~ ~ ~ ~ ~ ~ ~ ~ ~ ~ ~ ~ ~ ~ ~ ~ ~ ~ ~ ~ ~ ~ ~ ~ ~ ~ ~ ~ ~ ~ ~ ~ ~ ",
"_ _ _ | 1 1 1 1 1 2 ~ ~ ~ ~ ~ ~ ~ ~ ~ 2 1 1 1 6 7 4 ~ ~ ~ ~ ~ ~ ~ ~ ~ ~ ~ ~ ~ ~ ~ ~ ~ ~ ~ ~ ~ ~ ~ ~ ~ ~ ~ ~ ~ ~ ~ ~ ~ ~ ~ ~ ~ ~ ",
"_ _ _ | 1 1 1 1 1 2 ~ ~ ~ ~ ~ ~ ~ ~ ~ 2 1 1 1 6 7 4 ~ ~ ~ ~ ~ ~ ~ ~ ~ ~ ~ ~ ~ ~ ~ ~ ~ ~ ~ ~ ~ ~ ~ ~ ~ ~ ~ ~ ~ ~ ~ ~ ~ ~ ~ ~ ~ ~ ",
"_ _ _ | 1 1 1 1 1 2 ~ ~ ~ ~ ~ ~ ~ ~ ~ 2 1 1 1 6 7 4 ~ ~ ~ ~ ~ ~ ~ ~ ~ ~ ~ ~ ~ ~ ~ ~ ~ ~ ~ ~ ~ ~ ~ ~ ~ ~ ~ ~ ~ ~ ~ ~ ~ ~ ~ ~ ~ ~ ",
"_ _ _ | 1 1 1 1 1 ^ ~ ~ ~ ~ ~ ~ ~ ~ ~ 9 1 1 1 6 7 4 ~ ~ ~ ~ ~ 0 0 0 0 ~ ~ ~ ~ ~ ~ 0 0 0 0 ~ ~ ~ ~ ~ ~ ~ ~ ~ ~ ~ ~ ~ ~ ~ ~ ~ ~ ~ ",
"_ _ _ | 1 1 1 1 1 ^ ~ ~ ~ ~ ~ ~ ~ ~ ~ a 1 1 1 1 7 4 ~ ~ ~ 0 0 0 0 0 0 0 ~ ~ ~ 0 0 0 0 0 0 0 ~ ~ ~ ~ ~ ~ ~ ~ ~ ~ ~ ~ ~ ~ ~ ~ ~ ~ ",
"_ _ _ | 1 1 1 1 1 ^ b ~ ~ ~ ~ ~ ~ ~ ~ a 1 1 1 1 7 4 ~ ~ ~ 0 c c c c c 0 ~ ~ ~ 0 c c c c c 0 ~ ~ ~ ~ ~ ~ ~ ~ ~ ~ ~ ~ ~ ~ ~ ~ ~ ~ ",
"| | | | 1 1 1 1 1 ^ ^ ^ ^ 2 2 2 9 a a d 1 1 1 1 7 4 ~ ~ ~ 0 c c c c c 0 ~ ~ ~ 0 c c c c c 0 ~ ~ ~ ~ ~ ~ ~ ~ ~ ~ ~ ~ 2 2 2 2 2 2 ",
"1 1 1 1 1 1 1 1 1 1 1 1 1 1 1 1 1 1 1 1 1 1 1 1 7 4 ~ ~ ~ 0 c c c c c 0 ~ ~ 0 0 c c c c c 0 0 ~ ~ ~ ~ ~ ~ ~ ~ ~ ~ ~ 2 1 1 1 1 1 ",
"1 1 1 1 1 6 6 8 8 6 6 6 6 6 6 6 6 1 1 1 1 1 1 1 7 4 ~ ~ ~ 0 c c c c c 0 0 ~ 0 0 c c c c c 0 0 ~ ~ ~ ~ ~ ~ ~ ~ ~ ~ ~ e 1 1 1 1 1 ",
"1 1 1 1 1 1 1 1 1 1 1 1 1 1 1 1 1 1 1 1 1 1 1 1 7 4 ~ ~ 0 0 c c c c c 0 0 ~ 0 0 c c c c c 0 0 ~ ~ ~ ~ ~ ~ ~ ~ ~ ~ ~ e 1 1 1 f 1 ",
"1 1 1 1 1 1 1 1 1 1 1 1 1 1 1 1 1 1 1 1 1 1 1 1 7 4 ~ ~ 0 g c c h c c g 0 ~ 0 0 c c h c c 0 0 ~ ~ ~ ~ ~ ~ ~ ~ ~ ~ ~ e 1 1 1 f 1 ",
"1 1 1 1 1 1 1 1 1 1 1 1 1 1 1 1 1 1 1 1 1 1 1 1 7 4 ~ ~ 0 g c c h c c g 0 i 0 g c c h c c 0 0 ~ ~ ~ ~ ~ ~ ~ ~ ~ ~ ~ e 1 1 1 f 1 ",
"j k k l m n n o o p p p p p p p p p p p 1 1 1 1 7 4 ~ ~ 0 g c c h c c g 0 i 0 g c c h c c 0 0 ~ ~ ~ ~ ~ ~ ~ ~ ~ ~ ~ e 1 1 1 q 1 ",
"r s t t t u t t t t t t t u u u u u u p 1 1 1 1 7 4 ~ ~ 0 g c c h c c g 0 i 0 g c c h c c g 0 ~ ~ ~ ~ ~ ~ ~ ~ ~ ~ ~ e 1 1 1 q 1 ",
"s u u u u u u u u u u u u u u u u u u p 1 1 1 1 7 4 ~ ~ 0 g c c h c c g 0 i 0 g c c h c c g 0 ~ ~ ~ ~ ~ ~ ~ ~ ~ ~ ~ e 1 1 1 q 1 ",
"u u u u u u u u u u u u u u u u u u u p 1 1 1 v 7 4 ~ ~ 0 w c c h c c g 0 i 0 g c c h c c g 0 ~ ~ ~ ~ ~ ~ ~ ~ ~ ~ ~ e x 1 1 q 1 ",
"u u u u u u u u u u u u u u u u u u u p 1 1 1 v 7 4 ~ ~ 0 w c c h c c g 0 i 0 g c c h c c g 0 ~ ~ ~ ~ ~ ~ ~ ~ ~ ~ ~ e 1 1 1 q 1 ",
"u u u u u u u u u u u u u u u u u u u p 1 1 1 y 7 4 ~ ~ 0 w c c h c c w 0 i 0 g c c h c c g 0 ~ ~ ~ ~ ~ ~ ~ ~ ~ ~ ~ e x 1 1 1 1 ",
"u u u u u u u u z z z z u u u u u u u p 1 1 1 y 7 4 ~ ~ 0 w c c h c c w 0 i 0 g c c h c c g 0 ~ ~ ~ ~ ~ ~ ~ ~ ~ ~ ~ e x 1 1 1 1 ",
"u u u u u u u u z z z z u u u u u u u p 1 1 1 y 7 4 ~ ~ 0 w c c h c c w 0 i 0 g c c h c c w 0 ~ ~ ~ ~ ~ ~ ~ ~ ~ ~ ~ e x 1 1 1 1 ",
"u u u u u u u z z z z u u u u u u u u p 1 1 1 v 7 4 ~ ~ 0 w c c h c c g 0 i 0 w c c h c c w 0 ~ ~ ~ ~ ~ ~ ~ ~ ~ ~ ~ e x 1 1 1 1 ",
"u u u u u u z z z z z z u u u u u u u p 1 1 1 v 7 4 ~ ~ 0 w c c h c c g 0 i 0 w c c h c c w 0 ~ ~ ~ ~ ~ ~ ~ ~ ~ ~ ~ e 1 1 1 1 1 ",
"u u u u u u u u z z z z z u u u u u u p 1 1 1 A 7 4 ~ ~ 0 g c c h c c g 0 i 0 g c c h c c g 0 ~ ~ ~ ~ ~ ~ ~ ~ ~ ~ ~ e 1 1 1 1 1 ",
"u u u u u u u z z z z z z u u u u u u p 1 1 1 A 7 4 ~ ~ 0 g c c h c c g 0 i 0 g c c h c c g 0 ~ ~ ~ ~ ~ ~ ~ ~ ~ ~ ~ e 1 1 1 1 1 ",
"u u u u u u u z z z z z u u u u u u u p 1 1 1 A 7 4 ~ ~ 0 g c c h c c g 0 i 0 0 c c h c c g 0 ~ ~ ~ ~ ~ ~ ~ ~ ~ ~ ~ e 1 1 1 1 1 ",
"u u u u u u u u z z z u u u u u u u u p 1 1 1 A 7 4 ~ ~ 0 g c c h c c 0 0 i 0 0 c c h c c g 0 ~ ~ ~ ~ ~ ~ ~ ~ ~ ~ ~ e 1 1 1 1 1 ",
"u u u u u u u B C C C C C u u u u u u p 1 1 1 A 7 4 ~ ~ 0 g c c h c c 0 0 i 0 0 c c h c c 0 0 ~ ~ ~ ~ ~ ~ ~ ~ ~ ~ ~ e 1 1 1 1 1 ",
"u u u u u u D E B B B B C u u u u u u p 1 1 1 A 7 4 ~ ~ 0 g c c h c c 0 0 i 0 0 c c h c c 0 0 ~ ~ ~ ~ ~ ~ ~ ~ ~ ~ ~ e 1 1 1 1 1 ",
"u F C C u u D E C G H E C u u u u u u p 1 1 1 A 7 4 ~ ~ 0 g c c h c c 0 0 i 0 0 c c h c c 0 0 ~ ~ ~ ~ ~ ~ ~ ~ ~ ~ ~ e 1 1 1 1 1 ",
"F E I J C u D E C K L E C u u u u u u p 1 1 1 A 7 4 ~ ~ 0 g c c h c c 0 0 i 0 0 c c h c c 0 0 ~ ~ ~ ~ ~ ~ ~ ~ ~ ~ ~ e 1 1 1 1 1 ",
"F E I I C u D E C M N E C u u u u u u p 1 1 1 A 7 4 ~ ~ 0 g c c h c c 0 0 i 0 0 c c h c c 0 0 ~ ~ ~ ~ ~ ~ ~ ~ ~ ~ ~ O 7 1 1 1 1 ",
"F F E E F u D E C K L E C u u u u u u p 1 1 1 A 7 4 ~ ~ 0 0 c c c c c 0 0 i 0 0 c c c c c 0 0 ~ ~ ~ ~ ~ ~ ~ ~ ~ ~ ~ P 7 1 1 1 1 ",
"u F F F u u D E C G H E C u u u u u u p 1 1 1 A 7 4 ~ ~ 0 0 c c c c c 0 0 _ 0 0 c c c c c 0 0 ~ ~ ~ ~ ~ ~ ~ ~ ~ ~ ~ P 1 1 1 1 1 ",
"u u u u u u D E B Q R B C u u u u u u p 1 1 1 A 7 S ~ ~ ~ 0 c c c c c 0 0 _ 0 0 c c c c c 0 0 ~ ~ ~ ~ ~ ~ ~ ~ ~ ~ ~ T 1 1 1 1 1 ",
"u u u u u u D E E Q R E B u u u u u u p 1 1 1 A 7 S U S 4 V c c c c c W W 4 4 V c c c c c V 4 S S S S S S X X S T T Y 1 1 1 1 1 ",
"u u u u u u D D D Z ` D u u u u u u u p 1 1 1 A 7 7  . . .7 ..+.+.+.+...7 7 7 7 @.@.#.#.$.%.7 7 7 7 7 7 1 1 1 1 1 1 1 1 1 1 1 1 ",
"u u u u u u u u F Z ` u u u u u u u u p 1 1 1 A A A v v v &.*.=.-.-.-.v v 1 1 1 1 %.%.@.7 7 7 1 1 1 1 v ;.v v ;.v v v v 1 1 1 1 ",
"u u u u u u u u F >.,.u u u u u u u u p 1 1 1 A 1 1 1 1 1 1 1 1 1 1 1 1 1 1 1 1 1 1 1 1 1 1 1 1 1 1 1 1 1 1 1 1 1 1 1 1 1 1 1 1 ",
"u u u u u u u u F '.).u u u u u u u u p 1 1 1 A 1 1 1 1 1 1 1 1 !.!.x 1 1 1 1 1 1 1 ~.~.1 1 1 1 1 1 1 1 1 1 1 1 1 1 1 1 1 1 1 1 ",
"u u u u u u u u F >.,.u u u u u u u u p 1 1 1 A 1 x x x x x ~.~.~.~.~.x x x x x {.].].{.{.^.x x 1 1 1 1 1 1 1 1 1 1 1 1 1 1 1 1 ",
"u u u u u u u u F '.).u u u u u u u u p 1 1 1 A x /./.(._.:.c c c c c <.[.}.:.|.c c c c c [._.1.1 1 1 1 1 l m j m n n o o o o o ",
"u u u u u u u u F >.,.u u u u u u u u p 1 1 1 A x (.2.u 3.3.c c h c c 4.5.6.7.8.c c h c c 6._ 9.x 1 1 1 1 0.s t u u u u u u u u ",
"u u u u u u u u F a.b.u u u u u u u u p 1 1 1 A x /.t u 3.3.c c h c c c.3.3.3.d.c c h c c 3.3.e 1 1 1 1 1 m u u u u u u u u u u ",
"u u u u u u u u F F u u u u u u u u u p 1 1 1 A x (.u u 3.3.c c h c c d.3.u 3.d.c c h c c 3.3.e x 1 1 6 1 m u u u u u u u u u u ",
"u u u u u u u u u u u u u u u u u u u p 1 1 1 A x _.u u u 3.c c c c c d.3.u 3.3.c c c c c 3.3.e x 1 1 8 1 j u u u u u u u u u u ",
"u u u u u u u u u u u u u u u u u u u p 1 1 1 A x e.u u u 3.c c c c c 3.3.u u 3.c c c c c 3.u e x 1 1 6 f.n u u u u u u u u u u ",
"u u u u u u u u u u u u u u u u u u u p 1 1 1 A x 1.u u u 3.3.3.3.3.3.3.u u u 3.3.3.3.3.3.3.u e x 1 1 6 f.o u u u u u u u u u u ",
"u u u u u u u u u u u u u u u u u u u p 1 1 1 A x e u u u u 3.3.3.3.u u u u u u 3.3.3.3.u u u e x 1 1 6 1 p u u u u u u u u u u ",
"u u u u u u u u u u u u u u u u u u u p 1 1 1 A x e u u u u u u u u u u u u u u u u u u u u u e x 1 1 6 1 p u u u u u u u u u u ",
"u u u u u u u u u u u u u u u u u u u g.# # # h.i.j.u u u u u u u u u u u u u u u u u u u u u g.i.# # # # g.u u u u u u u u u u ",
"u u u u u u u u u u u u u u u u u u u g.# # # h.k.l.m.m.m.m.m.m.m.m.m.m.m.m.m.m.m.u u u u u u g.i.# # # # g.u u u u u u u u u u ",
"m.m.m.m.m.m.m.m.m.m.m.m.m.m.m.m.m.m.m.t u u u n.k.l.m.m.m.m.m.m.m.m.m.m.m.m.m.m.m.m.m.m.m.m.m.t n.n.u u u t u u u m.m.m.m.m.m.m.",
"o.o.o.o.o.o.o.o.o.o.o.o.o.o.o.o.o.o.o.  p.p.u q.t m.r.r.r.r.r.r.r.r.r.r.r.r.r.r.r.r.r.r.r.r.r.m.q.q.s s.s.o.o.o.o.o.o.o.o.o.o.o.",
"o.o.o.o.o.o.o.o.o.o.o.o.o.o.o.o.o.o.o.  p.p.u q.q.m.r.r.r.r.r.r.r.r.r.r.r.r.r.r.r.r.r.r.r.r.r.m.q.q.s s.s.o.o.o.o.o.o.o.o.o.o.o."};
