/* XPM */
static char * lever_off_north_xpm[] = {
"64 64 151 2",
"  	c #17115E",
". 	c #17125E",
"+ 	c #171361",
"@ 	c #171568",
"# 	c #181263",
"$ 	c #16115C",
"% 	c #1F2467",
"& 	c #1B156B",
"* 	c #1A0E6A",
"= 	c #190C6D",
"- 	c #1D1C6A",
"; 	c #1E2274",
"> 	c #1A26A1",
", 	c #172EAF",
"' 	c #1733B0",
") 	c #1631B6",
"! 	c #1634B6",
"~ 	c #1533B9",
"{ 	c #1F236E",
"] 	c #1434BC",
"^ 	c #4857BF",
"/ 	c #1446BF",
"( 	c #4761C1",
"_ 	c #6075C3",
": 	c #466AC3",
"< 	c #1A229C",
"[ 	c #1E2E86",
"} 	c #1927A4",
"| 	c #1453C1",
"1 	c #08EDFC",
"2 	c #182AAA",
"3 	c #626EC1",
"4 	c #6378C3",
"5 	c #1E3F8B",
"6 	c #B3EEF5",
"7 	c #1A206B",
"8 	c #131B63",
"9 	c #121B5F",
"0 	c #1C3796",
"a 	c #4D65C1",
"b 	c #18176B",
"c 	c #1F2268",
"d 	c #1E4B90",
"e 	c #66584B",
"f 	c #83705B",
"g 	c #141749",
"h 	c #2E241C",
"i 	c #44362B",
"j 	c #4A3A2E",
"k 	c #6E5641",
"l 	c #81460F",
"m 	c #BB671D",
"n 	c #585858",
"o 	c #949494",
"p 	c #6B3C0E",
"q 	c #9C5619",
"r 	c #3D3D3D",
"s 	c #573111",
"t 	c #854713",
"u 	c #FF001D",
"v 	c #F37D8B",
"w 	c #502805",
"x 	c #713D0F",
"y 	c #371C08",
"z 	c #4C2B0B",
"A 	c #1A3BA0",
"B 	c #000000",
"C 	c #1E0F81",
"D 	c #193EA8",
"E 	c #1C3395",
"F 	c #1A37A0",
"G 	c #1C1B91",
"H 	c #1C459A",
"I 	c #1C489B",
"J 	c #1A4BA4",
"K 	c #194DAC",
"L 	c #1443BE",
"M 	c #144FC0",
"N 	c #1451C0",
"O 	c #4C6DC3",
"P 	c #5F7BC5",
"Q 	c #456EC5",
"R 	c #4668C3",
"S 	c #13376D",
"T 	c #161D64",
"U 	c #1B206A",
"V 	c #1B206E",
"W 	c #153375",
"X 	c #15427B",
"Y 	c #143370",
"Z 	c #13336B",
"` 	c #15457D",
" .	c #14507F",
"..	c #161B75",
"+.	c #1A378C",
"@.	c #151D61",
"#.	c #1C2073",
"$.	c #1D2077",
"%.	c #1A1B6A",
"&.	c #1F1E72",
"*.	c #1B4084",
"=.	c #1B2F7E",
"-.	c #193078",
";.	c #173172",
">.	c #174179",
",.	c #171D68",
"'.	c #1D1F6B",
").	c #1D1F6E",
"!.	c #1E207E",
"~.	c #143EBD",
"{.	c #1439BC",
"].	c #1330AC",
"^.	c #213CBC",
"/.	c #1B37BA",
"(.	c #1534BB",
"_.	c #1E1E79",
":.	c #1F2376",
"<.	c #1534B9",
"[.	c #1F39B7",
"}.	c #213AB7",
"|.	c #1534BC",
"1.	c #3646A4",
"2.	c #1E207F",
"3.	c #1D269C",
"4.	c #182AA9",
"5.	c #1F1E75",
"6.	c #162FB3",
"7.	c #1E1E7A",
"8.	c #1C1A6A",
"9.	c #1E2069",
"0.	c #16289F",
"a.	c #1D1D6A",
"b.	c #1E1D6E",
"c.	c #1E1E71",
"d.	c #1E1E6E",
"e.	c #1D1F71",
"f.	c #1D1D69",
"g.	c #1D1B6A",
"h.	c #1C196A",
"i.	c #1A1466",
"j.	c #1B1569",
"k.	c #1D1E6A",
"l.	c #1B1469",
"m.	c #1D1D6C",
"n.	c #1E1D6F",
"o.	c #1E1E72",
"p.	c #1A1465",
"q.	c #191363",
"r.	c #1B1567",
"s.	c #1D1E69",
"t.	c #1D1B69",
"      . + + @ @ @ # # # # # # # # # $ . + + + % % & * * * * * = = = = = = = = = = = = * * * * * * = = = = = = = = = * * * * * * ",
"      . @ @ % % % # # # # # # # # #   # @ @ @ % % & * * * * * * * * * * * * * * * * * * * * * * * * * * * * * * * * * * * * * * ",
"      . @ @ % % % # # # # # # # # # # - % % % % ; % % % % % % % % % % % % % % % % % % % % % % % % % % % % % % % % % % % % % % % ",
"% % % % ; ; ; ; ; % % % % % % % % % % % ; ; ; ; ; % % % % % % % % % % % % % % % % % % % % % % % % % % % % % % % % % % % % % % % ",
"% % % % > > > > , % % % % % % % % % % % > > > > ' % % % % % % % % % % % % % % % % % % % % % % % % % % % % % % % % % % % % % % % ",
"% % % % > > > , ) % % % % % % % % % % % > > > , ! % % % % % % % % % % % % % % % % % % % % % % % % % % % % % % % % % % % % % % % ",
"% % % % > , ) ) ) % % % % % % % % % % % > , ) ~ ! % % % % % % % % % % % % % % % % % % % % % % % % % % % % % % % % % % % % % % % ",
"% % % { ] ] ] ] ] { % % % % % % % % % { ] ] ] ^ / { % % % % % % % % % % % % % % % % % % % % % % % % % % % % % % % % % % % % % % ",
"% % % { ] ] ] ] ] { % % % % % % % % % { ] ] ] ( / { % % % % % % % % % % % % % % % % % % % % % % % % % % % % % % % % % % % % % % ",
"% % % { ] ] ] ] ] { % % % % % % % % % { ] ] ] _ / { % % % % % % % % % % % % % % % % % % % % % % % % % % % % % % % % % % % % % % ",
"% % % { ] ] ] ] ] { % % % % % % % % % { ] ] ] ( / { % % % % % % % % % % % % % % % % % % % % % % % % % % % % % % % % % % % % % % ",
"% % % { ] ] ] ] ] { % % % % % % % % % { ] ] ] : / { % % % % % % % % % % % % % % % % % % % % % % % % % % % % % % % % % % % % % % ",
"% % % { ] ] ] ] ] { % % % % % % % % % { ] ] ] : / { % % % % % % % % % % % % % % % % % % % % % % % % % % % % % % % % % % % % % % ",
"% % % { ] ] ] ] ] % % % % % % % % % % < ] ] ] ( / { % % % % % [ [ [ [ % % % % % % [ [ [ [ % % % % % % % % % % % % % % % % % % % ",
"% % % { ] ] ] ] ] % % % % % % % % % % } ] ] ] / | { % % % [ [ [ [ [ [ [ % % % [ [ [ [ [ [ [ % % % % % % % % % % % % % % % % % % ",
"% % % { ] ] ] ] ] % % % % % % % % % % } ] ] ] ] / { % % % [ 1 1 1 1 1 [ % % % [ 1 1 1 1 1 [ % % % % % % % % % % % % % % % % % % ",
"{ { { { ] ] ] ] ] % % % % { { { < } } 2 ] ] ] ] / { % % % [ 1 1 1 1 1 [ % % % [ 1 1 1 1 1 [ % % % % % % % % % % % % { { { { { { ",
"] ] ] ] ] ] ] ] ] ] ] ] ] ] ] ] ] ] ] ] ] ] ] ] / { % % % [ 1 1 1 1 1 [ % % [ [ 1 1 1 1 1 [ [ % % % % % % % % % % % { ] ] ] ] ] ",
"] ] ] ] ] ^ ^ 3 3 ^ ^ ^ ^ ^ ^ ^ ^ ] ] ] ] ] ] ] / { % % % [ 1 1 1 1 1 [ [ % [ [ 1 1 1 1 1 [ [ % % % % % % % % % % % { ] ] ] ] ] ",
"] ] ] ] ] ] ] ] ] ] ] ] ] ] ] ] ] ] ] ] ] ] ] ] / { % % [ [ 1 1 1 1 1 [ [ % [ [ 1 1 1 1 1 [ [ % % % % % % % % % % % { ] ] ] 4 ] ",
"] ] ] ] ] ] ] ] ] ] ] ] ] ] ] ] ] ] ] ] ] ] ] ] / { % % [ 5 1 1 6 1 1 5 [ % [ [ 1 1 6 1 1 [ [ % % % % % % % % % % % { ] ] ] 4 ] ",
"] ] ] ] ] ] ] ] ] ] ] ] ] ] ] ] ] ] ] ] ] ] ] ] / { % % [ 5 1 1 6 1 1 5 [ [ [ 5 1 1 6 1 1 [ [ % % % % % % % % % % % { / ] ] 4 ] ",
"7 8 8 9 % % % % % { { { { { { { { { { { ] ] ] ] / { % % [ 5 1 1 6 1 1 5 [ [ [ 5 1 1 6 1 1 [ [ % % % % % % % % % % % 0 / ] ] a ] ",
"b c % % % % % % % % % % % % % % % % % { ] ] ] ] / { % % [ 5 1 1 6 1 1 5 [ [ [ 5 1 1 6 1 1 5 [ % % % % % % % % % % % 0 / ] ] a ] ",
"c % % % % % % % % % % % % % % % % % % { ] ] ] ] / { % % [ 5 1 1 6 1 1 5 [ [ [ 5 1 1 6 1 1 5 [ % % % % % % % % % % % 0 / ] ] a ] ",
"% % % % % % % % % % % % % % % % % % % { ] ] ] ( / { % % [ d 1 1 6 1 1 5 [ [ [ 5 1 1 6 1 1 5 [ % % % % % % % % % % % 0 / ] ] a ] ",
"% % % % % % % % % % % % % % % % % % % { ] ] ] ( / { % % [ d 1 1 6 1 1 5 [ [ [ 5 1 1 6 1 1 5 [ % % % % % % % % % % % 0 / ] ] a ] ",
"% % % % % % % % % % % % % % % % % % % { ] ] ] _ / { % % [ d 1 1 6 1 1 d [ [ [ 5 1 1 6 1 1 5 [ % % % % % % % % % % % 0 / ] ] ] ] ",
"% % % % % % % % % e f % % % % % % % % { ] ] ] _ / { % % [ d 1 1 6 1 1 d [ [ [ 5 1 1 6 1 1 5 [ % % % % % % % % % % % 0 / ] ] ] ] ",
"% % % % % % % % g h i % % % % % % % % { ] ] ] _ / { % % [ d 1 1 6 1 1 d [ [ [ 5 1 1 6 1 1 d [ % % % % % % % % % % % 0 / ] ] ] ] ",
"% % % % % % % % g j k % % % % % % % % { ] ] ] ( / { % % [ d 1 1 6 1 1 5 [ [ [ d 1 1 6 1 1 d [ % % % % % % % % % % % 0 / ] ] ] ] ",
"% % % % % % % % g h i % % % % % % % % { ] ] ] ( / { % % [ d 1 1 6 1 1 5 [ [ [ d 1 1 6 1 1 d [ % % % % % % % % % % % 0 / ] ] ] ] ",
"% % % % % % % % g j k % % % % % % % % { ] ] ] a / { % % [ 5 1 1 6 1 1 5 [ [ [ 5 1 1 6 1 1 5 [ % % % % % % % % % % % 0 / ] ] ] ] ",
"% % % % % % % % g h i % % % % % % % % { ] ] ] a / { % % [ 5 1 1 6 1 1 5 [ [ [ 5 1 1 6 1 1 5 [ % % % % % % % % % % % 0 / ] ] ] ] ",
"% % % % % % % % g l m % % % % % % % % { ] ] ] a / { % % [ 5 1 1 6 1 1 5 [ [ [ [ 1 1 6 1 1 5 [ % % % % % % % % % % % 0 / ] ] ] ] ",
"% % % % % % % % g l m % % % % % % % % { ] ] ] a / { % % [ 5 1 1 6 1 1 [ [ [ [ [ 1 1 6 1 1 5 [ % % % % % % % % % % % 0 / ] ] ] ] ",
"% % % % % % % n o p q o o % % % % % % { ] ] ] a / { % % [ 5 1 1 6 1 1 [ [ [ [ [ 1 1 6 1 1 [ [ % % % % % % % % % % % 0 / ] ] ] ] ",
"% % % % % % g r n p q n o % % % % % % { ] ] ] a / { % % [ 5 1 1 6 1 1 [ [ [ [ [ 1 1 6 1 1 [ [ % % % % % % % % % % % 0 / ] ] ] ] ",
"% g o o % % g r o s t r o % % % % % % { ] ] ] a / { % % [ 5 1 1 6 1 1 [ [ [ [ [ 1 1 6 1 1 [ [ % % % % % % % % % % % 0 / ] ] ] ] ",
"g r u v o % g r o w x r o % % % % % % { ] ] ] a / { % % [ 5 1 1 6 1 1 [ [ [ [ [ 1 1 6 1 1 [ [ % % % % % % % % % % % 0 / ] ] ] ] ",
"g r u u o % g r o y z r o % % % % % % { ] ] ] a / { % % [ 5 1 1 6 1 1 [ [ [ [ [ 1 1 6 1 1 [ [ % % % % % % % % % % % A / ] ] ] ] ",
"g g r r g % g r o B B r o % % % % % % { ] ] ] a / { % % [ [ 1 1 1 1 1 [ [ [ [ [ 1 1 1 1 1 [ [ % % % % % % % % % % % A / ] ] ] ] ",
"% g g g % % g r o B B r o % % % % % % { ] ] ] a / { % % [ [ 1 1 1 1 1 [ [ C [ [ 1 1 1 1 1 [ [ % % % % % % % % % % % A / ] ] ] ] ",
"% % % % % % g r n o o n o % % % % % % { ] ] ] a / < % % % [ 1 1 1 1 1 [ [ C [ [ 1 1 1 1 1 [ [ % % % % % % % % % % % D / ] ] ] ] ",
"% % % % % % g r r r r r n % % % % % % { ] ] ] a ] < < < { E 1 1 1 1 1 F F G G E 1 1 1 1 1 H 0 A A A A A A I I J K K K ] ] ] ] ] ",
"% % % % % % g g g g g g % % % % % % % { ] ] ] a ] ] ] ] ] ] L M M M M L ] ] ] ] L L M M M N / / / / / / | | | / / / ] ] ] ] ] ] ",
"% % % % % % % % % % % % % % % % % % % { ] ] ] O a a ( ( ( _ P Q R R R ( ^ ] ] ] ] L L L ] ] ] ] ] ] ] ( 4 ( ( 4 ( ( ( ( ] ] ] ] ",
"% % % % % % % % % % % % % % % % % % % { ] ] ] a ] ] ] ] ] ] ] ] ] ] ] ] ] ] ] ] ] ] ] ] ] ] ] ] ] ] ] ] ] ] ] ] ] ] ] ] ] ] ] ] ",
"% % % % % % % % % % % % % % % % % % % { ] ] ] a ] ] ] ] ] ] ] ] L L ] ] ] ] ] ] ] ] L L ] ] ] ] ] ] ] ] ] ] ] ] ] ] ] ] ] ] ] ] ",
"% % % % % % % % % % % % % % % % % % % { ] ] ] a ] / / / / / N N N N N / / / / ] N N N N N / / / ] ] ] ] ] ] ] ] ] ] ] ] ] ] ] ] ",
"% % % % % % % % % % % % % % % % % % % { ] ] ] a / S T U V W 1 1 1 1 1 X Y Z `  .1 1 1 1 1 Y ..+.] ] ] ] ] @.V U V #.#.$.$.$.$.$.",
"% % % % % % % % % % % % % % % % % % % { ] ] ] a / U %.&.[ [ 1 1 6 1 1 *.=.-.;.>.1 1 6 1 1 -.C +./ ] ] ] ] ,.'.).&.&.&.&.&.&.&.&.",
"% % % % % % % % % % % % % % % % % % % { ] ] ] a / T ).&.[ [ 1 1 6 1 1 d [ [ [ 5 1 1 6 1 1 [ [ !./ ] ] ] ] V &.&.&.&.&.&.&.&.&.&.",
"% % % % % % % % % % % % % % % % % % % { ] ] ] a ~.U &.&.[ [ 1 1 6 1 1 5 [ &.[ 5 1 1 6 1 1 [ [ !./ ] ] ( ] V &.&.&.&.&.&.&.&.&.&.",
"% % % % % % % % % % % % % % % % % % % { ] ] ] a {.V &.&.&.[ 1 1 1 1 1 5 [ &.[ [ 1 1 1 1 1 [ [ !./ ] ] _ ] U &.&.&.&.&.&.&.&.&.&.",
"% % % % % % % % % % % % % % % % % % % { ] ] ] a {.#.&.&.&.[ 1 1 1 1 1 [ [ &.&.[ 1 1 1 1 1 [ &.!./ ] ] ( ].#.&.&.&.&.&.&.&.&.&.&.",
"% % % % % % % % % % % % % % % % % % % % ] ] ] ^.] $.&.&.&.[ [ [ [ [ [ [ &.&.&.[ [ [ [ [ [ [ &.!./ ] ] ( ].$.&.&.&.&.&.&.&.&.&.&.",
"% % % % % % % % % % % % % % % % % % % % % , ) /.(._.&.&.&.&.:.:.[ [ &.&.&.&.&.&.:.:.:.:.&.&.&._.<.~ ~ [., _.&.&.&.&.&.&.&.&.&.&.",
"% % % % % % % % % % % % % % % % % % % % % > > }.|._.&.&.&.&.&.&.&.&.&.&.&.&.&.&.&.&.&.&.&.&.&._.~ , , 1.> _.&.&.&.&.&.&.&.&.&.&.",
"% % % % % % % % % % % % % % % % % % % % % ; > }., _.&.&.&.&.&.&.&.&.&.&.&.&.&.&.&.&.&.&.&.&.&._.~ , > 2.> _.&.&.&.&.&.&.&.&.&.&.",
"% % % % % % % % % % % % % % % % % % % % % % % 3.4.5.&.&.&.&.&.&.&.&.&.&.&.&.&.&.&.&.&.&.&.&.&.5.6.2.7.7.2.5.&.&.&.&.&.&.&.&.&.&.",
"8.8.8.8.8.8.8.8.8.8.8.8.8.8.8.8.8.8.8.9.% % % % 0.a.b.b.b.b.c.c.b.b.b.b.b.b.b.b.b.c.b.b.b.b.b.d._.e.e.).).a.f.f.f.f.f.f.f.f.f.f.",
"# # # #   # # # # # # # # # # # # # % g.g.g.h.h.% i.j.j.j.f.k.l.l.l.l.l.l.f.f.f.f.f.b.m.m.m.m.n.o.).).).).p.p.p.p.p.p.p.p.p.q.p.",
"# # # #   # # # # # # # # # # i.r.r.r.j.j.j.j.j.j.r.r.r.r.r.r.r.r.r.r.r.r.r.r.r.r.r.r.r.r.r.i.i.s.t.t.t.t.i.i.i.i.i.i.i.i.p.q.p."};
