/* XPM */
static char * lever_on_north_xpm[] = {
"64 64 150 2",
"  	c #17115E",
". 	c #17125E",
"+ 	c #171361",
"@ 	c #171568",
"# 	c #181263",
"$ 	c #16115C",
"% 	c #1F2467",
"& 	c #1B156B",
"* 	c #1A0E6A",
"= 	c #190C6D",
"- 	c #1D1C6A",
"; 	c #1E2274",
"> 	c #1A26A1",
", 	c #172EAF",
"' 	c #1733B0",
") 	c #1631B6",
"! 	c #1634B6",
"~ 	c #1533B9",
"{ 	c #1F236E",
"] 	c #1434BC",
"^ 	c #4857BF",
"/ 	c #1446BF",
"( 	c #4761C1",
"_ 	c #6075C3",
": 	c #466AC3",
"< 	c #1A229C",
"[ 	c #1E2E86",
"} 	c #1927A4",
"| 	c #1453C1",
"1 	c #08EDFC",
"2 	c #182AAA",
"3 	c #626EC1",
"4 	c #6378C3",
"5 	c #1E3F8B",
"6 	c #B3EEF5",
"7 	c #1A206B",
"8 	c #131B63",
"9 	c #121B5F",
"0 	c #1C3796",
"a 	c #4D65C1",
"b 	c #18176B",
"c 	c #1F2268",
"d 	c #1E4B90",
"e 	c #585858",
"f 	c #949494",
"g 	c #141749",
"h 	c #3D3D3D",
"i 	c #573111",
"j 	c #854713",
"k 	c #3DAB0E",
"l 	c #5CF31A",
"m 	c #502805",
"n 	c #713D0F",
"o 	c #371C08",
"p 	c #4C2B0B",
"q 	c #1A3BA0",
"r 	c #1E0F81",
"s 	c #6B3C0E",
"t 	c #9C5619",
"u 	c #193EA8",
"v 	c #1C3395",
"w 	c #1A37A0",
"x 	c #1C1B91",
"y 	c #1C459A",
"z 	c #1C489B",
"A 	c #1A4BA4",
"B 	c #194DAC",
"C 	c #81460F",
"D 	c #BB671D",
"E 	c #1443BE",
"F 	c #144FC0",
"G 	c #1451C0",
"H 	c #4C6DC3",
"I 	c #5F7BC5",
"J 	c #456EC5",
"K 	c #4668C3",
"L 	c #2E241C",
"M 	c #44362B",
"N 	c #4A3A2E",
"O 	c #6E5641",
"P 	c #13376D",
"Q 	c #161D64",
"R 	c #1B206A",
"S 	c #1B206E",
"T 	c #153375",
"U 	c #15427B",
"V 	c #143370",
"W 	c #13336B",
"X 	c #15457D",
"Y 	c #14507F",
"Z 	c #161B75",
"` 	c #1A378C",
" .	c #151D61",
"..	c #1C2073",
"+.	c #1D2077",
"@.	c #1A1B6A",
"#.	c #1F1E72",
"$.	c #1B4084",
"%.	c #1B2F7E",
"&.	c #193078",
"*.	c #173172",
"=.	c #174179",
"-.	c #171D68",
";.	c #1D1F6B",
">.	c #1D1F6E",
",.	c #66584B",
"'.	c #83705B",
").	c #1E207E",
"!.	c #143EBD",
"~.	c #1439BC",
"{.	c #1330AC",
"].	c #213CBC",
"^.	c #1B37BA",
"/.	c #1534BB",
"(.	c #1E1E79",
"_.	c #1F2376",
":.	c #1534B9",
"<.	c #1F39B7",
"[.	c #213AB7",
"}.	c #1534BC",
"|.	c #3646A4",
"1.	c #1E207F",
"2.	c #1D269C",
"3.	c #182AA9",
"4.	c #1F1E75",
"5.	c #162FB3",
"6.	c #1E1E7A",
"7.	c #1C1A6A",
"8.	c #1E2069",
"9.	c #16289F",
"0.	c #1D1D6A",
"a.	c #1E1D6E",
"b.	c #1E1E71",
"c.	c #1E1E6E",
"d.	c #1D1F71",
"e.	c #1D1D69",
"f.	c #1D1B6A",
"g.	c #1C196A",
"h.	c #1A1466",
"i.	c #1B1569",
"j.	c #1D1E6A",
"k.	c #1B1469",
"l.	c #1D1D6C",
"m.	c #1E1D6F",
"n.	c #1E1E72",
"o.	c #1A1465",
"p.	c #191363",
"q.	c #1B1567",
"r.	c #1D1E69",
"s.	c #1D1B69",
"      . + + @ @ @ # # # # # # # # # $ . + + + % % & * * * * * = = = = = = = = = = = = * * * * * * = = = = = = = = = * * * * * * ",
"      . @ @ % % % # # # # # # # # #   # @ @ @ % % & * * * * * * * * * * * * * * * * * * * * * * * * * * * * * * * * * * * * * * ",
"      . @ @ % % % # # # # # # # # # # - % % % % ; % % % % % % % % % % % % % % % % % % % % % % % % % % % % % % % % % % % % % % % ",
"% % % % ; ; ; ; ; % % % % % % % % % % % ; ; ; ; ; % % % % % % % % % % % % % % % % % % % % % % % % % % % % % % % % % % % % % % % ",
"% % % % > > > > , % % % % % % % % % % % > > > > ' % % % % % % % % % % % % % % % % % % % % % % % % % % % % % % % % % % % % % % % ",
"% % % % > > > , ) % % % % % % % % % % % > > > , ! % % % % % % % % % % % % % % % % % % % % % % % % % % % % % % % % % % % % % % % ",
"% % % % > , ) ) ) % % % % % % % % % % % > , ) ~ ! % % % % % % % % % % % % % % % % % % % % % % % % % % % % % % % % % % % % % % % ",
"% % % { ] ] ] ] ] { % % % % % % % % % { ] ] ] ^ / { % % % % % % % % % % % % % % % % % % % % % % % % % % % % % % % % % % % % % % ",
"% % % { ] ] ] ] ] { % % % % % % % % % { ] ] ] ( / { % % % % % % % % % % % % % % % % % % % % % % % % % % % % % % % % % % % % % % ",
"% % % { ] ] ] ] ] { % % % % % % % % % { ] ] ] _ / { % % % % % % % % % % % % % % % % % % % % % % % % % % % % % % % % % % % % % % ",
"% % % { ] ] ] ] ] { % % % % % % % % % { ] ] ] ( / { % % % % % % % % % % % % % % % % % % % % % % % % % % % % % % % % % % % % % % ",
"% % % { ] ] ] ] ] { % % % % % % % % % { ] ] ] : / { % % % % % % % % % % % % % % % % % % % % % % % % % % % % % % % % % % % % % % ",
"% % % { ] ] ] ] ] { % % % % % % % % % { ] ] ] : / { % % % % % % % % % % % % % % % % % % % % % % % % % % % % % % % % % % % % % % ",
"% % % { ] ] ] ] ] % % % % % % % % % % < ] ] ] ( / { % % % % % [ [ [ [ % % % % % % [ [ [ [ % % % % % % % % % % % % % % % % % % % ",
"% % % { ] ] ] ] ] % % % % % % % % % % } ] ] ] / | { % % % [ [ [ [ [ [ [ % % % [ [ [ [ [ [ [ % % % % % % % % % % % % % % % % % % ",
"% % % { ] ] ] ] ] % % % % % % % % % % } ] ] ] ] / { % % % [ 1 1 1 1 1 [ % % % [ 1 1 1 1 1 [ % % % % % % % % % % % % % % % % % % ",
"{ { { { ] ] ] ] ] % % % % { { { < } } 2 ] ] ] ] / { % % % [ 1 1 1 1 1 [ % % % [ 1 1 1 1 1 [ % % % % % % % % % % % % { { { { { { ",
"] ] ] ] ] ] ] ] ] ] ] ] ] ] ] ] ] ] ] ] ] ] ] ] / { % % % [ 1 1 1 1 1 [ % % [ [ 1 1 1 1 1 [ [ % % % % % % % % % % % { ] ] ] ] ] ",
"] ] ] ] ] ^ ^ 3 3 ^ ^ ^ ^ ^ ^ ^ ^ ] ] ] ] ] ] ] / { % % % [ 1 1 1 1 1 [ [ % [ [ 1 1 1 1 1 [ [ % % % % % % % % % % % { ] ] ] ] ] ",
"] ] ] ] ] ] ] ] ] ] ] ] ] ] ] ] ] ] ] ] ] ] ] ] / { % % [ [ 1 1 1 1 1 [ [ % [ [ 1 1 1 1 1 [ [ % % % % % % % % % % % { ] ] ] 4 ] ",
"] ] ] ] ] ] ] ] ] ] ] ] ] ] ] ] ] ] ] ] ] ] ] ] / { % % [ 5 1 1 6 1 1 5 [ % [ [ 1 1 6 1 1 [ [ % % % % % % % % % % % { ] ] ] 4 ] ",
"] ] ] ] ] ] ] ] ] ] ] ] ] ] ] ] ] ] ] ] ] ] ] ] / { % % [ 5 1 1 6 1 1 5 [ [ [ 5 1 1 6 1 1 [ [ % % % % % % % % % % % { / ] ] 4 ] ",
"7 8 8 9 % % % % % { { { { { { { { { { { ] ] ] ] / { % % [ 5 1 1 6 1 1 5 [ [ [ 5 1 1 6 1 1 [ [ % % % % % % % % % % % 0 / ] ] a ] ",
"b c % % % % % % % % % % % % % % % % % { ] ] ] ] / { % % [ 5 1 1 6 1 1 5 [ [ [ 5 1 1 6 1 1 5 [ % % % % % % % % % % % 0 / ] ] a ] ",
"c % % % % % % % % % % % % % % % % % % { ] ] ] ] / { % % [ 5 1 1 6 1 1 5 [ [ [ 5 1 1 6 1 1 5 [ % % % % % % % % % % % 0 / ] ] a ] ",
"% % % % % % % % % % % % % % % % % % % { ] ] ] ( / { % % [ d 1 1 6 1 1 5 [ [ [ 5 1 1 6 1 1 5 [ % % % % % % % % % % % 0 / ] ] a ] ",
"% % % % % % % % % % % % % % % % % % % { ] ] ] ( / { % % [ d 1 1 6 1 1 5 [ [ [ 5 1 1 6 1 1 5 [ % % % % % % % % % % % 0 / ] ] a ] ",
"% % % % % % % % % % % % % % % % % % % { ] ] ] _ / { % % [ d 1 1 6 1 1 d [ [ [ 5 1 1 6 1 1 5 [ % % % % % % % % % % % 0 / ] ] ] ] ",
"% % % % % % % % % % % % % % % % % % % { ] ] ] _ / { % % [ d 1 1 6 1 1 d [ [ [ 5 1 1 6 1 1 5 [ % % % % % % % % % % % 0 / ] ] ] ] ",
"% % % % % % % % % % % % % % % % % % % { ] ] ] _ / { % % [ d 1 1 6 1 1 d [ [ [ 5 1 1 6 1 1 d [ % % % % % % % % % % % 0 / ] ] ] ] ",
"% % % % % % % % % % % % % % % % % % % { ] ] ] ( / { % % [ d 1 1 6 1 1 5 [ [ [ d 1 1 6 1 1 d [ % % % % % % % % % % % 0 / ] ] ] ] ",
"% % % % % % % % % % % % % % % % % % % { ] ] ] ( / { % % [ d 1 1 6 1 1 5 [ [ [ d 1 1 6 1 1 d [ % % % % % % % % % % % 0 / ] ] ] ] ",
"% % % % % % % % % % % % % % % % % % % { ] ] ] a / { % % [ 5 1 1 6 1 1 5 [ [ [ 5 1 1 6 1 1 5 [ % % % % % % % % % % % 0 / ] ] ] ] ",
"% % % % % % % % % % % % % % % % % % % { ] ] ] a / { % % [ 5 1 1 6 1 1 5 [ [ [ 5 1 1 6 1 1 5 [ % % % % % % % % % % % 0 / ] ] ] ] ",
"% % % % % % % % % % % % % % % % % % % { ] ] ] a / { % % [ 5 1 1 6 1 1 5 [ [ [ [ 1 1 6 1 1 5 [ % % % % % % % % % % % 0 / ] ] ] ] ",
"% % % % % % % % % % % % % % % % % % % { ] ] ] a / { % % [ 5 1 1 6 1 1 [ [ [ [ [ 1 1 6 1 1 5 [ % % % % % % % % % % % 0 / ] ] ] ] ",
"% % % % % % % e f f f f f % % % % % % { ] ] ] a / { % % [ 5 1 1 6 1 1 [ [ [ [ [ 1 1 6 1 1 [ [ % % % % % % % % % % % 0 / ] ] ] ] ",
"% % % % % % g h e e e e f % % % % % % { ] ] ] a / { % % [ 5 1 1 6 1 1 [ [ [ [ [ 1 1 6 1 1 [ [ % % % % % % % % % % % 0 / ] ] ] ] ",
"% g f f % % g h f i j h f % % % % % % { ] ] ] a / { % % [ 5 1 1 6 1 1 [ [ [ [ [ 1 1 6 1 1 [ [ % % % % % % % % % % % 0 / ] ] ] ] ",
"g h k l f % g h f m n h f % % % % % % { ] ] ] a / { % % [ 5 1 1 6 1 1 [ [ [ [ [ 1 1 6 1 1 [ [ % % % % % % % % % % % 0 / ] ] ] ] ",
"g h k k f % g h f o p h f % % % % % % { ] ] ] a / { % % [ 5 1 1 6 1 1 [ [ [ [ [ 1 1 6 1 1 [ [ % % % % % % % % % % % q / ] ] ] ] ",
"g g h h g % g h f m n h f % % % % % % { ] ] ] a / { % % [ [ 1 1 1 1 1 [ [ [ [ [ 1 1 1 1 1 [ [ % % % % % % % % % % % q / ] ] ] ] ",
"% g g g % % g h f i j h f % % % % % % { ] ] ] a / { % % [ [ 1 1 1 1 1 [ [ r [ [ 1 1 1 1 1 [ [ % % % % % % % % % % % q / ] ] ] ] ",
"% % % % % % g h e s t e f % % % % % % { ] ] ] a / < % % % [ 1 1 1 1 1 [ [ r [ [ 1 1 1 1 1 [ [ % % % % % % % % % % % u / ] ] ] ] ",
"% % % % % % g h h s t h e % % % % % % { ] ] ] a ] < < < { v 1 1 1 1 1 w w x x v 1 1 1 1 1 y 0 q q q q q q z z A B B B ] ] ] ] ] ",
"% % % % % % g g g C D g % % % % % % % { ] ] ] a ] ] ] ] ] ] E F F F F E ] ] ] ] E E F F F G / / / / / / | | | / / / ] ] ] ] ] ] ",
"% % % % % % % % g C D % % % % % % % % { ] ] ] H a a ( ( ( _ I J K K K ( ^ ] ] ] ] E E E ] ] ] ] ] ] ] ( 4 ( ( 4 ( ( ( ( ] ] ] ] ",
"% % % % % % % % g L M % % % % % % % % { ] ] ] a ] ] ] ] ] ] ] ] ] ] ] ] ] ] ] ] ] ] ] ] ] ] ] ] ] ] ] ] ] ] ] ] ] ] ] ] ] ] ] ] ",
"% % % % % % % % g N O % % % % % % % % { ] ] ] a ] ] ] ] ] ] ] ] E E ] ] ] ] ] ] ] ] E E ] ] ] ] ] ] ] ] ] ] ] ] ] ] ] ] ] ] ] ] ",
"% % % % % % % % g L M % % % % % % % % { ] ] ] a ] / / / / / G G G G G / / / / ] G G G G G / / / ] ] ] ] ] ] ] ] ] ] ] ] ] ] ] ] ",
"% % % % % % % % g N O % % % % % % % % { ] ] ] a / P Q R S T 1 1 1 1 1 U V W X Y 1 1 1 1 1 V Z ` ] ] ] ] ]  .S R S ....+.+.+.+.+.",
"% % % % % % % % g L M % % % % % % % % { ] ] ] a / R @.#.[ [ 1 1 6 1 1 $.%.&.*.=.1 1 6 1 1 &.r ` / ] ] ] ] -.;.>.#.#.#.#.#.#.#.#.",
"% % % % % % % % g ,.'.% % % % % % % % { ] ] ] a / Q >.#.[ [ 1 1 6 1 1 d [ [ [ 5 1 1 6 1 1 [ [ )./ ] ] ] ] S #.#.#.#.#.#.#.#.#.#.",
"% % % % % % % % g g % % % % % % % % % { ] ] ] a !.R #.#.[ [ 1 1 6 1 1 5 [ #.[ 5 1 1 6 1 1 [ [ )./ ] ] ( ] S #.#.#.#.#.#.#.#.#.#.",
"% % % % % % % % % % % % % % % % % % % { ] ] ] a ~.S #.#.#.[ 1 1 1 1 1 5 [ #.[ [ 1 1 1 1 1 [ [ )./ ] ] _ ] R #.#.#.#.#.#.#.#.#.#.",
"% % % % % % % % % % % % % % % % % % % { ] ] ] a ~...#.#.#.[ 1 1 1 1 1 [ [ #.#.[ 1 1 1 1 1 [ #.)./ ] ] ( {...#.#.#.#.#.#.#.#.#.#.",
"% % % % % % % % % % % % % % % % % % % % ] ] ] ].] +.#.#.#.[ [ [ [ [ [ [ #.#.#.[ [ [ [ [ [ [ #.)./ ] ] ( {.+.#.#.#.#.#.#.#.#.#.#.",
"% % % % % % % % % % % % % % % % % % % % % , ) ^./.(.#.#.#.#._._.[ [ #.#.#.#.#.#._._._._.#.#.#.(.:.~ ~ <., (.#.#.#.#.#.#.#.#.#.#.",
"% % % % % % % % % % % % % % % % % % % % % > > [.}.(.#.#.#.#.#.#.#.#.#.#.#.#.#.#.#.#.#.#.#.#.#.(.~ , , |.> (.#.#.#.#.#.#.#.#.#.#.",
"% % % % % % % % % % % % % % % % % % % % % ; > [., (.#.#.#.#.#.#.#.#.#.#.#.#.#.#.#.#.#.#.#.#.#.(.~ , > 1.> (.#.#.#.#.#.#.#.#.#.#.",
"% % % % % % % % % % % % % % % % % % % % % % % 2.3.4.#.#.#.#.#.#.#.#.#.#.#.#.#.#.#.#.#.#.#.#.#.4.5.1.6.6.1.4.#.#.#.#.#.#.#.#.#.#.",
"7.7.7.7.7.7.7.7.7.7.7.7.7.7.7.7.7.7.7.8.% % % % 9.0.a.a.a.a.b.b.a.a.a.a.a.a.a.a.a.b.a.a.a.a.a.c.(.d.d.>.>.0.e.e.e.e.e.e.e.e.e.e.",
"# # # #   # # # # # # # # # # # # # % f.f.f.g.g.% h.i.i.i.e.j.k.k.k.k.k.k.e.e.e.e.e.a.l.l.l.l.m.n.>.>.>.>.o.o.o.o.o.o.o.o.o.p.o.",
"# # # #   # # # # # # # # # # h.q.q.q.i.i.i.i.i.i.q.q.q.q.q.q.q.q.q.q.q.q.q.q.q.q.q.q.q.q.q.h.h.r.s.s.s.s.h.h.h.h.h.h.h.h.o.p.o."};
