/* XPM */
static char * texture_south_xpm[] = {
"64 64 80 1",
" 	c #1E0F81",
".	c #1C1B91",
"+	c #1434BC",
"@	c #4932C2",
"#	c #501A9F",
"$	c #4857BF",
"%	c #626EC1",
"&	c #1A1B86",
"*	c #1A229C",
"=	c #7029A7",
"-	c #1927A4",
";	c #1B1278",
">	c #E503FE",
",	c #182AAA",
"'	c #361A96",
")	c #6571C1",
"!	c #623AA2",
"~	c #C3D8F6",
"{	c #151B6E",
"]	c #131B63",
"^	c #121B5F",
"/	c #161B75",
"(	c #181B7D",
"_	c #4E5CBF",
":	c #17166B",
"<	c #191471",
"[	c #6054C5",
"}	c #7044AD",
"|	c #3333BF",
"1	c #686DC3",
"2	c #6459C5",
"3	c #16176C",
"4	c #3521A1",
"5	c #4B21A6",
"6	c #4F21A8",
"7	c #4A25AD",
"8	c #6620B1",
"9	c #702EB0",
"0	c #1A37A0",
"a	c #6719A9",
"b	c #5224B0",
"c	c #6230C8",
"d	c #613EC9",
"e	c #6149CA",
"f	c #713DCE",
"g	c #7146CF",
"h	c #5F49CA",
"i	c #5F3FC9",
"j	c #7769C8",
"k	c #7270C8",
"l	c #5F62C8",
"m	c #5F5CC6",
"n	c #756DC6",
"o	c #3342C1",
"p	c #4441C3",
"q	c #5140C5",
"r	c #5B3FC7",
"s	c #4432C2",
"t	c #3A1A71",
"u	c #3A1A7A",
"v	c #3A1A80",
"w	c #6E2E9D",
"x	c #603D97",
"y	c #6E2E9A",
"z	c #6E2E97",
"A	c #603D95",
"B	c #3C1A8E",
"C	c #341674",
"D	c #472C92",
"E	c #593C99",
"F	c #6F2AA2",
"G	c #6F2B9E",
"H	c #6F2C9B",
"I	c #683B9B",
"J	c #4B1A94",
"K	c #141B68",
"L	c #1E4B90",
"M	c #1E3F8B",
"N	c #3C1A87",
"O	c #1330AC",
"   .+++++.         .++++@#                                      ",
"   .+++++.         .++++@#                                      ",
"   .+++++.         .++++@#                                      ",
"   .+++++.         .++++@#                                      ",
"   .+++++.         .++++@#                                      ",
"   .+++++.         .++++@#                                      ",
"   .+++++.         .++++@#                                      ",
"   .+++++.         .+++$@#                                      ",
"   .+++++.         .+++$@#                                      ",
"   .+++++.         .+++%@#                                      ",
"   .+++++.         .+++$@#                                      ",
"   .+++++.         .+++$@#                                      ",
"   .+++++.         .+++$@#                                      ",
"   .+++++&         *+++$@#     ====      ====                   ",
"   .+++++&         -++++@#   =======   =======                  ",
"   .+++++&;        -++++@#   =>>>>>=   =>>>>>=                  ",
"....+++++&&&&...*--,++++@#   =>>>>>=   =>>>>>=            ......",
"++++++++++++++++++++++++@#   =>>>>>=  ==>>>>>==           .+++++",
"+++++$$%%$$$$$$$$+++++++@#   =>>>>>== ==>>>>>==           '+++++",
"++++++++++++++++++++++++@#  ==>>>>>== ==>>>>>==           '+++)+",
"++++++++++++++++++++++++@#  =!>>~>>!= ==>>~>>==           '+++)+",
"++++++++++++++++++++++++@#  =!>>~>>!===!>>~>>==           '+++)+",
"{]]^/((&&...........++++@#  =!>>~>>!===!>>~>>==           '+++_+",
":<;;; ;;;;;;;      .++++@#  =!>>~>>!===!>>~>>!=           '+++_+",
"<                  .++++@#  =!>>~>>!===!>>~>>!=           '+++_+",
"                   .+++[@#  =}>>~>>!===!>>~>>!=           '|++_+",
"                   .+++[@#  =}>>~>>!===!>>~>>!=           '+++_+",
"                   .+++1@#  =}>>~>>}===!>>~>>!=           '|++++",
"                   .+++1@#  =}>>~>>}===!>>~>>!=           '|++++",
"                   .+++1@#  =}>>~>>}===!>>~>>}=           '|++++",
"                   .+++[@#  =}>>~>>!===}>>~>>}=           '|++++",
"                   .+++[@#  =}>>~>>!===}>>~>>}=           '+++++",
"                   .+++2@#  =!>>~>>!===!>>~>>!=           '+++++",
"3                  .+++2@#  =!>>~>>!===!>>~>>!=           '+++++",
"                   .+++2@#  =!>>~>>!====>>~>>!=           '+++++",
"                   .+++2@#  =!>>~>>=====>>~>>!=           '+++++",
"                   .+++2@#  =!>>~>>=====>>~>>==           '+++++",
"                   .+++2@#  =!>>~>>=====>>~>>==           '+++++",
"                   .+++2@#  =!>>~>>=====>>~>>==           '+++++",
"                   .+++2@#  =!>>~>>=====>>~>>==           '+++++",
"                   .+++2@#  =!>>~>>=====>>~>>==           4@++++",
"                   .+++2@#  ==>>>>>=====>>>>>==           5@++++",
"                   .+++2@#  ==>>>>>== ==>>>>>==           5+++++",
"                   .+++2@6   =>>>>>== ==>>>>>==           7+++++",
"                   .+++2@686#9>>>>>00##9>>>>>9#666666aa677b+++++",
"                   .+++2@@ccc@deeeed@@@@ffgghi@@@@@@++++++++++++",
"                   .+++222[[[jklmmm[[++++iif@@@++++[n[[n[[[[++++",
"                   .+++2++++++++++++++++++++++++++++++++++++++++",
"                   .+++2++++++++oo|+++++++pp++++++++++++++++++++",
"                   .+++2+|||||ppppp|||||qrrqqs||++++++++++++++++",
"                   .+++2|ttuvw>>>>>xyzwA>>>>>yvB+++++^/{/((&&&&&",
"                   .+++2|uC DD>>~>>EFGHI>>~>>G J|++++K<;        ",
"                   .+++2|t; DD>>~>>LDDDM>>~>>DD'+++++/          ",
"                   .+++2|u  DD>>~>>MD DM>>~>>DD'|++$+/          ",
"                   .+++2|v   D>>>>>MD DD>>>>>DD'|++%+{          ",
"                   .+++2|N   D>>>>>DD  D>>>>>D '|++$O(          ",
"                   .+++2|B   DDDDDDD   DDDDDDD '|++$O&          ",
"                   .+++2|'    DDDD      DDDD   '|++$+.          ",
"                   .+++2|'                     '|++$+.          ",
"                   .+++2|'                     .|++++.          ",
"                   .+++2|'                     .|++++.          ",
"                   .++++|'                     .+++++.          ",
"                   .++++|.                     .+++++.          ",
"                   .+++++.                     .+++++.          "};
