/* XPM */
static char * texture_south_xpm[] = {
"64 64 118 2",
"  	c #1A0F67",
". 	c #1A116A",
"+ 	c #191672",
"@ 	c #1C1C92",
"# 	c #1A26A1",
"$ 	c #1D1689",
"% 	c #1A1068",
"& 	c #1A136D",
"* 	c #1A1373",
"= 	c #1A1370",
"- 	c #1F1371",
"; 	c #20106D",
"> 	c #1A0F68",
", 	c #1A0F6A",
"' 	c #23167A",
") 	c #251173",
"! 	c #1B0F6E",
"~ 	c #1E0F81",
"{ 	c #1C0F75",
"] 	c #1C1177",
"^ 	c #1B167E",
"/ 	c #1A1C87",
"( 	c #2B1B8A",
"_ 	c #2E127E",
": 	c #172EAF",
"< 	c #2A2DB1",
"[ 	c #3C1591",
"} 	c #1C1B91",
"| 	c #1434BC",
"1 	c #3533BF",
"2 	c #501A9F",
"3 	c #3548BD",
"4 	c #4857BF",
"5 	c #4932C2",
"6 	c #626EC1",
"7 	c #1A1B86",
"8 	c #1A229C",
"9 	c #7029A7",
"0 	c #1927A4",
"a 	c #1B1278",
"b 	c #E503FE",
"c 	c #182AAA",
"d 	c #361A96",
"e 	c #6571C1",
"f 	c #623AA2",
"g 	c #C3D8F6",
"h 	c #521E8B",
"i 	c #151B6E",
"j 	c #131B63",
"k 	c #121B5F",
"l 	c #161B75",
"m 	c #181B7D",
"n 	c #4E5CBF",
"o 	c #17166B",
"p 	c #191471",
"q 	c #6054C5",
"r 	c #7044AD",
"s 	c #3333BF",
"t 	c #686DC3",
"u 	c #6459C5",
"v 	c #16176C",
"w 	c #3521A1",
"x 	c #4B21A6",
"y 	c #4F21A8",
"z 	c #4A25AD",
"A 	c #6620B1",
"B 	c #702EB0",
"C 	c #1A37A0",
"D 	c #6719A9",
"E 	c #5224B0",
"F 	c #6230C8",
"G 	c #613EC9",
"H 	c #6149CA",
"I 	c #713DCE",
"J 	c #7146CF",
"K 	c #5F49CA",
"L 	c #5F3FC9",
"M 	c #7769C8",
"N 	c #7270C8",
"O 	c #5F62C8",
"P 	c #5F5CC6",
"Q 	c #756DC6",
"R 	c #3342C1",
"S 	c #4441C3",
"T 	c #5140C5",
"U 	c #5B3FC7",
"V 	c #4432C2",
"W 	c #3A1A71",
"X 	c #3A1A7A",
"Y 	c #3A1A80",
"Z 	c #6E2E9D",
"` 	c #603D97",
" .	c #6E2E9A",
"..	c #6E2E97",
"+.	c #603D95",
"@.	c #3C1A8E",
"#.	c #341674",
"$.	c #472C92",
"%.	c #593C99",
"&.	c #6F2AA2",
"*.	c #6F2B9E",
"=.	c #6F2C9B",
"-.	c #683B9B",
";.	c #4B1A94",
">.	c #141B68",
",.	c #1E4B90",
"'.	c #1E3F8B",
").	c #3C1A87",
"!.	c #1330AC",
"~.	c #4A40A7",
"{.	c #2A25A3",
"].	c #2C158C",
"^.	c #231C89",
"/.	c #24127B",
"(.	c #1C1379",
"_.	c #1A1678",
":.	c #1F1679",
"<.	c #1B1170",
"      . + @ @ # # $                   % & . * = - ; > > > > >     > > > > > > , > > > > > > > > > > > >                       > ",
"      . + @ @ # # $                   % & . * = ' ) ! ! ! ! ! , , , , , , , , , ! , , , , , , , , , , , > > > > > > > > > > > > ",
"      . + @ @ # # $ ~ ~ ~ ~ ~ { { { { ] ^ ^ ^ / ( _ { { { { { { { { { { { { { { { { { { { { { { { { { { ! ! ! ! ! ! ! ! ! ! ! ! ",
"~ ~ ~ $ # # # # # $ ~ ~ ~ ~ ~ ~ ~ ~ ~ $ : : : : < [ ~ ~ ~ ~ ~ ~ ~ ~ ~ ~ { { { { { { { ~ ~ ~ ~ ~ ~ ~ ~ ~ ~ ~ ~ ~ ~ ~ ~ ~ { { { { ",
"~ ~ ~ $ # # # # # $ ~ ~ ~ ~ ~ ~ ~ ~ ~ $ : : : : < [ ~ ~ ~ ~ ~ ~ ~ ~ ~ ~ ~ ~ ~ ~ ~ ~ ~ ~ ~ ~ ~ ~ ~ ~ ~ ~ ~ ~ ~ ~ ~ ~ ~ ~ ~ ~ ~ ~ ",
"~ ~ ~ } | | | | | } ~ ~ ~ ~ ~ ~ ~ ~ ~ } | | | | 1 2 ~ ~ ~ ~ ~ ~ ~ ~ ~ ~ ~ ~ ~ ~ ~ ~ ~ ~ ~ ~ ~ ~ ~ ~ ~ ~ ~ ~ ~ ~ ~ ~ ~ ~ ~ ~ ~ ~ ",
"~ ~ ~ } | | | | | } ~ ~ ~ ~ ~ ~ ~ ~ ~ } | | | | 1 2 ~ ~ ~ ~ ~ ~ ~ ~ ~ ~ ~ ~ ~ ~ ~ ~ ~ ~ ~ ~ ~ ~ ~ ~ ~ ~ ~ ~ ~ ~ ~ ~ ~ ~ ~ ~ ~ ~ ",
"~ ~ ~ } | | | | | } ~ ~ ~ ~ ~ ~ ~ ~ ~ } | | | 3 1 2 ~ ~ ~ ~ ~ ~ ~ ~ ~ ~ ~ ~ ~ ~ ~ ~ ~ ~ ~ ~ ~ ~ ~ ~ ~ ~ ~ ~ ~ ~ ~ ~ ~ ~ ~ ~ ~ ~ ",
"~ ~ ~ } | | | | | } ~ ~ ~ ~ ~ ~ ~ ~ ~ } | | | 4 5 2 ~ ~ ~ ~ ~ ~ ~ ~ ~ ~ ~ ~ ~ ~ ~ ~ ~ ~ ~ ~ ~ ~ ~ ~ ~ ~ ~ ~ ~ ~ ~ ~ ~ ~ ~ ~ ~ ~ ",
"~ ~ ~ } | | | | | } ~ ~ ~ ~ ~ ~ ~ ~ ~ } | | | 6 5 2 ~ ~ ~ ~ ~ ~ ~ ~ ~ ~ ~ ~ ~ ~ ~ ~ ~ ~ ~ ~ ~ ~ ~ ~ ~ ~ ~ ~ ~ ~ ~ ~ ~ ~ ~ ~ ~ ~ ",
"~ ~ ~ } | | | | | } ~ ~ ~ ~ ~ ~ ~ ~ ~ } | | | 4 5 2 ~ ~ ~ ~ ~ ~ ~ ~ ~ ~ ~ ~ ~ ~ ~ ~ ~ ~ ~ ~ ~ ~ ~ ~ ~ ~ ~ ~ ~ ~ ~ ~ ~ ~ ~ ~ ~ ~ ",
"~ ~ ~ } | | | | | } ~ ~ ~ ~ ~ ~ ~ ~ ~ } | | | 4 5 2 ~ ~ ~ ~ ~ ~ ~ ~ ~ ~ ~ ~ ~ ~ ~ ~ ~ ~ ~ ~ ~ ~ ~ ~ ~ ~ ~ ~ ~ ~ ~ ~ ~ ~ ~ ~ ~ ~ ",
"~ ~ ~ } | | | | | } ~ ~ ~ ~ ~ ~ ~ ~ ~ } | | | 4 5 2 ~ ~ ~ ~ ~ ~ ~ ~ ~ ~ ~ ~ ~ ~ ~ ~ ~ ~ ~ ~ ~ ~ ~ ~ ~ ~ ~ ~ ~ ~ ~ ~ ~ ~ ~ ~ ~ ~ ",
"~ ~ ~ } | | | | | 7 ~ ~ ~ ~ ~ ~ ~ ~ ~ 8 | | | 4 5 2 ~ ~ ~ ~ ~ 9 9 9 9 ~ ~ ~ ~ ~ ~ 9 9 9 9 ~ ~ ~ ~ ~ ~ ~ ~ ~ ~ ~ ~ ~ ~ ~ ~ ~ ~ ~ ",
"~ ~ ~ } | | | | | 7 ~ ~ ~ ~ ~ ~ ~ ~ ~ 0 | | | | 5 2 ~ ~ ~ 9 9 9 9 9 9 9 ~ ~ ~ 9 9 9 9 9 9 9 ~ ~ ~ ~ ~ ~ ~ ~ ~ ~ ~ ~ ~ ~ ~ ~ ~ ~ ",
"~ ~ ~ } | | | | | 7 a ~ ~ ~ ~ ~ ~ ~ ~ 0 | | | | 5 2 ~ ~ ~ 9 b b b b b 9 ~ ~ ~ 9 b b b b b 9 ~ ~ ~ ~ ~ ~ ~ ~ ~ ~ ~ ~ ~ ~ ~ ~ ~ ~ ",
"} } } } | | | | | 7 7 7 7 } } } 8 0 0 c | | | | 5 2 ~ ~ ~ 9 b b b b b 9 ~ ~ ~ 9 b b b b b 9 ~ ~ ~ ~ ~ ~ ~ ~ ~ ~ ~ ~ } } } } } } ",
"| | | | | | | | | | | | | | | | | | | | | | | | 5 2 ~ ~ ~ 9 b b b b b 9 ~ ~ 9 9 b b b b b 9 9 ~ ~ ~ ~ ~ ~ ~ ~ ~ ~ ~ } | | | | | ",
"| | | | | 4 4 6 6 4 4 4 4 4 4 4 4 | | | | | | | 5 2 ~ ~ ~ 9 b b b b b 9 9 ~ 9 9 b b b b b 9 9 ~ ~ ~ ~ ~ ~ ~ ~ ~ ~ ~ d | | | | | ",
"| | | | | | | | | | | | | | | | | | | | | | | | 5 2 ~ ~ 9 9 b b b b b 9 9 ~ 9 9 b b b b b 9 9 ~ ~ ~ ~ ~ ~ ~ ~ ~ ~ ~ d | | | e | ",
"| | | | | | | | | | | | | | | | | | | | | | | | 5 2 ~ ~ 9 f b b g b b f 9 ~ 9 9 b b g b b 9 9 ~ ~ ~ ~ ~ ~ ~ ~ ~ ~ ~ d | | | e | ",
"| | | | | | | | | | | | | | | | | | | | | | | | 5 2 ~ ~ 9 f b b g b b f 9 h 9 f b b g b b 9 9 ~ ~ ~ ~ ~ ~ ~ ~ ~ ~ ~ d | | | e | ",
"i j j k l m m 7 7 } } } } } } } } } } } | | | | 5 2 ~ ~ 9 f b b g b b f 9 h 9 f b b g b b 9 9 ~ ~ ~ ~ ~ ~ ~ ~ ~ ~ ~ d | | | n | ",
"o p a a a ~ a a a a a a a ~ ~ ~ ~ ~ ~ } | | | | 5 2 ~ ~ 9 f b b g b b f 9 h 9 f b b g b b f 9 ~ ~ ~ ~ ~ ~ ~ ~ ~ ~ ~ d | | | n | ",
"p ~ ~ ~ ~ ~ ~ ~ ~ ~ ~ ~ ~ ~ ~ ~ ~ ~ ~ } | | | | 5 2 ~ ~ 9 f b b g b b f 9 h 9 f b b g b b f 9 ~ ~ ~ ~ ~ ~ ~ ~ ~ ~ ~ d | | | n | ",
"~ ~ ~ ~ ~ ~ ~ ~ ~ ~ ~ ~ ~ ~ ~ ~ ~ ~ ~ } | | | q 5 2 ~ ~ 9 r b b g b b f 9 h 9 f b b g b b f 9 ~ ~ ~ ~ ~ ~ ~ ~ ~ ~ ~ d s | | n | ",
"~ ~ ~ ~ ~ ~ ~ ~ ~ ~ ~ ~ ~ ~ ~ ~ ~ ~ ~ } | | | q 5 2 ~ ~ 9 r b b g b b f 9 h 9 f b b g b b f 9 ~ ~ ~ ~ ~ ~ ~ ~ ~ ~ ~ d | | | n | ",
"~ ~ ~ ~ ~ ~ ~ ~ ~ ~ ~ ~ ~ ~ ~ ~ ~ ~ ~ } | | | t 5 2 ~ ~ 9 r b b g b b r 9 h 9 f b b g b b f 9 ~ ~ ~ ~ ~ ~ ~ ~ ~ ~ ~ d s | | | | ",
"~ ~ ~ ~ ~ ~ ~ ~ ~ ~ ~ ~ ~ ~ ~ ~ ~ ~ ~ } | | | t 5 2 ~ ~ 9 r b b g b b r 9 h 9 f b b g b b f 9 ~ ~ ~ ~ ~ ~ ~ ~ ~ ~ ~ d s | | | | ",
"~ ~ ~ ~ ~ ~ ~ ~ ~ ~ ~ ~ ~ ~ ~ ~ ~ ~ ~ } | | | t 5 2 ~ ~ 9 r b b g b b r 9 h 9 f b b g b b r 9 ~ ~ ~ ~ ~ ~ ~ ~ ~ ~ ~ d s | | | | ",
"~ ~ ~ ~ ~ ~ ~ ~ ~ ~ ~ ~ ~ ~ ~ ~ ~ ~ ~ } | | | q 5 2 ~ ~ 9 r b b g b b f 9 h 9 r b b g b b r 9 ~ ~ ~ ~ ~ ~ ~ ~ ~ ~ ~ d s | | | | ",
"~ ~ ~ ~ ~ ~ ~ ~ ~ ~ ~ ~ ~ ~ ~ ~ ~ ~ ~ } | | | q 5 2 ~ ~ 9 r b b g b b f 9 h 9 r b b g b b r 9 ~ ~ ~ ~ ~ ~ ~ ~ ~ ~ ~ d | | | | | ",
"~ ~ ~ ~ ~ ~ ~ ~ ~ ~ ~ ~ ~ ~ ~ ~ ~ ~ ~ } | | | u 5 2 ~ ~ 9 f b b g b b f 9 h 9 f b b g b b f 9 ~ ~ ~ ~ ~ ~ ~ ~ ~ ~ ~ d | | | | | ",
"v ~ ~ ~ ~ ~ ~ ~ ~ ~ ~ ~ ~ ~ ~ ~ ~ ~ ~ } | | | u 5 2 ~ ~ 9 f b b g b b f 9 h 9 f b b g b b f 9 ~ ~ ~ ~ ~ ~ ~ ~ ~ ~ ~ d | | | | | ",
"~ ~ ~ ~ ~ ~ ~ ~ ~ ~ ~ ~ ~ ~ ~ ~ ~ ~ ~ } | | | u 5 2 ~ ~ 9 f b b g b b f 9 h 9 9 b b g b b f 9 ~ ~ ~ ~ ~ ~ ~ ~ ~ ~ ~ d | | | | | ",
"~ ~ ~ ~ ~ ~ ~ ~ ~ ~ ~ ~ ~ ~ ~ ~ ~ ~ ~ } | | | u 5 2 ~ ~ 9 f b b g b b 9 9 h 9 9 b b g b b f 9 ~ ~ ~ ~ ~ ~ ~ ~ ~ ~ ~ d | | | | | ",
"~ ~ ~ ~ ~ ~ ~ ~ ~ ~ ~ ~ ~ ~ ~ ~ ~ ~ ~ } | | | u 5 2 ~ ~ 9 f b b g b b 9 9 h 9 9 b b g b b 9 9 ~ ~ ~ ~ ~ ~ ~ ~ ~ ~ ~ d | | | | | ",
"~ ~ ~ ~ ~ ~ ~ ~ ~ ~ ~ ~ ~ ~ ~ ~ ~ ~ ~ } | | | u 5 2 ~ ~ 9 f b b g b b 9 9 h 9 9 b b g b b 9 9 ~ ~ ~ ~ ~ ~ ~ ~ ~ ~ ~ d | | | | | ",
"~ ~ ~ ~ ~ ~ ~ ~ ~ ~ ~ ~ ~ ~ ~ ~ ~ ~ ~ } | | | u 5 2 ~ ~ 9 f b b g b b 9 9 h 9 9 b b g b b 9 9 ~ ~ ~ ~ ~ ~ ~ ~ ~ ~ ~ d | | | | | ",
"~ ~ ~ ~ ~ ~ ~ ~ ~ ~ ~ ~ ~ ~ ~ ~ ~ ~ ~ } | | | u 5 2 ~ ~ 9 f b b g b b 9 9 h 9 9 b b g b b 9 9 ~ ~ ~ ~ ~ ~ ~ ~ ~ ~ ~ d | | | | | ",
"~ ~ ~ ~ ~ ~ ~ ~ ~ ~ ~ ~ ~ ~ ~ ~ ~ ~ ~ } | | | u 5 2 ~ ~ 9 f b b g b b 9 9 h 9 9 b b g b b 9 9 ~ ~ ~ ~ ~ ~ ~ ~ ~ ~ ~ w 5 | | | | ",
"~ ~ ~ ~ ~ ~ ~ ~ ~ ~ ~ ~ ~ ~ ~ ~ ~ ~ ~ } | | | u 5 2 ~ ~ 9 9 b b b b b 9 9 h 9 9 b b b b b 9 9 ~ ~ ~ ~ ~ ~ ~ ~ ~ ~ ~ x 5 | | | | ",
"~ ~ ~ ~ ~ ~ ~ ~ ~ ~ ~ ~ ~ ~ ~ ~ ~ ~ ~ } | | | u 5 2 ~ ~ 9 9 b b b b b 9 9 ~ 9 9 b b b b b 9 9 ~ ~ ~ ~ ~ ~ ~ ~ ~ ~ ~ x | | | | | ",
"~ ~ ~ ~ ~ ~ ~ ~ ~ ~ ~ ~ ~ ~ ~ ~ ~ ~ ~ } | | | u 5 y ~ ~ ~ 9 b b b b b 9 9 ~ 9 9 b b b b b 9 9 ~ ~ ~ ~ ~ ~ ~ ~ ~ ~ ~ z | | | | | ",
"~ ~ ~ ~ ~ ~ ~ ~ ~ ~ ~ ~ ~ ~ ~ ~ ~ ~ ~ } | | | u 5 y A y 2 B b b b b b C C 2 2 B b b b b b B 2 y y y y y y D D y z z E | | | | | ",
"~ ~ ~ ~ ~ ~ ~ ~ ~ ~ ~ ~ ~ ~ ~ ~ ~ ~ ~ } | | | u 5 5 F F F 5 G H H H H G 5 5 5 5 I I J J K L 5 5 5 5 5 5 | | | | | | | | | | | | ",
"~ ~ ~ ~ ~ ~ ~ ~ ~ ~ ~ ~ ~ ~ ~ ~ ~ ~ ~ } | | | u u u q q q M N O P P P q q | | | | L L I 5 5 5 | | | | q Q q q Q q q q q | | | | ",
"~ ~ ~ ~ ~ ~ ~ ~ ~ ~ ~ ~ ~ ~ ~ ~ ~ ~ ~ } | | | u | | | | | | | | | | | | | | | | | | | | | | | | | | | | | | | | | | | | | | | | ",
"~ ~ ~ ~ ~ ~ ~ ~ ~ ~ ~ ~ ~ ~ ~ ~ ~ ~ ~ } | | | u | | | | | | | | R R s | | | | | | | S S | | | | | | | | | | | | | | | | | | | | ",
"~ ~ ~ ~ ~ ~ ~ ~ ~ ~ ~ ~ ~ ~ ~ ~ ~ ~ ~ } | | | u | s s s s s S S S S S s s s s s T U U T T V s s | | | | | | | | | | | | | | | | ",
"~ ~ ~ ~ ~ ~ ~ ~ ~ ~ ~ ~ ~ ~ ~ ~ ~ ~ ~ } | | | u s W W X Y Z b b b b b `  ...Z +.b b b b b  .Y @.| | | | | k l i l m m 7 7 7 7 7 ",
"~ ~ ~ ~ ~ ~ ~ ~ ~ ~ ~ ~ ~ ~ ~ ~ ~ ~ ~ } | | | u s X #.~ $.$.b b g b b %.&.*.=.-.b b g b b *.~ ;.s | | | | >.p a ~ ~ ~ ~ ~ ~ ~ ~ ",
"~ ~ ~ ~ ~ ~ ~ ~ ~ ~ ~ ~ ~ ~ ~ ~ ~ ~ ~ } | | | u s W a ~ $.$.b b g b b ,.$.$.$.'.b b g b b $.$.d | | | | | l ~ ~ ~ ~ ~ ~ ~ ~ ~ ~ ",
"~ ~ ~ ~ ~ ~ ~ ~ ~ ~ ~ ~ ~ ~ ~ ~ ~ ~ ~ } | | | u s X ~ ~ $.$.b b g b b '.$.~ $.'.b b g b b $.$.d s | | 4 | l ~ ~ ~ ~ ~ ~ ~ ~ ~ ~ ",
"~ ~ ~ ~ ~ ~ ~ ~ ~ ~ ~ ~ ~ ~ ~ ~ ~ ~ ~ } | | | u s Y ~ ~ ~ $.b b b b b '.$.~ $.$.b b b b b $.$.d s | | 6 | i ~ ~ ~ ~ ~ ~ ~ ~ ~ ~ ",
"~ ~ ~ ~ ~ ~ ~ ~ ~ ~ ~ ~ ~ ~ ~ ~ ~ ~ ~ } | | | u s ).~ ~ ~ $.b b b b b $.$.~ ~ $.b b b b b $.~ d s | | 4 !.m ~ ~ ~ ~ ~ ~ ~ ~ ~ ~ ",
"~ ~ ~ ~ ~ ~ ~ ~ ~ ~ ~ ~ ~ ~ ~ ~ ~ ~ ~ } | | | u s @.~ ~ ~ $.$.$.$.$.$.$.~ ~ ~ $.$.$.$.$.$.$.~ d s | | 4 !.7 ~ ~ ~ ~ ~ ~ ~ ~ ~ ~ ",
"~ ~ ~ ~ ~ ~ ~ ~ ~ ~ ~ ~ ~ ~ ~ ~ ~ ~ ~ } | | | u s d ~ ~ ~ ~ $.$.$.$.~ ~ ~ ~ ~ ~ $.$.$.$.~ ~ ~ d s | | 4 | } ~ ~ ~ ~ ~ ~ ~ ~ ~ ~ ",
"~ ~ ~ ~ ~ ~ ~ ~ ~ ~ ~ ~ ~ ~ ~ ~ ~ ~ ~ } | | | u s d ~ ~ ~ ~ ~ ~ ~ ~ ~ ~ ~ ~ ~ ~ ~ ~ ~ ~ ~ ~ ~ d s | | 4 | } ~ ~ ~ ~ ~ ~ ~ ~ ~ ~ ",
"~ ~ ~ ~ ~ ~ ~ ~ ~ ~ ~ ~ ~ ~ ~ ~ ~ ~ ~ $ # # # ~.{.].~ ~ ~ ~ ~ ~ ~ ~ ~ ~ ~ ~ ~ ~ ~ ~ ~ ~ ~ ~ ~ $ {.# # # # $ ~ ~ ~ ~ ~ ~ ~ ~ ~ ~ ",
"~ ~ ~ ~ ~ ~ ~ ~ ~ ~ ~ ~ ~ ~ ~ ~ ~ ~ ~ $ # # # ~.^./.{ { { { { { { { { { { { { { { ~ ~ ~ ~ ~ ~ $ {.# # # # $ ~ ~ ~ ~ ~ ~ ~ ~ ~ ~ ",
"{ { { { { { { { { { { { { { { { { { { ] ^ ^ ^ / ^./.{ { { { { { { { { { { { { { { { { { { { { (./ / ^ ^ ^ ] ~ ~ ~ { { { { { { { ",
"                                      % & & ^ _.:.<.! ! ! ! ! ! ! ! ! ! ! ! ! ! ! ! ! ! ! ! ! <._._.* . .                       ",
"                                      % & & ^ _._.<.! ! ! ! ! ! ! ! ! ! ! ! ! ! ! ! ! ! ! ! ! <._._.* . .                       "};
