/* XPM */
static char * texture_north_test_xpm[] = {
"64 64 128 2",
"  	c #17115E",
". 	c #17125E",
"+ 	c #171361",
"@ 	c #171568",
"# 	c #181263",
"$ 	c #16115C",
"% 	c #1F2467",
"& 	c #1B156B",
"* 	c #1A0E6A",
"= 	c #190C6D",
"- 	c #1D1C6A",
"; 	c #1E2274",
"> 	c #1A26A1",
", 	c #172EAF",
"' 	c #1733B0",
") 	c #1631B6",
"! 	c #1634B6",
"~ 	c #1533B9",
"{ 	c #1F236E",
"] 	c #1434BC",
"^ 	c #4857BF",
"/ 	c #1446BF",
"( 	c #4761C1",
"_ 	c #6075C3",
": 	c #466AC3",
"< 	c #1A229C",
"[ 	c #1E2E86",
"} 	c #1927A4",
"| 	c #1453C1",
"1 	c #08EDFC",
"2 	c #182AAA",
"3 	c #626EC1",
"4 	c #6378C3",
"5 	c #1E3F8B",
"6 	c #B3EEF5",
"7 	c #1A206B",
"8 	c #131B63",
"9 	c #121B5F",
"0 	c #1C3796",
"a 	c #4D65C1",
"b 	c #18176B",
"c 	c #1F2268",
"d 	c #1E4B90",
"e 	c #1A3BA0",
"f 	c #1E0F81",
"g 	c #193EA8",
"h 	c #1C3395",
"i 	c #1A37A0",
"j 	c #1C1B91",
"k 	c #1C459A",
"l 	c #1C489B",
"m 	c #1A4BA4",
"n 	c #194DAC",
"o 	c #1443BE",
"p 	c #144FC0",
"q 	c #1451C0",
"r 	c #4C6DC3",
"s 	c #5F7BC5",
"t 	c #456EC5",
"u 	c #4668C3",
"v 	c #13376D",
"w 	c #161D64",
"x 	c #1B206A",
"y 	c #1B206E",
"z 	c #153375",
"A 	c #15427B",
"B 	c #143370",
"C 	c #13336B",
"D 	c #15457D",
"E 	c #14507F",
"F 	c #161B75",
"G 	c #1A378C",
"H 	c #151D61",
"I 	c #1C2073",
"J 	c #1D2077",
"K 	c #1A1B6A",
"L 	c #1F1E72",
"M 	c #1B4084",
"N 	c #1B2F7E",
"O 	c #193078",
"P 	c #173172",
"Q 	c #174179",
"R 	c #171D68",
"S 	c #1D1F6B",
"T 	c #1D1F6E",
"U 	c #1E207E",
"V 	c #143EBD",
"W 	c #1439BC",
"X 	c #1330AC",
"Y 	c #213CBC",
"Z 	c #1B37BA",
"` 	c #1534BB",
" .	c #1E1E79",
"..	c #1F2376",
"+.	c #1534B9",
"@.	c #1F39B7",
"#.	c #213AB7",
"$.	c #1534BC",
"%.	c #3646A4",
"&.	c #1E207F",
"*.	c #1D269C",
"=.	c #182AA9",
"-.	c #1F1E75",
";.	c #162FB3",
">.	c #1E1E7A",
",.	c #1C1A6A",
"'.	c #1E2069",
").	c #16289F",
"!.	c #1D1D6A",
"~.	c #1E1D6E",
"{.	c #1E1E71",
"].	c #1E1E6E",
"^.	c #1D1F71",
"/.	c #1D1D69",
"(.	c #1D1B6A",
"_.	c #1C196A",
":.	c #1A1466",
"<.	c #1B1569",
"[.	c #1D1E6A",
"}.	c #1B1469",
"|.	c #1D1D6C",
"1.	c #1E1D6F",
"2.	c #1E1E72",
"3.	c #1A1465",
"4.	c #191363",
"5.	c #1B1567",
"6.	c #1D1E69",
"7.	c #1D1B69",
"      . + + @ @ @ # # # # # # # # # $ . + + + % % & * * * * * = = = = = = = = = = = = * * * * * * = = = = = = = = = * * * * * * ",
"      . @ @ % % % # # # # # # # # #   # @ @ @ % % & * * * * * * * * * * * * * * * * * * * * * * * * * * * * * * * * * * * * * * ",
"      . @ @ % % % # # # # # # # # # # - % % % % ; % % % % % % % % % % % % % % % % % % % % % % % % % % % % % % % % % % % % % % % ",
"% % % % ; ; ; ; ; % % % % % % % % % % % ; ; ; ; ; % % % % % % % % % % % % % % % % % % % % % % % % % % % % % % % % % % % % % % % ",
"% % % % > > > > , % % % % % % % % % % % > > > > ' % % % % % % % % % % % % % % % % % % % % % % % % % % % % % % % % % % % % % % % ",
"% % % % > > > , ) % % % % % % % % % % % > > > , ! % % % % % % % % % % % % % % % % % % % % % % % % % % % % % % % % % % % % % % % ",
"% % % % > , ) ) ) % % % % % % % % % % % > , ) ~ ! % % % % % % % % % % % % % % % % % % % % % % % % % % % % % % % % % % % % % % % ",
"% % % { ] ] ] ] ] { % % % % % % % % % { ] ] ] ^ / { % % % % % % % % % % % % % % % % % % % % % % % % % % % % % % % % % % % % % % ",
"% % % { ] ] ] ] ] { % % % % % % % % % { ] ] ] ( / { % % % % % % % % % % % % % % % % % % % % % % % % % % % % % % % % % % % % % % ",
"% % % { ] ] ] ] ] { % % % % % % % % % { ] ] ] _ / { % % % % % % % % % % % % % % % % % % % % % % % % % % % % % % % % % % % % % % ",
"% % % { ] ] ] ] ] { % % % % % % % % % { ] ] ] ( / { % % % % % % % % % % % % % % % % % % % % % % % % % % % % % % % % % % % % % % ",
"% % % { ] ] ] ] ] { % % % % % % % % % { ] ] ] : / { % % % % % % % % % % % % % % % % % % % % % % % % % % % % % % % % % % % % % % ",
"% % % { ] ] ] ] ] { % % % % % % % % % { ] ] ] : / { % % % % % % % % % % % % % % % % % % % % % % % % % % % % % % % % % % % % % % ",
"% % % { ] ] ] ] ] % % % % % % % % % % < ] ] ] ( / { % % % % % [ [ [ [ % % % % % % [ [ [ [ % % % % % % % % % % % % % % % % % % % ",
"% % % { ] ] ] ] ] % % % % % % % % % % } ] ] ] / | { % % % [ [ [ [ [ [ [ % % % [ [ [ [ [ [ [ % % % % % % % % % % % % % % % % % % ",
"% % % { ] ] ] ] ] % % % % % % % % % % } ] ] ] ] / { % % % [ 1 1 1 1 1 [ % % % [ 1 1 1 1 1 [ % % % % % % % % % % % % % % % % % % ",
"{ { { { ] ] ] ] ] % % % % { { { < } } 2 ] ] ] ] / { % % % [ 1 1 1 1 1 [ % % % [ 1 1 1 1 1 [ % % % % % % % % % % % % { { { { { { ",
"] ] ] ] ] ] ] ] ] ] ] ] ] ] ] ] ] ] ] ] ] ] ] ] / { % % % [ 1 1 1 1 1 [ % % [ [ 1 1 1 1 1 [ [ % % % % % % % % % % % { ] ] ] ] ] ",
"] ] ] ] ] ^ ^ 3 3 ^ ^ ^ ^ ^ ^ ^ ^ ] ] ] ] ] ] ] / { % % % [ 1 1 1 1 1 [ [ % [ [ 1 1 1 1 1 [ [ % % % % % % % % % % % { ] ] ] ] ] ",
"] ] ] ] ] ] ] ] ] ] ] ] ] ] ] ] ] ] ] ] ] ] ] ] / { % % [ [ 1 1 1 1 1 [ [ % [ [ 1 1 1 1 1 [ [ % % % % % % % % % % % { ] ] ] 4 ] ",
"] ] ] ] ] ] ] ] ] ] ] ] ] ] ] ] ] ] ] ] ] ] ] ] / { % % [ 5 1 1 6 1 1 5 [ % [ [ 1 1 6 1 1 [ [ % % % % % % % % % % % { ] ] ] 4 ] ",
"] ] ] ] ] ] ] ] ] ] ] ] ] ] ] ] ] ] ] ] ] ] ] ] / { % % [ 5 1 1 6 1 1 5 [ [ [ 5 1 1 6 1 1 [ [ % % % % % % % % % % % { / ] ] 4 ] ",
"7 8 8 9 % % % % % { { { { { { { { { { { ] ] ] ] / { % % [ 5 1 1 6 1 1 5 [ [ [ 5 1 1 6 1 1 [ [ % % % % % % % % % % % 0 / ] ] a ] ",
"b c % % % % % % % % % % % % % % % % % { ] ] ] ] / { % % [ 5 1 1 6 1 1 5 [ [ [ 5 1 1 6 1 1 5 [ % % % % % % % % % % % 0 / ] ] a ] ",
"c % % % % % % % % % % % % % % % % % % { ] ] ] ] / { % % [ 5 1 1 6 1 1 5 [ [ [ 5 1 1 6 1 1 5 [ % % % % % % % % % % % 0 / ] ] a ] ",
"% % % % % % % % % % % % % % % % % % % { ] ] ] ( / { % % [ d 1 1 6 1 1 5 [ [ [ 5 1 1 6 1 1 5 [ % % % % % % % % % % % 0 / ] ] a ] ",
"% % % % % % % % % % % % % % % % % % % { ] ] ] ( / { % % [ d 1 1 6 1 1 5 [ [ [ 5 1 1 6 1 1 5 [ % % % % % % % % % % % 0 / ] ] a ] ",
"% % % % % % % % % % % % % % % % % % % { ] ] ] _ / { % % [ d 1 1 6 1 1 d [ [ [ 5 1 1 6 1 1 5 [ % % % % % % % % % % % 0 / ] ] ] ] ",
"% % % % % % % % % % % % % % % % % % % { ] ] ] _ / { % % [ d 1 1 6 1 1 d [ [ [ 5 1 1 6 1 1 5 [ % % % % % % % % % % % 0 / ] ] ] ] ",
"% % % % % % % % % % % % % % % % % % % { ] ] ] _ / { % % [ d 1 1 6 1 1 d [ [ [ 5 1 1 6 1 1 d [ % % % % % % % % % % % 0 / ] ] ] ] ",
"% % % % % % % % % % % % % % % % % % % { ] ] ] ( / { % % [ d 1 1 6 1 1 5 [ [ [ d 1 1 6 1 1 d [ % % % % % % % % % % % 0 / ] ] ] ] ",
"% % % % % % % % % % % % % % % % % % % { ] ] ] ( / { % % [ d 1 1 6 1 1 5 [ [ [ d 1 1 6 1 1 d [ % % % % % % % % % % % 0 / ] ] ] ] ",
"% % % % % % % % % % % % % % % % % % % { ] ] ] a / { % % [ 5 1 1 6 1 1 5 [ [ [ 5 1 1 6 1 1 5 [ % % % % % % % % % % % 0 / ] ] ] ] ",
"% % % % % % % % % % % % % % % % % % % { ] ] ] a / { % % [ 5 1 1 6 1 1 5 [ [ [ 5 1 1 6 1 1 5 [ % % % % % % % % % % % 0 / ] ] ] ] ",
"% % % % % % % % % % % % % % % % % % % { ] ] ] a / { % % [ 5 1 1 6 1 1 5 [ [ [ [ 1 1 6 1 1 5 [ % % % % % % % % % % % 0 / ] ] ] ] ",
"% % % % % % % % % % % % % % % % % % % { ] ] ] a / { % % [ 5 1 1 6 1 1 [ [ [ [ [ 1 1 6 1 1 5 [ % % % % % % % % % % % 0 / ] ] ] ] ",
"% % % % % % % % % % % % % % % % % % % { ] ] ] a / { % % [ 5 1 1 6 1 1 [ [ [ [ [ 1 1 6 1 1 [ [ % % % % % % % % % % % 0 / ] ] ] ] ",
"% % % % % % % % % % % % % % % % % % % { ] ] ] a / { % % [ 5 1 1 6 1 1 [ [ [ [ [ 1 1 6 1 1 [ [ % % % % % % % % % % % 0 / ] ] ] ] ",
"% % % % % % % % % % % % % % % % % % % { ] ] ] a / { % % [ 5 1 1 6 1 1 [ [ [ [ [ 1 1 6 1 1 [ [ % % % % % % % % % % % 0 / ] ] ] ] ",
"% % % % % % % % % % % % % % % % % % % { ] ] ] a / { % % [ 5 1 1 6 1 1 [ [ [ [ [ 1 1 6 1 1 [ [ % % % % % % % % % % % 0 / ] ] ] ] ",
"% % % % % % % % % % % % % % % % % % % { ] ] ] a / { % % [ 5 1 1 6 1 1 [ [ [ [ [ 1 1 6 1 1 [ [ % % % % % % % % % % % e / ] ] ] ] ",
"% % % % % % % % % % % % % % % % % % % { ] ] ] a / { % % [ [ 1 1 1 1 1 [ [ [ [ [ 1 1 1 1 1 [ [ % % % % % % % % % % % e / ] ] ] ] ",
"% % % % % % % % % % % % % % % % % % % { ] ] ] a / { % % [ [ 1 1 1 1 1 [ [ f [ [ 1 1 1 1 1 [ [ % % % % % % % % % % % e / ] ] ] ] ",
"% % % % % % % % % % % % % % % % % % % { ] ] ] a / < % % % [ 1 1 1 1 1 [ [ f [ [ 1 1 1 1 1 [ [ % % % % % % % % % % % g / ] ] ] ] ",
"% % % % % % % % % % % % % % % % % % % { ] ] ] a ] < < < { h 1 1 1 1 1 i i j j h 1 1 1 1 1 k 0 e e e e e e l l m n n n ] ] ] ] ] ",
"% % % % % % % % % % % % % % % % % % % { ] ] ] a ] ] ] ] ] ] o p p p p o ] ] ] ] o o p p p q / / / / / / | | | / / / ] ] ] ] ] ] ",
"% % % % % % % % % % % % % % % % % % % { ] ] ] r a a ( ( ( _ s t u u u ( ^ ] ] ] ] o o o ] ] ] ] ] ] ] ( 4 ( ( 4 ( ( ( ( ] ] ] ] ",
"% % % % % % % % % % % % % % % % % % % { ] ] ] a ] ] ] ] ] ] ] ] ] ] ] ] ] ] ] ] ] ] ] ] ] ] ] ] ] ] ] ] ] ] ] ] ] ] ] ] ] ] ] ] ",
"% % % % % % % % % % % % % % % % % % % { ] ] ] a ] ] ] ] ] ] ] ] o o ] ] ] ] ] ] ] ] o o ] ] ] ] ] ] ] ] ] ] ] ] ] ] ] ] ] ] ] ] ",
"% % % % % % % % % % % % % % % % % % % { ] ] ] a ] / / / / / q q q q q / / / / ] q q q q q / / / ] ] ] ] ] ] ] ] ] ] ] ] ] ] ] ] ",
"% % % % % % % % % % % % % % % % % % % { ] ] ] a / v w x y z 1 1 1 1 1 A B C D E 1 1 1 1 1 B F G ] ] ] ] ] H y x y I I J J J J J ",
"% % % % % % % % % % % % % % % % % % % { ] ] ] a / x K L [ [ 1 1 6 1 1 M N O P Q 1 1 6 1 1 O f G / ] ] ] ] R S T L L L L L L L L ",
"% % % % % % % % % % % % % % % % % % % { ] ] ] a / w T L [ [ 1 1 6 1 1 d [ [ [ 5 1 1 6 1 1 [ [ U / ] ] ] ] y L L L L L L L L L L ",
"% % % % % % % % % % % % % % % % % % % { ] ] ] a V x L L [ [ 1 1 6 1 1 5 [ L [ 5 1 1 6 1 1 [ [ U / ] ] ( ] y L L L L L L L L L L ",
"% % % % % % % % % % % % % % % % % % % { ] ] ] a W y L L L [ 1 1 1 1 1 5 [ L [ [ 1 1 1 1 1 [ [ U / ] ] _ ] x L L L L L L L L L L ",
"% % % % % % % % % % % % % % % % % % % { ] ] ] a W I L L L [ 1 1 1 1 1 [ [ L L [ 1 1 1 1 1 [ L U / ] ] ( X I L L L L L L L L L L ",
"% % % % % % % % % % % % % % % % % % % % ] ] ] Y ] J L L L [ [ [ [ [ [ [ L L L [ [ [ [ [ [ [ L U / ] ] ( X J L L L L L L L L L L ",
"% % % % % % % % % % % % % % % % % % % % % , ) Z `  .L L L L ....[ [ L L L L L L ........L L L  .+.~ ~ @.,  .L L L L L L L L L L ",
"% % % % % % % % % % % % % % % % % % % % % > > #.$. .L L L L L L L L L L L L L L L L L L L L L  .~ , , %.>  .L L L L L L L L L L ",
"% % % % % % % % % % % % % % % % % % % % % ; > #.,  .L L L L L L L L L L L L L L L L L L L L L  .~ , > &.>  .L L L L L L L L L L ",
"% % % % % % % % % % % % % % % % % % % % % % % *.=.-.L L L L L L L L L L L L L L L L L L L L L -.;.&.>.>.&.-.L L L L L L L L L L ",
",.,.,.,.,.,.,.,.,.,.,.,.,.,.,.,.,.,.,.'.% % % % ).!.~.~.~.~.{.{.~.~.~.~.~.~.~.~.~.{.~.~.~.~.~.]. .^.^.T T !././././././././././.",
"# # # #   # # # # # # # # # # # # # % (.(.(._._.% :.<.<.<./.[.}.}.}.}.}.}./././././.~.|.|.|.|.1.2.T T T T 3.3.3.3.3.3.3.3.3.4.3.",
"# # # #   # # # # # # # # # # :.5.5.5.<.<.<.<.<.<.5.5.5.5.5.5.5.5.5.5.5.5.5.5.5.5.5.5.5.5.5.:.:.6.7.7.7.7.:.:.:.:.:.:.:.:.3.4.3."};
