/* XPM */
static char * texture_base_xpm[] = {
"64 64 49 1",
" 	c #1A0F64",
".	c #1A1065",
"+	c #191369",
"@	c #190F60",
"#	c #191163",
"$	c #18166C",
"%	c #180F57",
"&	c #1A0F67",
"*	c #1A1068",
"=	c #1A136D",
"-	c #1A116A",
";	c #191672",
">	c #1A126D",
",	c #1A0F6A",
"'	c #1A116D",
")	c #1A1675",
"!	c #1A1373",
"~	c #1B0F6E",
"{	c #1C0F75",
"]	c #1B167E",
"^	c #172698",
"/	c #1C1B91",
"(	c #191C82",
"_	c #1E0F81",
":	c #1434BC",
"<	c #4857BF",
"[	c #626EC1",
"}	c #1A1B86",
"|	c #1A229C",
"1	c #1927A4",
"2	c #1B1278",
"3	c #182AAA",
"4	c #6571C1",
"5	c #151B6E",
"6	c #131B63",
"7	c #121B5F",
"8	c #161B75",
"9	c #181B7D",
"0	c #4E5CBF",
"a	c #17166B",
"b	c #191471",
"c	c #16176C",
"d	c #141B68",
"e	c #151766",
"f	c #1330AC",
"g	c #191572",
"h	c #15268F",
"i	c #17125E",
"j	c #151C70",
"   .+++++. @ @@@@@@#$$+++#@%%%%%%%%%%%%%%%%%%%%%%%%%%%%%%%%@@@@@",
"&&&*=====*&&&&&&&&&-;;;;;>&&&&&&&&&&&&&&&&&&&&&&&&&&&&&&&&&&&&&&",
"&&&*=----*&&&&&&&&&-;;;;;>&&&&&&&&&&&&&&&&&&&&&&&&&&&&&&&&&&&&&&",
",,,')))))!~~~~~{{{{]^^^^^/{{{{{{{{{{{{{{{{{{{{{{{{{{{{{{{{{{{{{{",
"~~~!(((((]{{{{{{___/:::::/{{{{{{{{{{{{{{{{{{{{{{{{{{{{{{{{{{{{{{",
"~~~]^^^^:/_________/:::::/__{{{{{{{{{{{{{{{{{{{{{{{{{{{{{{{{{{{{",
"{{_/:::::/_________/:::::/______________________________________",
"___/:::::/_________/:::<:/______________________________________",
"___/:::::/_________/:::<:/______________________________________",
"___/:::::/_________/:::[:/______________________________________",
"___/:::::/_________/:::<:/______________________________________",
"___/:::::/_________/:::<:/______________________________________",
"___/:::::/_________/:::<:/______________________________________",
"___/:::::}_________|:::<:/______________________________________",
"___/:::::}_________1:::::/______________________________________",
"___/:::::}2________1:::::/______________________________________",
"////:::::}}}}///|113:::::/________________________________//////",
":::::::::::::::::::::::::/________________________________/:::::",
":::::<<[[<<<<<<<<::::::::/________________________________/:::::",
":::::::::::::::::::::::::/________________________________/:::4:",
":::::::::::::::::::::::::/________________________________/:::4:",
":::::::::::::::::::::::::/________________________________/:::4:",
"5667899}}///////////:::::/________________________________/:::0:",
"ab222_2222222______/:::::/________________________________/:::0:",
"b__________________/:::::/________________________________/:::0:",
"___________________/:::<:/________________________________/:::0:",
"___________________/:::<:/________________________________/:::0:",
"___________________/:::[:/________________________________/:::::",
"___________________/:::[:/________________________________/:::::",
"___________________/:::[:/________________________________/:::::",
"___________________/:::<:/________________________________/:::::",
"___________________/:::<:/________________________________/:::::",
"___________________/:::0:/________________________________/:::::",
"c__________________/:::0:/________________________________/:::::",
"___________________/:::0:/________________________________/:::::",
"___________________/:::0:/________________________________/:::::",
"___________________/:::0:/________________________________/:::::",
"___________________/:::0:/________________________________/:::::",
"___________________/:::0:/________________________________/:::::",
"___________________/:::0:/________________________________/:::::",
"___________________/:::0:/________________________________|:::::",
"___________________/:::0:/________________________________|:::::",
"___________________/:::0:/________________________________|:::::",
"___________________/:::0:|________________________________1:::::",
"___________________/:::0:|||//////|||/////|////||||||//|111:::::",
"___________________/:::0::::::::::::::::::::::::::::::::::::::::",
"___________________/:::000<<<[[<<<<<<::::::::::::::<4<<4<<<<::::",
"___________________/:::0::::::::::::::::::::::::::::::::::::::::",
"___________________/:::0::::::::::::::::::::::::::::::::::::::::",
"___________________/:::0::::::::::::::::::::::::::::::::::::::::",
"___________________/:::0:665858d55d5d65ddddddd8}:::::785899}}}}}",
"___________________/:::0:5a_______222baaaeeeab_}:::::db2________",
"___________________/:::0:62____________________/:::::8__________",
"___________________/:::0:5_____________________/:::<:8__________",
"___________________/:::0:8_____________________/:::[:5__________",
"___________________/:::0:9_____________________/:::<f9__________",
"___________________/:::0:}_____________________/:::<f}__________",
"___________________/:::0:/_____________________/:::<:/__________",
"___________________/:::0:/_____________________/:::<:/__________",
"___________________/:::0:/_____________________/:::::/__________",
"___________________/:::0:/_____________________/:::::/__________",
"&&&&&&&&&&&&&&&&&&&ghhhhhg&&&&&&&&&&&&&&&&&&&&&ghhhhhg&&&&&&&&&&",
"&&&&&&&&&&&&&&&&&&&ghhhhhg&&&&&&&&&&&&&&&&&&&&&ghhhhhg&&&&&&&&&&",
"%%%%%%%%%%%%%%%%%%%ijjjjji%%%%%%%%%%%%%%%%%%%%%ijjjjji%%%%%%%%%%"};
