/* XPM */
static char * texture_base_xpm[] = {
"64 64 23 1",
" 	c #1E0F81",
".	c #1C1B91",
"+	c #1434BC",
"@	c #4857BF",
"#	c #626EC1",
"$	c #1A1B86",
"%	c #1A229C",
"&	c #1927A4",
"*	c #1B1278",
"=	c #182AAA",
"-	c #6571C1",
";	c #151B6E",
">	c #131B63",
",	c #121B5F",
"'	c #161B75",
")	c #181B7D",
"!	c #4E5CBF",
"~	c #17166B",
"{	c #191471",
"]	c #16176C",
"^	c #141B68",
"/	c #151766",
"(	c #1330AC",
"   .+++++.         .+++++.                                      ",
"   .+++++.         .+++++.                                      ",
"   .+++++.         .+++++.                                      ",
"   .+++++.         .+++++.                                      ",
"   .+++++.         .+++++.                                      ",
"   .+++++.         .+++++.                                      ",
"   .+++++.         .+++++.                                      ",
"   .+++++.         .+++@+.                                      ",
"   .+++++.         .+++@+.                                      ",
"   .+++++.         .+++#+.                                      ",
"   .+++++.         .+++@+.                                      ",
"   .+++++.         .+++@+.                                      ",
"   .+++++.         .+++@+.                                      ",
"   .+++++$         %+++@+.                                      ",
"   .+++++$         &+++++.                                      ",
"   .+++++$*        &+++++.                                      ",
"....+++++$$$$...%&&=+++++.                                ......",
"+++++++++++++++++++++++++.                                .+++++",
"+++++@@##@@@@@@@@++++++++.                                .+++++",
"+++++++++++++++++++++++++.                                .+++-+",
"+++++++++++++++++++++++++.                                .+++-+",
"+++++++++++++++++++++++++.                                .+++-+",
";>>,'))$$...........+++++.                                .+++!+",
"~{*** *******      .+++++.                                .+++!+",
"{                  .+++++.                                .+++!+",
"                   .+++@+.                                .+++!+",
"                   .+++@+.                                .+++!+",
"                   .+++#+.                                .+++++",
"                   .+++#+.                                .+++++",
"                   .+++#+.                                .+++++",
"                   .+++@+.                                .+++++",
"                   .+++@+.                                .+++++",
"                   .+++!+.                                .+++++",
"]                  .+++!+.                                .+++++",
"                   .+++!+.                                .+++++",
"                   .+++!+.                                .+++++",
"                   .+++!+.                                .+++++",
"                   .+++!+.                                .+++++",
"                   .+++!+.                                .+++++",
"                   .+++!+.                                .+++++",
"                   .+++!+.                                %+++++",
"                   .+++!+.                                %+++++",
"                   .+++!+.                                %+++++",
"                   .+++!+%                                &+++++",
"                   .+++!+%%%......%%%.....%....%%%%%%..%&&&+++++",
"                   .+++!++++++++++++++++++++++++++++++++++++++++",
"                   .+++!!!@@@##@@@@@@++++++++++++++@-@@-@@@@++++",
"                   .+++!++++++++++++++++++++++++++++++++++++++++",
"                   .+++!++++++++++++++++++++++++++++++++++++++++",
"                   .+++!++++++++++++++++++++++++++++++++++++++++",
"                   .+++!+>>;';'^;;^;^>;^^^^^^^'$+++++,';'))$$$$$",
"                   .+++!+;~       ***{~~~///~{ $+++++^{*        ",
"                   .+++!+>*                    .+++++'          ",
"                   .+++!+;                     .+++@+'          ",
"                   .+++!+'                     .+++#+;          ",
"                   .+++!+)                     .+++@()          ",
"                   .+++!+$                     .+++@($          ",
"                   .+++!+.                     .+++@+.          ",
"                   .+++!+.                     .+++@+.          ",
"                   .+++!+.                     .+++++.          ",
"                   .+++!+.                     .+++++.          ",
"                   .+++++.                     .+++++.          ",
"                   .+++++.                     .+++++.          ",
"                   .+++++.                     .+++++.          "};
