/* XPM */
static char * texture_north_xpm[] = {
"64 64 122 2",
"  	c #14095C",
". 	c #140A5C",
"+ 	c #140C5F",
"@ 	c #150F68",
"# 	c #160B62",
"$ 	c #160A62",
"% 	c #130959",
"& 	c #181478",
"* 	c #1A0F6C",
"= 	c #1A0E6A",
"- 	c #190C6D",
"; 	c #190D6E",
"> 	c #1C1C92",
", 	c #1C1177",
"' 	c #1C0F75",
") 	c #1E0F81",
"! 	c #1E1385",
"~ 	c #1E1183",
"{ 	c #1D1689",
"] 	c #1A26A1",
"^ 	c #172EAF",
"/ 	c #1733B0",
"( 	c #1631B6",
"_ 	c #1634B6",
": 	c #1533B9",
"< 	c #1C1B91",
"[ 	c #1434BC",
"} 	c #4857BF",
"| 	c #1446BF",
"1 	c #4761C1",
"2 	c #6075C3",
"3 	c #466AC3",
"4 	c #1A1B86",
"5 	c #1A229C",
"6 	c #1E2E86",
"7 	c #1927A4",
"8 	c #1453C1",
"9 	c #1B1278",
"0 	c #08EDFC",
"a 	c #182AAA",
"b 	c #626EC1",
"c 	c #6378C3",
"d 	c #1E3F8B",
"e 	c #B3EEF5",
"f 	c #151B6E",
"g 	c #131B63",
"h 	c #121B5F",
"i 	c #161B75",
"j 	c #181B7D",
"k 	c #1C3796",
"l 	c #4D65C1",
"m 	c #17166B",
"n 	c #191471",
"o 	c #1E4B90",
"p 	c #1A3BA0",
"q 	c #193EA8",
"r 	c #1C3395",
"s 	c #1A37A0",
"t 	c #1C459A",
"u 	c #1C489B",
"v 	c #1A4BA4",
"w 	c #194DAC",
"x 	c #1443BE",
"y 	c #144FC0",
"z 	c #1451C0",
"A 	c #4C6DC3",
"B 	c #5F7BC5",
"C 	c #456EC5",
"D 	c #4668C3",
"E 	c #13376D",
"F 	c #153375",
"G 	c #15427B",
"H 	c #143370",
"I 	c #13336B",
"J 	c #15457D",
"K 	c #14507F",
"L 	c #1A378C",
"M 	c #1B4084",
"N 	c #1B2F7E",
"O 	c #193078",
"P 	c #173172",
"Q 	c #174179",
"R 	c #141B68",
"S 	c #143EBD",
"T 	c #1439BC",
"U 	c #1330AC",
"V 	c #213CBC",
"W 	c #1D168A",
"X 	c #1B37BA",
"Y 	c #1534BB",
"Z 	c #1E2283",
"` 	c #1534B9",
" .	c #1F39B7",
"..	c #213AB7",
"+.	c #1534BC",
"@.	c #3646A4",
"#.	c #1D269C",
"$.	c #182AA9",
"%.	c #162FB3",
"&.	c #190E70",
"*.	c #1B127D",
"=.	c #1C1789",
"-.	c #16289F",
";.	c #1C0E78",
">.	c #1D0F7D",
",.	c #1C0F79",
"'.	c #1A0D73",
").	c #1B0F6D",
"!.	c #1A106D",
"~.	c #1A116C",
"{.	c #191777",
"].	c #190E66",
"^.	c #1A0F6A",
"/.	c #1A0E6D",
"(.	c #1B0F70",
"_.	c #1C0E7B",
":.	c #1D117F",
"<.	c #180D65",
"[.	c #170C62",
"}.	c #1A0F67",
"|.	c #1A0F69",
"1.	c #1A1069",
"      . + + @ @ @ # $ $ $ $ $ $ $ $ % . + + + & & * = = = = = - - - - - - - - - - - - = = = = = = - - - - - - - - - = = = = = = ",
"      . @ @ & & & # $ $ $ $ $ $ $ $   # @ @ @ & & * = = = = = = = = = = = = = = = = = = = = = = = = = = = = = = = = = = = = = = ",
"      . @ @ & & & # $ $ $ $ $ $ $ $ $ ; & & & & > , ' ' ' ' ' ' ' ' ' ' ' ' ' ' ' ' ' ' ' ' ' ' ' ' ' ' ' ' ' ' ' ' ' ' ' ' ' ' ",
") ) ) ! > > > > > ~ ) ) ) ) ) ) ) ) ) ~ > > > > > ! ) ) ' ' ' ' ' ' ' ' ' ' ' ' ' ' ' ' ' ) ) ' ' ' ' ' ' ' ' ' ' ' ' ' ' ) ) ) ",
") ) ) { ] ] ] ] ^ ! ) ) ) ) ) ) ) ) ) { ] ] ] ] / { ) ) ) ) ) ) ) ) ) ) ) ) ) ) ) ) ) ) ) ) ) ) ) ) ) ) ) ) ) ) ) ) ) ) ) ) ) ) ",
") ) ) { ] ] ] ^ ( { ) ) ) ) ) ) ) ) ) { ] ] ] ^ _ { ) ) ) ) ) ) ) ) ) ) ) ) ) ) ) ) ) ) ) ) ) ) ) ) ) ) ) ) ) ) ) ) ) ) ) ) ) ) ",
") ) ) { ] ^ ( ( ( { ) ) ) ) ) ) ) ) ) { ] ^ ( : _ { ) ) ) ) ) ) ) ) ) ) ) ) ) ) ) ) ) ) ) ) ) ) ) ) ) ) ) ) ) ) ) ) ) ) ) ) ) ) ",
") ) ) < [ [ [ [ [ < ) ) ) ) ) ) ) ) ) < [ [ [ } | < ) ) ) ) ) ) ) ) ) ) ) ) ) ) ) ) ) ) ) ) ) ) ) ) ) ) ) ) ) ) ) ) ) ) ) ) ) ) ",
") ) ) < [ [ [ [ [ < ) ) ) ) ) ) ) ) ) < [ [ [ 1 | < ) ) ) ) ) ) ) ) ) ) ) ) ) ) ) ) ) ) ) ) ) ) ) ) ) ) ) ) ) ) ) ) ) ) ) ) ) ) ",
") ) ) < [ [ [ [ [ < ) ) ) ) ) ) ) ) ) < [ [ [ 2 | < ) ) ) ) ) ) ) ) ) ) ) ) ) ) ) ) ) ) ) ) ) ) ) ) ) ) ) ) ) ) ) ) ) ) ) ) ) ) ",
") ) ) < [ [ [ [ [ < ) ) ) ) ) ) ) ) ) < [ [ [ 1 | < ) ) ) ) ) ) ) ) ) ) ) ) ) ) ) ) ) ) ) ) ) ) ) ) ) ) ) ) ) ) ) ) ) ) ) ) ) ) ",
") ) ) < [ [ [ [ [ < ) ) ) ) ) ) ) ) ) < [ [ [ 3 | < ) ) ) ) ) ) ) ) ) ) ) ) ) ) ) ) ) ) ) ) ) ) ) ) ) ) ) ) ) ) ) ) ) ) ) ) ) ) ",
") ) ) < [ [ [ [ [ < ) ) ) ) ) ) ) ) ) < [ [ [ 3 | < ) ) ) ) ) ) ) ) ) ) ) ) ) ) ) ) ) ) ) ) ) ) ) ) ) ) ) ) ) ) ) ) ) ) ) ) ) ) ",
") ) ) < [ [ [ [ [ 4 ) ) ) ) ) ) ) ) ) 5 [ [ [ 1 | < ) ) ) ) ) 6 6 6 6 ) ) ) ) ) ) 6 6 6 6 ) ) ) ) ) ) ) ) ) ) ) ) ) ) ) ) ) ) ) ",
") ) ) < [ [ [ [ [ 4 ) ) ) ) ) ) ) ) ) 7 [ [ [ | 8 < ) ) ) 6 6 6 6 6 6 6 ) ) ) 6 6 6 6 6 6 6 ) ) ) ) ) ) ) ) ) ) ) ) ) ) ) ) ) ) ",
") ) ) < [ [ [ [ [ 4 9 ) ) ) ) ) ) ) ) 7 [ [ [ [ | < ) ) ) 6 0 0 0 0 0 6 ) ) ) 6 0 0 0 0 0 6 ) ) ) ) ) ) ) ) ) ) ) ) ) ) ) ) ) ) ",
"< < < < [ [ [ [ [ 4 4 4 4 < < < 5 7 7 a [ [ [ [ | < ) ) ) 6 0 0 0 0 0 6 ) ) ) 6 0 0 0 0 0 6 ) ) ) ) ) ) ) ) ) ) ) ) < < < < < < ",
"[ [ [ [ [ [ [ [ [ [ [ [ [ [ [ [ [ [ [ [ [ [ [ [ | < ) ) ) 6 0 0 0 0 0 6 ) ) 6 6 0 0 0 0 0 6 6 ) ) ) ) ) ) ) ) ) ) ) < [ [ [ [ [ ",
"[ [ [ [ [ } } b b } } } } } } } } [ [ [ [ [ [ [ | < ) ) ) 6 0 0 0 0 0 6 6 ) 6 6 0 0 0 0 0 6 6 ) ) ) ) ) ) ) ) ) ) ) < [ [ [ [ [ ",
"[ [ [ [ [ [ [ [ [ [ [ [ [ [ [ [ [ [ [ [ [ [ [ [ | < ) ) 6 6 0 0 0 0 0 6 6 ) 6 6 0 0 0 0 0 6 6 ) ) ) ) ) ) ) ) ) ) ) < [ [ [ c [ ",
"[ [ [ [ [ [ [ [ [ [ [ [ [ [ [ [ [ [ [ [ [ [ [ [ | < ) ) 6 d 0 0 e 0 0 d 6 ) 6 6 0 0 e 0 0 6 6 ) ) ) ) ) ) ) ) ) ) ) < [ [ [ c [ ",
"[ [ [ [ [ [ [ [ [ [ [ [ [ [ [ [ [ [ [ [ [ [ [ [ | < ) ) 6 d 0 0 e 0 0 d 6 6 6 d 0 0 e 0 0 6 6 ) ) ) ) ) ) ) ) ) ) ) < | [ [ c [ ",
"f g g h i j j 4 4 < < < < < < < < < < < [ [ [ [ | < ) ) 6 d 0 0 e 0 0 d 6 6 6 d 0 0 e 0 0 6 6 ) ) ) ) ) ) ) ) ) ) ) k | [ [ l [ ",
"m n 9 9 9 ) 9 9 9 9 9 9 9 ) ) ) ) ) ) < [ [ [ [ | < ) ) 6 d 0 0 e 0 0 d 6 6 6 d 0 0 e 0 0 d 6 ) ) ) ) ) ) ) ) ) ) ) k | [ [ l [ ",
"n ) ) ) ) ) ) ) ) ) ) ) ) ) ) ) ) ) ) < [ [ [ [ | < ) ) 6 d 0 0 e 0 0 d 6 6 6 d 0 0 e 0 0 d 6 ) ) ) ) ) ) ) ) ) ) ) k | [ [ l [ ",
") ) ) ) ) ) ) ) ) ) ) ) ) ) ) ) ) ) ) < [ [ [ 1 | < ) ) 6 o 0 0 e 0 0 d 6 6 6 d 0 0 e 0 0 d 6 ) ) ) ) ) ) ) ) ) ) ) k | [ [ l [ ",
") ) ) ) ) ) ) ) ) ) ) ) ) ) ) ) ) ) ) < [ [ [ 1 | < ) ) 6 o 0 0 e 0 0 d 6 6 6 d 0 0 e 0 0 d 6 ) ) ) ) ) ) ) ) ) ) ) k | [ [ l [ ",
") ) ) ) ) ) ) ) ) ) ) ) ) ) ) ) ) ) ) < [ [ [ 2 | < ) ) 6 o 0 0 e 0 0 o 6 6 6 d 0 0 e 0 0 d 6 ) ) ) ) ) ) ) ) ) ) ) k | [ [ [ [ ",
") ) ) ) ) ) ) ) ) ) ) ) ) ) ) ) ) ) ) < [ [ [ 2 | < ) ) 6 o 0 0 e 0 0 o 6 6 6 d 0 0 e 0 0 d 6 ) ) ) ) ) ) ) ) ) ) ) k | [ [ [ [ ",
") ) ) ) ) ) ) ) ) ) ) ) ) ) ) ) ) ) ) < [ [ [ 2 | < ) ) 6 o 0 0 e 0 0 o 6 6 6 d 0 0 e 0 0 o 6 ) ) ) ) ) ) ) ) ) ) ) k | [ [ [ [ ",
") ) ) ) ) ) ) ) ) ) ) ) ) ) ) ) ) ) ) < [ [ [ 1 | < ) ) 6 o 0 0 e 0 0 d 6 6 6 o 0 0 e 0 0 o 6 ) ) ) ) ) ) ) ) ) ) ) k | [ [ [ [ ",
") ) ) ) ) ) ) ) ) ) ) ) ) ) ) ) ) ) ) < [ [ [ 1 | < ) ) 6 o 0 0 e 0 0 d 6 6 6 o 0 0 e 0 0 o 6 ) ) ) ) ) ) ) ) ) ) ) k | [ [ [ [ ",
") ) ) ) ) ) ) ) ) ) ) ) ) ) ) ) ) ) ) < [ [ [ l | < ) ) 6 d 0 0 e 0 0 d 6 6 6 d 0 0 e 0 0 d 6 ) ) ) ) ) ) ) ) ) ) ) k | [ [ [ [ ",
") ) ) ) ) ) ) ) ) ) ) ) ) ) ) ) ) ) ) < [ [ [ l | < ) ) 6 d 0 0 e 0 0 d 6 6 6 d 0 0 e 0 0 d 6 ) ) ) ) ) ) ) ) ) ) ) k | [ [ [ [ ",
") ) ) ) ) ) ) ) ) ) ) ) ) ) ) ) ) ) ) < [ [ [ l | < ) ) 6 d 0 0 e 0 0 d 6 6 6 6 0 0 e 0 0 d 6 ) ) ) ) ) ) ) ) ) ) ) k | [ [ [ [ ",
") ) ) ) ) ) ) ) ) ) ) ) ) ) ) ) ) ) ) < [ [ [ l | < ) ) 6 d 0 0 e 0 0 6 6 6 6 6 0 0 e 0 0 d 6 ) ) ) ) ) ) ) ) ) ) ) k | [ [ [ [ ",
") ) ) ) ) ) ) ) ) ) ) ) ) ) ) ) ) ) ) < [ [ [ l | < ) ) 6 d 0 0 e 0 0 6 6 6 6 6 0 0 e 0 0 6 6 ) ) ) ) ) ) ) ) ) ) ) k | [ [ [ [ ",
") ) ) ) ) ) ) ) ) ) ) ) ) ) ) ) ) ) ) < [ [ [ l | < ) ) 6 d 0 0 e 0 0 6 6 6 6 6 0 0 e 0 0 6 6 ) ) ) ) ) ) ) ) ) ) ) k | [ [ [ [ ",
") ) ) ) ) ) ) ) ) ) ) ) ) ) ) ) ) ) ) < [ [ [ l | < ) ) 6 d 0 0 e 0 0 6 6 6 6 6 0 0 e 0 0 6 6 ) ) ) ) ) ) ) ) ) ) ) k | [ [ [ [ ",
") ) ) ) ) ) ) ) ) ) ) ) ) ) ) ) ) ) ) < [ [ [ l | < ) ) 6 d 0 0 e 0 0 6 6 6 6 6 0 0 e 0 0 6 6 ) ) ) ) ) ) ) ) ) ) ) k | [ [ [ [ ",
") ) ) ) ) ) ) ) ) ) ) ) ) ) ) ) ) ) ) < [ [ [ l | < ) ) 6 d 0 0 e 0 0 6 6 6 6 6 0 0 e 0 0 6 6 ) ) ) ) ) ) ) ) ) ) ) p | [ [ [ [ ",
") ) ) ) ) ) ) ) ) ) ) ) ) ) ) ) ) ) ) < [ [ [ l | < ) ) 6 6 0 0 0 0 0 6 6 6 6 6 0 0 0 0 0 6 6 ) ) ) ) ) ) ) ) ) ) ) p | [ [ [ [ ",
") ) ) ) ) ) ) ) ) ) ) ) ) ) ) ) ) ) ) < [ [ [ l | < ) ) 6 6 0 0 0 0 0 6 6 ) 6 6 0 0 0 0 0 6 6 ) ) ) ) ) ) ) ) ) ) ) p | [ [ [ [ ",
") ) ) ) ) ) ) ) ) ) ) ) ) ) ) ) ) ) ) < [ [ [ l | 5 ) ) ) 6 0 0 0 0 0 6 6 ) 6 6 0 0 0 0 0 6 6 ) ) ) ) ) ) ) ) ) ) ) q | [ [ [ [ ",
") ) ) ) ) ) ) ) ) ) ) ) ) ) ) ) ) ) ) < [ [ [ l [ 5 5 5 < r 0 0 0 0 0 s s < < r 0 0 0 0 0 t k p p p p p p u u v w w w [ [ [ [ [ ",
") ) ) ) ) ) ) ) ) ) ) ) ) ) ) ) ) ) ) < [ [ [ l [ [ [ [ [ [ x y y y y x [ [ [ [ x x y y y z | | | | | | 8 8 8 | | | [ [ [ [ [ [ ",
") ) ) ) ) ) ) ) ) ) ) ) ) ) ) ) ) ) ) < [ [ [ A l l 1 1 1 2 B C D D D 1 } [ [ [ [ x x x [ [ [ [ [ [ [ 1 c 1 1 c 1 1 1 1 [ [ [ [ ",
") ) ) ) ) ) ) ) ) ) ) ) ) ) ) ) ) ) ) < [ [ [ l [ [ [ [ [ [ [ [ [ [ [ [ [ [ [ [ [ [ [ [ [ [ [ [ [ [ [ [ [ [ [ [ [ [ [ [ [ [ [ [ ",
") ) ) ) ) ) ) ) ) ) ) ) ) ) ) ) ) ) ) < [ [ [ l [ [ [ [ [ [ [ [ x x [ [ [ [ [ [ [ [ x x [ [ [ [ [ [ [ [ [ [ [ [ [ [ [ [ [ [ [ [ ",
") ) ) ) ) ) ) ) ) ) ) ) ) ) ) ) ) ) ) < [ [ [ l [ | | | | | z z z z z | | | | [ z z z z z | | | [ [ [ [ [ [ [ [ [ [ [ [ [ [ [ [ ",
") ) ) ) ) ) ) ) ) ) ) ) ) ) ) ) ) ) ) < [ [ [ l | E g f i F 0 0 0 0 0 G H I J K 0 0 0 0 0 H i L [ [ [ [ [ h i f i j j 4 4 4 4 4 ",
") ) ) ) ) ) ) ) ) ) ) ) ) ) ) ) ) ) ) < [ [ [ l | f m ) 6 6 0 0 e 0 0 M N O P Q 0 0 e 0 0 O ) L | [ [ [ [ R n 9 ) ) ) ) ) ) ) ) ",
") ) ) ) ) ) ) ) ) ) ) ) ) ) ) ) ) ) ) < [ [ [ l | g 9 ) 6 6 0 0 e 0 0 o 6 6 6 d 0 0 e 0 0 6 6 < | [ [ [ [ i ) ) ) ) ) ) ) ) ) ) ",
") ) ) ) ) ) ) ) ) ) ) ) ) ) ) ) ) ) ) < [ [ [ l S f ) ) 6 6 0 0 e 0 0 d 6 ) 6 d 0 0 e 0 0 6 6 < | [ [ 1 [ i ) ) ) ) ) ) ) ) ) ) ",
") ) ) ) ) ) ) ) ) ) ) ) ) ) ) ) ) ) ) < [ [ [ l T i ) ) ) 6 0 0 0 0 0 d 6 ) 6 6 0 0 0 0 0 6 6 < | [ [ 2 [ f ) ) ) ) ) ) ) ) ) ) ",
") ) ) ) ) ) ) ) ) ) ) ) ) ) ) ) ) ) ) < [ [ [ l T j ) ) ) 6 0 0 0 0 0 6 6 ) ) 6 0 0 0 0 0 6 ) < | [ [ 1 U j ) ) ) ) ) ) ) ) ) ) ",
") ) ) ) ) ) ) ) ) ) ) ) ) ) ) ) ) ) ) { [ [ [ V [ 4 ) ) ) 6 6 6 6 6 6 6 ) ) ) 6 6 6 6 6 6 6 ) < | [ [ 1 U 4 ) ) ) ) ) ) ) ) ) ) ",
") ) ) ) ) ) ) ) ) ) ) ) ) ) ) ) ) ) ) ~ W ^ ( X Y { ) ) ) ) Z Z 6 6 ) ) ) ) ) ) Z Z Z Z ) ) ) { ` : :  .^ { ) ) ) ) ) ) ) ) ) ) ",
") ) ) ) ) ) ) ) ) ) ) ) ) ) ) ) ) ) ) ! W ] ] ..+.{ ) ) ) ) ) ) ) ) ) ) ) ) ) ) ) ) ) ) ) ) ) { : ^ ^ @.] { ) ) ) ) ) ) ) ) ) ) ",
") ) ) ) ) ) ) ) ) ) ) ) ) ) ) ) ) ) ) ! W > ] ..^ { ) ) ) ) ) ) ) ) ) ) ) ) ) ) ) ) ) ) ) ) ) { : ^ ] > ] { ) ) ) ) ) ) ) ) ) ) ",
") ) ) ) ) ) ) ) ) ) ) ) ) ) ) ) ) ) ) ! W W ! #.$.! ) ) ) ) ) ) ) ) ) ) ) ) ) ) ) ) ) ) ) ) ) ! %.> W W > ! ) ) ) ) ) ) ) ) ) ) ",
"- - - - - - - - - - - - - - - - - - - &.& & *.=.-.&.;.;.;.;.>.>.;.;.;.;.;.;.;.;.;.>.;.;.;.;.;.,.=.*.*.& & &.- - - - - - - - - - ",
"$ $ $ $   $ $ $ $ $ $ $ $ $ $ $ $ $ '.).!.!.~.~.{.].^.^.^./.(.= = = = = = - - - - - ;.'.'.'.'._.:.& & & & <.<.<.<.<.<.<.<.<.[.<.",
"$ $ $ $   $ $ $ $ $ $ $ $ $ $ ].}.}.}.|.^.^.^.1.1.}.}.}.}.}.}.}.}.}.}.}.}.}.}.}.}.}.}.}.}.}.].].!.~.~.~.~.].].].].].].].].<.[.<."};
