/* XPM */
static char * texture_north_xpm[] = {
"64 64 44 1",
" 	c #1E0F81",
".	c #1C1B91",
"+	c #1434BC",
"@	c #4857BF",
"#	c #626EC1",
"$	c #1A1B86",
"%	c #1A229C",
"&	c #1E2E86",
"*	c #1927A4",
"=	c #1B1278",
"-	c #08EDFC",
";	c #182AAA",
">	c #6571C1",
",	c #1E3F8B",
"'	c #B9EEF4",
")	c #151B6E",
"!	c #131B63",
"~	c #121B5F",
"{	c #161B75",
"]	c #181B7D",
"^	c #4E5CBF",
"/	c #17166B",
"(	c #191471",
"_	c #1E4B90",
":	c #16176C",
"<	c #1C3395",
"[	c #1A37A0",
"}	c #1443BE",
"|	c #144FC0",
"1	c #6174C3",
"2	c #4666C3",
"3	c #475FC1",
"4	c #153375",
"5	c #15427B",
"6	c #143370",
"7	c #13336B",
"8	c #144277",
"9	c #1B4084",
"0	c #1B2F7E",
"a	c #193078",
"b	c #173172",
"c	c #174179",
"d	c #141B68",
"e	c #1330AC",
"   .+++++.         .+++++.                                      ",
"   .+++++.         .+++++.                                      ",
"   .+++++.         .+++++.                                      ",
"   .+++++.         .+++++.                                      ",
"   .+++++.         .+++++.                                      ",
"   .+++++.         .+++++.                                      ",
"   .+++++.         .+++++.                                      ",
"   .+++++.         .+++@+.                                      ",
"   .+++++.         .+++@+.                                      ",
"   .+++++.         .+++#+.                                      ",
"   .+++++.         .+++@+.                                      ",
"   .+++++.         .+++@+.                                      ",
"   .+++++.         .+++@+.                                      ",
"   .+++++$         %+++@+.     &&&&      &&&&                   ",
"   .+++++$         *+++++.   &&&&&&&   &&&&&&&                  ",
"   .+++++$=        *+++++.   &-----&   &-----&                  ",
"....+++++$$$$...%**;+++++.   &-----&   &-----&            ......",
"+++++++++++++++++++++++++.   &-----&  &&-----&&           .+++++",
"+++++@@##@@@@@@@@++++++++.   &-----&& &&-----&&           .+++++",
"+++++++++++++++++++++++++.  &&-----&& &&-----&&           .+++>+",
"+++++++++++++++++++++++++.  &,--'--,& &&--'--&&           .+++>+",
"+++++++++++++++++++++++++.  &,--'--,&&&,--'--&&           .+++>+",
")!!~{]]$$...........+++++.  &,--'--,&&&,--'--&&           .+++^+",
"/(=== =======      .+++++.  &,--'--,&&&,--'--,&           .+++^+",
"(                  .+++++.  &,--'--,&&&,--'--,&           .+++^+",
"                   .+++@+.  &_--'--,&&&,--'--,&           .+++^+",
"                   .+++@+.  &_--'--,&&&,--'--,&           .+++^+",
"                   .+++#+.  &_--'--_&&&,--'--,&           .+++++",
"                   .+++#+.  &_--'--_&&&,--'--,&           .+++++",
"                   .+++#+.  &_--'--_&&&,--'--_&           .+++++",
"                   .+++@+.  &_--'--,&&&_--'--_&           .+++++",
"                   .+++@+.  &_--'--,&&&_--'--_&           .+++++",
"                   .+++^+.  &,--'--,&&&,--'--,&           .+++++",
":                  .+++^+.  &,--'--,&&&,--'--,&           .+++++",
"                   .+++^+.  &,--'--,&&&&--'--,&           .+++++",
"                   .+++^+.  &,--'--&&&&&--'--,&           .+++++",
"                   .+++^+.  &,--'--&&&&&--'--&&           .+++++",
"                   .+++^+.  &,--'--&&&&&--'--&&           .+++++",
"                   .+++^+.  &,--'--&&&&&--'--&&           .+++++",
"                   .+++^+.  &,--'--&&&&&--'--&&           .+++++",
"                   .+++^+.  &,--'--&&&&&--'--&&           %+++++",
"                   .+++^+.  &&-----&&&&&-----&&           %+++++",
"                   .+++^+.  &&-----&& &&-----&&           %+++++",
"                   .+++^+%   &-----&& &&-----&&           *+++++",
"                   .+++^+%%%.<-----[[..<-----<.%%%%%%..%***+++++",
"                   .+++^++++++}||||}++++}}|||}++++++++++++++++++",
"                   .+++^^^@@@#12333@@++++}}}+++++++@>@@>@@@@++++",
"                   .+++^++++++++++++++++++++++++++++++++++++++++",
"                   .+++^++++++++}}++++++++}}++++++++++++++++++++",
"                   .+++^++++++}}}}}+++++}}}}}+++++++++++++++++++",
"                   .+++^+!!){4-----56748-----6{$+++++~{){]]$$$$$",
"                   .+++^+)/ &&--'--90abc--'--a $+++++d(=        ",
"                   .+++^+!= &&--'--_&&&,--'--&&.+++++{          ",
"                   .+++^+)  &&--'--,& &,--'--&&.+++@+{          ",
"                   .+++^+{   &-----,& &&-----&&.+++#+)          ",
"                   .+++^+]   &-----&&  &-----& .+++@e]          ",
"                   .+++^+$   &&&&&&&   &&&&&&& .+++@e$          ",
"                   .+++^+.    &&&&      &&&&   .+++@+.          ",
"                   .+++^+.                     .+++@+.          ",
"                   .+++^+.                     .+++++.          ",
"                   .+++^+.                     .+++++.          ",
"                   .+++++.                     .+++++.          ",
"                   .+++++.                     .+++++.          ",
"                   .+++++.                     .+++++.          "};
