/* XPM */
static char * texture_north_xpm[] = {
"64 64 123 2",
"  	c #14095C",
". 	c #140A5C",
"+ 	c #140C5F",
"@ 	c #150F68",
"# 	c #160B62",
"$ 	c #160A62",
"% 	c #130959",
"& 	c #181478",
"* 	c #1A0F6C",
"= 	c #1A0E6A",
"- 	c #190C6D",
"; 	c #190D6E",
"> 	c #1C1C92",
", 	c #1C1177",
"' 	c #1C0F75",
") 	c #1E0F81",
"! 	c #1E1385",
"~ 	c #1E1183",
"{ 	c #1D1689",
"] 	c #1A26A1",
"^ 	c #172EAF",
"/ 	c #1733B0",
"( 	c #1631B6",
"_ 	c #1634B6",
": 	c #1533B9",
"< 	c #1C1B91",
"[ 	c #1434BC",
"} 	c #4857BF",
"| 	c #1446BF",
"1 	c #4761C1",
"2 	c #6075C3",
"3 	c #466AC3",
"4 	c #1A1B86",
"5 	c #1A229C",
"6 	c #1E2E86",
"7 	c #1927A4",
"8 	c #1453C1",
"9 	c #1B1278",
"0 	c #08EDFC",
"a 	c #182AAA",
"b 	c #626EC1",
"c 	c #6378C3",
"d 	c #1E3F8B",
"e 	c #B3EEF5",
"f 	c #151B6E",
"g 	c #131B63",
"h 	c #121B5F",
"i 	c #161B75",
"j 	c #181B7D",
"k 	c #1C3796",
"l 	c #4D65C1",
"m 	c #17166B",
"n 	c #191471",
"o 	c #1E4B90",
"p 	c #16176C",
"q 	c #1A3BA0",
"r 	c #193EA8",
"s 	c #1C3395",
"t 	c #1A37A0",
"u 	c #1C459A",
"v 	c #1C489B",
"w 	c #1A4BA4",
"x 	c #194DAC",
"y 	c #1443BE",
"z 	c #144FC0",
"A 	c #1451C0",
"B 	c #4C6DC3",
"C 	c #5F7BC5",
"D 	c #456EC5",
"E 	c #4668C3",
"F 	c #13376D",
"G 	c #153375",
"H 	c #15427B",
"I 	c #143370",
"J 	c #13336B",
"K 	c #15457D",
"L 	c #14507F",
"M 	c #1A378C",
"N 	c #1B4084",
"O 	c #1B2F7E",
"P 	c #193078",
"Q 	c #173172",
"R 	c #174179",
"S 	c #141B68",
"T 	c #143EBD",
"U 	c #1439BC",
"V 	c #1330AC",
"W 	c #213CBC",
"X 	c #1D168A",
"Y 	c #1B37BA",
"Z 	c #1534BB",
"` 	c #1E2283",
" .	c #1534B9",
"..	c #1F39B7",
"+.	c #213AB7",
"@.	c #1534BC",
"#.	c #3646A4",
"$.	c #1D269C",
"%.	c #182AA9",
"&.	c #162FB3",
"*.	c #190E70",
"=.	c #1B127D",
"-.	c #1C1789",
";.	c #16289F",
">.	c #1C0E78",
",.	c #1D0F7D",
"'.	c #1C0F79",
").	c #1A0D73",
"!.	c #1B0F6D",
"~.	c #1A106D",
"{.	c #1A116C",
"].	c #191777",
"^.	c #190E66",
"/.	c #1A0F6A",
"(.	c #1A0E6D",
"_.	c #1B0F70",
":.	c #1C0E7B",
"<.	c #1D117F",
"[.	c #180D65",
"}.	c #170C62",
"|.	c #1A0F67",
"1.	c #1A0F69",
"2.	c #1A1069",
"      . + + @ @ @ # $ $ $ $ $ $ $ $ % . + + + & & * = = = = = - - - - - - - - - - - - = = = = = = - - - - - - - - - = = = = = = ",
"      . @ @ & & & # $ $ $ $ $ $ $ $   # @ @ @ & & * = = = = = = = = = = = = = = = = = = = = = = = = = = = = = = = = = = = = = = ",
"      . @ @ & & & # $ $ $ $ $ $ $ $ $ ; & & & & > , ' ' ' ' ' ' ' ' ' ' ' ' ' ' ' ' ' ' ' ' ' ' ' ' ' ' ' ' ' ' ' ' ' ' ' ' ' ' ",
") ) ) ! > > > > > ~ ) ) ) ) ) ) ) ) ) ~ > > > > > ! ) ) ' ' ' ' ' ' ' ' ' ' ' ' ' ' ' ' ' ) ) ' ' ' ' ' ' ' ' ' ' ' ' ' ' ) ) ) ",
") ) ) { ] ] ] ] ^ ! ) ) ) ) ) ) ) ) ) { ] ] ] ] / { ) ) ) ) ) ) ) ) ) ) ) ) ) ) ) ) ) ) ) ) ) ) ) ) ) ) ) ) ) ) ) ) ) ) ) ) ) ) ",
") ) ) { ] ] ] ^ ( { ) ) ) ) ) ) ) ) ) { ] ] ] ^ _ { ) ) ) ) ) ) ) ) ) ) ) ) ) ) ) ) ) ) ) ) ) ) ) ) ) ) ) ) ) ) ) ) ) ) ) ) ) ) ",
") ) ) { ] ^ ( ( ( { ) ) ) ) ) ) ) ) ) { ] ^ ( : _ { ) ) ) ) ) ) ) ) ) ) ) ) ) ) ) ) ) ) ) ) ) ) ) ) ) ) ) ) ) ) ) ) ) ) ) ) ) ) ",
") ) ) < [ [ [ [ [ < ) ) ) ) ) ) ) ) ) < [ [ [ } | < ) ) ) ) ) ) ) ) ) ) ) ) ) ) ) ) ) ) ) ) ) ) ) ) ) ) ) ) ) ) ) ) ) ) ) ) ) ) ",
") ) ) < [ [ [ [ [ < ) ) ) ) ) ) ) ) ) < [ [ [ 1 | < ) ) ) ) ) ) ) ) ) ) ) ) ) ) ) ) ) ) ) ) ) ) ) ) ) ) ) ) ) ) ) ) ) ) ) ) ) ) ",
") ) ) < [ [ [ [ [ < ) ) ) ) ) ) ) ) ) < [ [ [ 2 | < ) ) ) ) ) ) ) ) ) ) ) ) ) ) ) ) ) ) ) ) ) ) ) ) ) ) ) ) ) ) ) ) ) ) ) ) ) ) ",
") ) ) < [ [ [ [ [ < ) ) ) ) ) ) ) ) ) < [ [ [ 1 | < ) ) ) ) ) ) ) ) ) ) ) ) ) ) ) ) ) ) ) ) ) ) ) ) ) ) ) ) ) ) ) ) ) ) ) ) ) ) ",
") ) ) < [ [ [ [ [ < ) ) ) ) ) ) ) ) ) < [ [ [ 3 | < ) ) ) ) ) ) ) ) ) ) ) ) ) ) ) ) ) ) ) ) ) ) ) ) ) ) ) ) ) ) ) ) ) ) ) ) ) ) ",
") ) ) < [ [ [ [ [ < ) ) ) ) ) ) ) ) ) < [ [ [ 3 | < ) ) ) ) ) ) ) ) ) ) ) ) ) ) ) ) ) ) ) ) ) ) ) ) ) ) ) ) ) ) ) ) ) ) ) ) ) ) ",
") ) ) < [ [ [ [ [ 4 ) ) ) ) ) ) ) ) ) 5 [ [ [ 1 | < ) ) ) ) ) 6 6 6 6 ) ) ) ) ) ) 6 6 6 6 ) ) ) ) ) ) ) ) ) ) ) ) ) ) ) ) ) ) ) ",
") ) ) < [ [ [ [ [ 4 ) ) ) ) ) ) ) ) ) 7 [ [ [ | 8 < ) ) ) 6 6 6 6 6 6 6 ) ) ) 6 6 6 6 6 6 6 ) ) ) ) ) ) ) ) ) ) ) ) ) ) ) ) ) ) ",
") ) ) < [ [ [ [ [ 4 9 ) ) ) ) ) ) ) ) 7 [ [ [ [ | < ) ) ) 6 0 0 0 0 0 6 ) ) ) 6 0 0 0 0 0 6 ) ) ) ) ) ) ) ) ) ) ) ) ) ) ) ) ) ) ",
"< < < < [ [ [ [ [ 4 4 4 4 < < < 5 7 7 a [ [ [ [ | < ) ) ) 6 0 0 0 0 0 6 ) ) ) 6 0 0 0 0 0 6 ) ) ) ) ) ) ) ) ) ) ) ) < < < < < < ",
"[ [ [ [ [ [ [ [ [ [ [ [ [ [ [ [ [ [ [ [ [ [ [ [ | < ) ) ) 6 0 0 0 0 0 6 ) ) 6 6 0 0 0 0 0 6 6 ) ) ) ) ) ) ) ) ) ) ) < [ [ [ [ [ ",
"[ [ [ [ [ } } b b } } } } } } } } [ [ [ [ [ [ [ | < ) ) ) 6 0 0 0 0 0 6 6 ) 6 6 0 0 0 0 0 6 6 ) ) ) ) ) ) ) ) ) ) ) < [ [ [ [ [ ",
"[ [ [ [ [ [ [ [ [ [ [ [ [ [ [ [ [ [ [ [ [ [ [ [ | < ) ) 6 6 0 0 0 0 0 6 6 ) 6 6 0 0 0 0 0 6 6 ) ) ) ) ) ) ) ) ) ) ) < [ [ [ c [ ",
"[ [ [ [ [ [ [ [ [ [ [ [ [ [ [ [ [ [ [ [ [ [ [ [ | < ) ) 6 d 0 0 e 0 0 d 6 ) 6 6 0 0 e 0 0 6 6 ) ) ) ) ) ) ) ) ) ) ) < [ [ [ c [ ",
"[ [ [ [ [ [ [ [ [ [ [ [ [ [ [ [ [ [ [ [ [ [ [ [ | < ) ) 6 d 0 0 e 0 0 d 6 6 6 d 0 0 e 0 0 6 6 ) ) ) ) ) ) ) ) ) ) ) < | [ [ c [ ",
"f g g h i j j 4 4 < < < < < < < < < < < [ [ [ [ | < ) ) 6 d 0 0 e 0 0 d 6 6 6 d 0 0 e 0 0 6 6 ) ) ) ) ) ) ) ) ) ) ) k | [ [ l [ ",
"m n 9 9 9 ) 9 9 9 9 9 9 9 ) ) ) ) ) ) < [ [ [ [ | < ) ) 6 d 0 0 e 0 0 d 6 6 6 d 0 0 e 0 0 d 6 ) ) ) ) ) ) ) ) ) ) ) k | [ [ l [ ",
"n ) ) ) ) ) ) ) ) ) ) ) ) ) ) ) ) ) ) < [ [ [ [ | < ) ) 6 d 0 0 e 0 0 d 6 6 6 d 0 0 e 0 0 d 6 ) ) ) ) ) ) ) ) ) ) ) k | [ [ l [ ",
") ) ) ) ) ) ) ) ) ) ) ) ) ) ) ) ) ) ) < [ [ [ 1 | < ) ) 6 o 0 0 e 0 0 d 6 6 6 d 0 0 e 0 0 d 6 ) ) ) ) ) ) ) ) ) ) ) k | [ [ l [ ",
") ) ) ) ) ) ) ) ) ) ) ) ) ) ) ) ) ) ) < [ [ [ 1 | < ) ) 6 o 0 0 e 0 0 d 6 6 6 d 0 0 e 0 0 d 6 ) ) ) ) ) ) ) ) ) ) ) k | [ [ l [ ",
") ) ) ) ) ) ) ) ) ) ) ) ) ) ) ) ) ) ) < [ [ [ 2 | < ) ) 6 o 0 0 e 0 0 o 6 6 6 d 0 0 e 0 0 d 6 ) ) ) ) ) ) ) ) ) ) ) k | [ [ [ [ ",
") ) ) ) ) ) ) ) ) ) ) ) ) ) ) ) ) ) ) < [ [ [ 2 | < ) ) 6 o 0 0 e 0 0 o 6 6 6 d 0 0 e 0 0 d 6 ) ) ) ) ) ) ) ) ) ) ) k | [ [ [ [ ",
") ) ) ) ) ) ) ) ) ) ) ) ) ) ) ) ) ) ) < [ [ [ 2 | < ) ) 6 o 0 0 e 0 0 o 6 6 6 d 0 0 e 0 0 o 6 ) ) ) ) ) ) ) ) ) ) ) k | [ [ [ [ ",
") ) ) ) ) ) ) ) ) ) ) ) ) ) ) ) ) ) ) < [ [ [ 1 | < ) ) 6 o 0 0 e 0 0 d 6 6 6 o 0 0 e 0 0 o 6 ) ) ) ) ) ) ) ) ) ) ) k | [ [ [ [ ",
") ) ) ) ) ) ) ) ) ) ) ) ) ) ) ) ) ) ) < [ [ [ 1 | < ) ) 6 o 0 0 e 0 0 d 6 6 6 o 0 0 e 0 0 o 6 ) ) ) ) ) ) ) ) ) ) ) k | [ [ [ [ ",
") ) ) ) ) ) ) ) ) ) ) ) ) ) ) ) ) ) ) < [ [ [ l | < ) ) 6 d 0 0 e 0 0 d 6 6 6 d 0 0 e 0 0 d 6 ) ) ) ) ) ) ) ) ) ) ) k | [ [ [ [ ",
"p ) ) ) ) ) ) ) ) ) ) ) ) ) ) ) ) ) ) < [ [ [ l | < ) ) 6 d 0 0 e 0 0 d 6 6 6 d 0 0 e 0 0 d 6 ) ) ) ) ) ) ) ) ) ) ) k | [ [ [ [ ",
") ) ) ) ) ) ) ) ) ) ) ) ) ) ) ) ) ) ) < [ [ [ l | < ) ) 6 d 0 0 e 0 0 d 6 6 6 6 0 0 e 0 0 d 6 ) ) ) ) ) ) ) ) ) ) ) k | [ [ [ [ ",
") ) ) ) ) ) ) ) ) ) ) ) ) ) ) ) ) ) ) < [ [ [ l | < ) ) 6 d 0 0 e 0 0 6 6 6 6 6 0 0 e 0 0 d 6 ) ) ) ) ) ) ) ) ) ) ) k | [ [ [ [ ",
") ) ) ) ) ) ) ) ) ) ) ) ) ) ) ) ) ) ) < [ [ [ l | < ) ) 6 d 0 0 e 0 0 6 6 6 6 6 0 0 e 0 0 6 6 ) ) ) ) ) ) ) ) ) ) ) k | [ [ [ [ ",
") ) ) ) ) ) ) ) ) ) ) ) ) ) ) ) ) ) ) < [ [ [ l | < ) ) 6 d 0 0 e 0 0 6 6 6 6 6 0 0 e 0 0 6 6 ) ) ) ) ) ) ) ) ) ) ) k | [ [ [ [ ",
") ) ) ) ) ) ) ) ) ) ) ) ) ) ) ) ) ) ) < [ [ [ l | < ) ) 6 d 0 0 e 0 0 6 6 6 6 6 0 0 e 0 0 6 6 ) ) ) ) ) ) ) ) ) ) ) k | [ [ [ [ ",
") ) ) ) ) ) ) ) ) ) ) ) ) ) ) ) ) ) ) < [ [ [ l | < ) ) 6 d 0 0 e 0 0 6 6 6 6 6 0 0 e 0 0 6 6 ) ) ) ) ) ) ) ) ) ) ) k | [ [ [ [ ",
") ) ) ) ) ) ) ) ) ) ) ) ) ) ) ) ) ) ) < [ [ [ l | < ) ) 6 d 0 0 e 0 0 6 6 6 6 6 0 0 e 0 0 6 6 ) ) ) ) ) ) ) ) ) ) ) q | [ [ [ [ ",
") ) ) ) ) ) ) ) ) ) ) ) ) ) ) ) ) ) ) < [ [ [ l | < ) ) 6 6 0 0 0 0 0 6 6 6 6 6 0 0 0 0 0 6 6 ) ) ) ) ) ) ) ) ) ) ) q | [ [ [ [ ",
") ) ) ) ) ) ) ) ) ) ) ) ) ) ) ) ) ) ) < [ [ [ l | < ) ) 6 6 0 0 0 0 0 6 6 ) 6 6 0 0 0 0 0 6 6 ) ) ) ) ) ) ) ) ) ) ) q | [ [ [ [ ",
") ) ) ) ) ) ) ) ) ) ) ) ) ) ) ) ) ) ) < [ [ [ l | 5 ) ) ) 6 0 0 0 0 0 6 6 ) 6 6 0 0 0 0 0 6 6 ) ) ) ) ) ) ) ) ) ) ) r | [ [ [ [ ",
") ) ) ) ) ) ) ) ) ) ) ) ) ) ) ) ) ) ) < [ [ [ l [ 5 5 5 < s 0 0 0 0 0 t t < < s 0 0 0 0 0 u k q q q q q q v v w x x x [ [ [ [ [ ",
") ) ) ) ) ) ) ) ) ) ) ) ) ) ) ) ) ) ) < [ [ [ l [ [ [ [ [ [ y z z z z y [ [ [ [ y y z z z A | | | | | | 8 8 8 | | | [ [ [ [ [ [ ",
") ) ) ) ) ) ) ) ) ) ) ) ) ) ) ) ) ) ) < [ [ [ B l l 1 1 1 2 C D E E E 1 } [ [ [ [ y y y [ [ [ [ [ [ [ 1 c 1 1 c 1 1 1 1 [ [ [ [ ",
") ) ) ) ) ) ) ) ) ) ) ) ) ) ) ) ) ) ) < [ [ [ l [ [ [ [ [ [ [ [ [ [ [ [ [ [ [ [ [ [ [ [ [ [ [ [ [ [ [ [ [ [ [ [ [ [ [ [ [ [ [ [ ",
") ) ) ) ) ) ) ) ) ) ) ) ) ) ) ) ) ) ) < [ [ [ l [ [ [ [ [ [ [ [ y y [ [ [ [ [ [ [ [ y y [ [ [ [ [ [ [ [ [ [ [ [ [ [ [ [ [ [ [ [ ",
") ) ) ) ) ) ) ) ) ) ) ) ) ) ) ) ) ) ) < [ [ [ l [ | | | | | A A A A A | | | | [ A A A A A | | | [ [ [ [ [ [ [ [ [ [ [ [ [ [ [ [ ",
") ) ) ) ) ) ) ) ) ) ) ) ) ) ) ) ) ) ) < [ [ [ l | F g f i G 0 0 0 0 0 H I J K L 0 0 0 0 0 I i M [ [ [ [ [ h i f i j j 4 4 4 4 4 ",
") ) ) ) ) ) ) ) ) ) ) ) ) ) ) ) ) ) ) < [ [ [ l | f m ) 6 6 0 0 e 0 0 N O P Q R 0 0 e 0 0 P ) M | [ [ [ [ S n 9 ) ) ) ) ) ) ) ) ",
") ) ) ) ) ) ) ) ) ) ) ) ) ) ) ) ) ) ) < [ [ [ l | g 9 ) 6 6 0 0 e 0 0 o 6 6 6 d 0 0 e 0 0 6 6 < | [ [ [ [ i ) ) ) ) ) ) ) ) ) ) ",
") ) ) ) ) ) ) ) ) ) ) ) ) ) ) ) ) ) ) < [ [ [ l T f ) ) 6 6 0 0 e 0 0 d 6 ) 6 d 0 0 e 0 0 6 6 < | [ [ 1 [ i ) ) ) ) ) ) ) ) ) ) ",
") ) ) ) ) ) ) ) ) ) ) ) ) ) ) ) ) ) ) < [ [ [ l U i ) ) ) 6 0 0 0 0 0 d 6 ) 6 6 0 0 0 0 0 6 6 < | [ [ 2 [ f ) ) ) ) ) ) ) ) ) ) ",
") ) ) ) ) ) ) ) ) ) ) ) ) ) ) ) ) ) ) < [ [ [ l U j ) ) ) 6 0 0 0 0 0 6 6 ) ) 6 0 0 0 0 0 6 ) < | [ [ 1 V j ) ) ) ) ) ) ) ) ) ) ",
") ) ) ) ) ) ) ) ) ) ) ) ) ) ) ) ) ) ) { [ [ [ W [ 4 ) ) ) 6 6 6 6 6 6 6 ) ) ) 6 6 6 6 6 6 6 ) < | [ [ 1 V 4 ) ) ) ) ) ) ) ) ) ) ",
") ) ) ) ) ) ) ) ) ) ) ) ) ) ) ) ) ) ) ~ X ^ ( Y Z { ) ) ) ) ` ` 6 6 ) ) ) ) ) ) ` ` ` ` ) ) ) {  .: : ..^ { ) ) ) ) ) ) ) ) ) ) ",
") ) ) ) ) ) ) ) ) ) ) ) ) ) ) ) ) ) ) ! X ] ] +.@.{ ) ) ) ) ) ) ) ) ) ) ) ) ) ) ) ) ) ) ) ) ) { : ^ ^ #.] { ) ) ) ) ) ) ) ) ) ) ",
") ) ) ) ) ) ) ) ) ) ) ) ) ) ) ) ) ) ) ! X > ] +.^ { ) ) ) ) ) ) ) ) ) ) ) ) ) ) ) ) ) ) ) ) ) { : ^ ] > ] { ) ) ) ) ) ) ) ) ) ) ",
") ) ) ) ) ) ) ) ) ) ) ) ) ) ) ) ) ) ) ! X X ! $.%.! ) ) ) ) ) ) ) ) ) ) ) ) ) ) ) ) ) ) ) ) ) ! &.> X X > ! ) ) ) ) ) ) ) ) ) ) ",
"- - - - - - - - - - - - - - - - - - - *.& & =.-.;.*.>.>.>.>.,.,.>.>.>.>.>.>.>.>.>.,.>.>.>.>.>.'.-.=.=.& & *.- - - - - - - - - - ",
"$ $ $ $   $ $ $ $ $ $ $ $ $ $ $ $ $ ).!.~.~.{.{.].^./././.(._.= = = = = = - - - - - >.).).).).:.<.& & & & [.[.[.[.[.[.[.[.[.}.[.",
"$ $ $ $   $ $ $ $ $ $ $ $ $ $ ^.|.|.|.1./././.2.2.|.|.|.|.|.|.|.|.|.|.|.|.|.|.|.|.|.|.|.|.|.^.^.~.{.{.{.{.^.^.^.^.^.^.^.^.[.}.[."};
