/* XPM */
static char * texture_south_xpm[] = {
"64 64 117 2",
"  	c #1A0F67",
". 	c #1A116A",
"+ 	c #191672",
"@ 	c #1C1C92",
"# 	c #1A26A1",
"$ 	c #1D1689",
"% 	c #1A1068",
"& 	c #1A136D",
"* 	c #1A1373",
"= 	c #1A1370",
"- 	c #1F1371",
"; 	c #20106D",
"> 	c #1A0F68",
", 	c #1A0F6A",
"' 	c #23167A",
") 	c #251173",
"! 	c #1B0F6E",
"~ 	c #1E0F81",
"{ 	c #1C0F75",
"] 	c #1C1177",
"^ 	c #1B167E",
"/ 	c #1A1C87",
"( 	c #2B1B8A",
"_ 	c #2E127E",
": 	c #172EAF",
"< 	c #2A2DB1",
"[ 	c #3C1591",
"} 	c #1C1B91",
"| 	c #1434BC",
"1 	c #3533BF",
"2 	c #501A9F",
"3 	c #3548BD",
"4 	c #4857BF",
"5 	c #4932C2",
"6 	c #626EC1",
"7 	c #1A1B86",
"8 	c #1A229C",
"9 	c #7029A7",
"0 	c #1927A4",
"a 	c #1B1278",
"b 	c #E503FE",
"c 	c #182AAA",
"d 	c #361A96",
"e 	c #6571C1",
"f 	c #623AA2",
"g 	c #C3D8F6",
"h 	c #521E8B",
"i 	c #151B6E",
"j 	c #131B63",
"k 	c #121B5F",
"l 	c #161B75",
"m 	c #181B7D",
"n 	c #4E5CBF",
"o 	c #17166B",
"p 	c #191471",
"q 	c #6054C5",
"r 	c #7044AD",
"s 	c #3333BF",
"t 	c #686DC3",
"u 	c #6459C5",
"v 	c #3521A1",
"w 	c #4B21A6",
"x 	c #4F21A8",
"y 	c #4A25AD",
"z 	c #6620B1",
"A 	c #702EB0",
"B 	c #1A37A0",
"C 	c #6719A9",
"D 	c #5224B0",
"E 	c #6230C8",
"F 	c #613EC9",
"G 	c #6149CA",
"H 	c #713DCE",
"I 	c #7146CF",
"J 	c #5F49CA",
"K 	c #5F3FC9",
"L 	c #7769C8",
"M 	c #7270C8",
"N 	c #5F62C8",
"O 	c #5F5CC6",
"P 	c #756DC6",
"Q 	c #3342C1",
"R 	c #4441C3",
"S 	c #5140C5",
"T 	c #5B3FC7",
"U 	c #4432C2",
"V 	c #3A1A71",
"W 	c #3A1A7A",
"X 	c #3A1A80",
"Y 	c #6E2E9D",
"Z 	c #603D97",
"` 	c #6E2E9A",
" .	c #6E2E97",
"..	c #603D95",
"+.	c #3C1A8E",
"@.	c #341674",
"#.	c #472C92",
"$.	c #593C99",
"%.	c #6F2AA2",
"&.	c #6F2B9E",
"*.	c #6F2C9B",
"=.	c #683B9B",
"-.	c #4B1A94",
";.	c #141B68",
">.	c #1E4B90",
",.	c #1E3F8B",
"'.	c #3C1A87",
").	c #1330AC",
"!.	c #4A40A7",
"~.	c #2A25A3",
"{.	c #2C158C",
"].	c #231C89",
"^.	c #24127B",
"/.	c #1C1379",
"(.	c #1A1678",
"_.	c #1F1679",
":.	c #1B1170",
"      . + @ @ # # $                   % & . * = - ; > > > > >     > > > > > > , > > > > > > > > > > > >                       > ",
"      . + @ @ # # $                   % & . * = ' ) ! ! ! ! ! , , , , , , , , , ! , , , , , , , , , , , > > > > > > > > > > > > ",
"      . + @ @ # # $ ~ ~ ~ ~ ~ { { { { ] ^ ^ ^ / ( _ { { { { { { { { { { { { { { { { { { { { { { { { { { ! ! ! ! ! ! ! ! ! ! ! ! ",
"~ ~ ~ $ # # # # # $ ~ ~ ~ ~ ~ ~ ~ ~ ~ $ : : : : < [ ~ ~ ~ ~ ~ ~ ~ ~ ~ ~ { { { { { { { ~ ~ ~ ~ ~ ~ ~ ~ ~ ~ ~ ~ ~ ~ ~ ~ ~ { { { { ",
"~ ~ ~ $ # # # # # $ ~ ~ ~ ~ ~ ~ ~ ~ ~ $ : : : : < [ ~ ~ ~ ~ ~ ~ ~ ~ ~ ~ ~ ~ ~ ~ ~ ~ ~ ~ ~ ~ ~ ~ ~ ~ ~ ~ ~ ~ ~ ~ ~ ~ ~ ~ ~ ~ ~ ~ ",
"~ ~ ~ } | | | | | } ~ ~ ~ ~ ~ ~ ~ ~ ~ } | | | | 1 2 ~ ~ ~ ~ ~ ~ ~ ~ ~ ~ ~ ~ ~ ~ ~ ~ ~ ~ ~ ~ ~ ~ ~ ~ ~ ~ ~ ~ ~ ~ ~ ~ ~ ~ ~ ~ ~ ~ ",
"~ ~ ~ } | | | | | } ~ ~ ~ ~ ~ ~ ~ ~ ~ } | | | | 1 2 ~ ~ ~ ~ ~ ~ ~ ~ ~ ~ ~ ~ ~ ~ ~ ~ ~ ~ ~ ~ ~ ~ ~ ~ ~ ~ ~ ~ ~ ~ ~ ~ ~ ~ ~ ~ ~ ~ ",
"~ ~ ~ } | | | | | } ~ ~ ~ ~ ~ ~ ~ ~ ~ } | | | 3 1 2 ~ ~ ~ ~ ~ ~ ~ ~ ~ ~ ~ ~ ~ ~ ~ ~ ~ ~ ~ ~ ~ ~ ~ ~ ~ ~ ~ ~ ~ ~ ~ ~ ~ ~ ~ ~ ~ ~ ",
"~ ~ ~ } | | | | | } ~ ~ ~ ~ ~ ~ ~ ~ ~ } | | | 4 5 2 ~ ~ ~ ~ ~ ~ ~ ~ ~ ~ ~ ~ ~ ~ ~ ~ ~ ~ ~ ~ ~ ~ ~ ~ ~ ~ ~ ~ ~ ~ ~ ~ ~ ~ ~ ~ ~ ~ ",
"~ ~ ~ } | | | | | } ~ ~ ~ ~ ~ ~ ~ ~ ~ } | | | 6 5 2 ~ ~ ~ ~ ~ ~ ~ ~ ~ ~ ~ ~ ~ ~ ~ ~ ~ ~ ~ ~ ~ ~ ~ ~ ~ ~ ~ ~ ~ ~ ~ ~ ~ ~ ~ ~ ~ ~ ",
"~ ~ ~ } | | | | | } ~ ~ ~ ~ ~ ~ ~ ~ ~ } | | | 4 5 2 ~ ~ ~ ~ ~ ~ ~ ~ ~ ~ ~ ~ ~ ~ ~ ~ ~ ~ ~ ~ ~ ~ ~ ~ ~ ~ ~ ~ ~ ~ ~ ~ ~ ~ ~ ~ ~ ~ ",
"~ ~ ~ } | | | | | } ~ ~ ~ ~ ~ ~ ~ ~ ~ } | | | 4 5 2 ~ ~ ~ ~ ~ ~ ~ ~ ~ ~ ~ ~ ~ ~ ~ ~ ~ ~ ~ ~ ~ ~ ~ ~ ~ ~ ~ ~ ~ ~ ~ ~ ~ ~ ~ ~ ~ ~ ",
"~ ~ ~ } | | | | | } ~ ~ ~ ~ ~ ~ ~ ~ ~ } | | | 4 5 2 ~ ~ ~ ~ ~ ~ ~ ~ ~ ~ ~ ~ ~ ~ ~ ~ ~ ~ ~ ~ ~ ~ ~ ~ ~ ~ ~ ~ ~ ~ ~ ~ ~ ~ ~ ~ ~ ~ ",
"~ ~ ~ } | | | | | 7 ~ ~ ~ ~ ~ ~ ~ ~ ~ 8 | | | 4 5 2 ~ ~ ~ ~ ~ 9 9 9 9 ~ ~ ~ ~ ~ ~ 9 9 9 9 ~ ~ ~ ~ ~ ~ ~ ~ ~ ~ ~ ~ ~ ~ ~ ~ ~ ~ ~ ",
"~ ~ ~ } | | | | | 7 ~ ~ ~ ~ ~ ~ ~ ~ ~ 0 | | | | 5 2 ~ ~ ~ 9 9 9 9 9 9 9 ~ ~ ~ 9 9 9 9 9 9 9 ~ ~ ~ ~ ~ ~ ~ ~ ~ ~ ~ ~ ~ ~ ~ ~ ~ ~ ",
"~ ~ ~ } | | | | | 7 a ~ ~ ~ ~ ~ ~ ~ ~ 0 | | | | 5 2 ~ ~ ~ 9 b b b b b 9 ~ ~ ~ 9 b b b b b 9 ~ ~ ~ ~ ~ ~ ~ ~ ~ ~ ~ ~ ~ ~ ~ ~ ~ ~ ",
"} } } } | | | | | 7 7 7 7 } } } 8 0 0 c | | | | 5 2 ~ ~ ~ 9 b b b b b 9 ~ ~ ~ 9 b b b b b 9 ~ ~ ~ ~ ~ ~ ~ ~ ~ ~ ~ ~ } } } } } } ",
"| | | | | | | | | | | | | | | | | | | | | | | | 5 2 ~ ~ ~ 9 b b b b b 9 ~ ~ 9 9 b b b b b 9 9 ~ ~ ~ ~ ~ ~ ~ ~ ~ ~ ~ } | | | | | ",
"| | | | | 4 4 6 6 4 4 4 4 4 4 4 4 | | | | | | | 5 2 ~ ~ ~ 9 b b b b b 9 9 ~ 9 9 b b b b b 9 9 ~ ~ ~ ~ ~ ~ ~ ~ ~ ~ ~ d | | | | | ",
"| | | | | | | | | | | | | | | | | | | | | | | | 5 2 ~ ~ 9 9 b b b b b 9 9 ~ 9 9 b b b b b 9 9 ~ ~ ~ ~ ~ ~ ~ ~ ~ ~ ~ d | | | e | ",
"| | | | | | | | | | | | | | | | | | | | | | | | 5 2 ~ ~ 9 f b b g b b f 9 ~ 9 9 b b g b b 9 9 ~ ~ ~ ~ ~ ~ ~ ~ ~ ~ ~ d | | | e | ",
"| | | | | | | | | | | | | | | | | | | | | | | | 5 2 ~ ~ 9 f b b g b b f 9 h 9 f b b g b b 9 9 ~ ~ ~ ~ ~ ~ ~ ~ ~ ~ ~ d | | | e | ",
"i j j k l m m 7 7 } } } } } } } } } } } | | | | 5 2 ~ ~ 9 f b b g b b f 9 h 9 f b b g b b 9 9 ~ ~ ~ ~ ~ ~ ~ ~ ~ ~ ~ d | | | n | ",
"o p a a a ~ a a a a a a a ~ ~ ~ ~ ~ ~ } | | | | 5 2 ~ ~ 9 f b b g b b f 9 h 9 f b b g b b f 9 ~ ~ ~ ~ ~ ~ ~ ~ ~ ~ ~ d | | | n | ",
"p ~ ~ ~ ~ ~ ~ ~ ~ ~ ~ ~ ~ ~ ~ ~ ~ ~ ~ } | | | | 5 2 ~ ~ 9 f b b g b b f 9 h 9 f b b g b b f 9 ~ ~ ~ ~ ~ ~ ~ ~ ~ ~ ~ d | | | n | ",
"~ ~ ~ ~ ~ ~ ~ ~ ~ ~ ~ ~ ~ ~ ~ ~ ~ ~ ~ } | | | q 5 2 ~ ~ 9 r b b g b b f 9 h 9 f b b g b b f 9 ~ ~ ~ ~ ~ ~ ~ ~ ~ ~ ~ d s | | n | ",
"~ ~ ~ ~ ~ ~ ~ ~ ~ ~ ~ ~ ~ ~ ~ ~ ~ ~ ~ } | | | q 5 2 ~ ~ 9 r b b g b b f 9 h 9 f b b g b b f 9 ~ ~ ~ ~ ~ ~ ~ ~ ~ ~ ~ d | | | n | ",
"~ ~ ~ ~ ~ ~ ~ ~ ~ ~ ~ ~ ~ ~ ~ ~ ~ ~ ~ } | | | t 5 2 ~ ~ 9 r b b g b b r 9 h 9 f b b g b b f 9 ~ ~ ~ ~ ~ ~ ~ ~ ~ ~ ~ d s | | | | ",
"~ ~ ~ ~ ~ ~ ~ ~ ~ ~ ~ ~ ~ ~ ~ ~ ~ ~ ~ } | | | t 5 2 ~ ~ 9 r b b g b b r 9 h 9 f b b g b b f 9 ~ ~ ~ ~ ~ ~ ~ ~ ~ ~ ~ d s | | | | ",
"~ ~ ~ ~ ~ ~ ~ ~ ~ ~ ~ ~ ~ ~ ~ ~ ~ ~ ~ } | | | t 5 2 ~ ~ 9 r b b g b b r 9 h 9 f b b g b b r 9 ~ ~ ~ ~ ~ ~ ~ ~ ~ ~ ~ d s | | | | ",
"~ ~ ~ ~ ~ ~ ~ ~ ~ ~ ~ ~ ~ ~ ~ ~ ~ ~ ~ } | | | q 5 2 ~ ~ 9 r b b g b b f 9 h 9 r b b g b b r 9 ~ ~ ~ ~ ~ ~ ~ ~ ~ ~ ~ d s | | | | ",
"~ ~ ~ ~ ~ ~ ~ ~ ~ ~ ~ ~ ~ ~ ~ ~ ~ ~ ~ } | | | q 5 2 ~ ~ 9 r b b g b b f 9 h 9 r b b g b b r 9 ~ ~ ~ ~ ~ ~ ~ ~ ~ ~ ~ d | | | | | ",
"~ ~ ~ ~ ~ ~ ~ ~ ~ ~ ~ ~ ~ ~ ~ ~ ~ ~ ~ } | | | u 5 2 ~ ~ 9 f b b g b b f 9 h 9 f b b g b b f 9 ~ ~ ~ ~ ~ ~ ~ ~ ~ ~ ~ d | | | | | ",
"~ ~ ~ ~ ~ ~ ~ ~ ~ ~ ~ ~ ~ ~ ~ ~ ~ ~ ~ } | | | u 5 2 ~ ~ 9 f b b g b b f 9 h 9 f b b g b b f 9 ~ ~ ~ ~ ~ ~ ~ ~ ~ ~ ~ d | | | | | ",
"~ ~ ~ ~ ~ ~ ~ ~ ~ ~ ~ ~ ~ ~ ~ ~ ~ ~ ~ } | | | u 5 2 ~ ~ 9 f b b g b b f 9 h 9 9 b b g b b f 9 ~ ~ ~ ~ ~ ~ ~ ~ ~ ~ ~ d | | | | | ",
"~ ~ ~ ~ ~ ~ ~ ~ ~ ~ ~ ~ ~ ~ ~ ~ ~ ~ ~ } | | | u 5 2 ~ ~ 9 f b b g b b 9 9 h 9 9 b b g b b f 9 ~ ~ ~ ~ ~ ~ ~ ~ ~ ~ ~ d | | | | | ",
"~ ~ ~ ~ ~ ~ ~ ~ ~ ~ ~ ~ ~ ~ ~ ~ ~ ~ ~ } | | | u 5 2 ~ ~ 9 f b b g b b 9 9 h 9 9 b b g b b 9 9 ~ ~ ~ ~ ~ ~ ~ ~ ~ ~ ~ d | | | | | ",
"~ ~ ~ ~ ~ ~ ~ ~ ~ ~ ~ ~ ~ ~ ~ ~ ~ ~ ~ } | | | u 5 2 ~ ~ 9 f b b g b b 9 9 h 9 9 b b g b b 9 9 ~ ~ ~ ~ ~ ~ ~ ~ ~ ~ ~ d | | | | | ",
"~ ~ ~ ~ ~ ~ ~ ~ ~ ~ ~ ~ ~ ~ ~ ~ ~ ~ ~ } | | | u 5 2 ~ ~ 9 f b b g b b 9 9 h 9 9 b b g b b 9 9 ~ ~ ~ ~ ~ ~ ~ ~ ~ ~ ~ d | | | | | ",
"~ ~ ~ ~ ~ ~ ~ ~ ~ ~ ~ ~ ~ ~ ~ ~ ~ ~ ~ } | | | u 5 2 ~ ~ 9 f b b g b b 9 9 h 9 9 b b g b b 9 9 ~ ~ ~ ~ ~ ~ ~ ~ ~ ~ ~ d | | | | | ",
"~ ~ ~ ~ ~ ~ ~ ~ ~ ~ ~ ~ ~ ~ ~ ~ ~ ~ ~ } | | | u 5 2 ~ ~ 9 f b b g b b 9 9 h 9 9 b b g b b 9 9 ~ ~ ~ ~ ~ ~ ~ ~ ~ ~ ~ v 5 | | | | ",
"~ ~ ~ ~ ~ ~ ~ ~ ~ ~ ~ ~ ~ ~ ~ ~ ~ ~ ~ } | | | u 5 2 ~ ~ 9 9 b b b b b 9 9 h 9 9 b b b b b 9 9 ~ ~ ~ ~ ~ ~ ~ ~ ~ ~ ~ w 5 | | | | ",
"~ ~ ~ ~ ~ ~ ~ ~ ~ ~ ~ ~ ~ ~ ~ ~ ~ ~ ~ } | | | u 5 2 ~ ~ 9 9 b b b b b 9 9 ~ 9 9 b b b b b 9 9 ~ ~ ~ ~ ~ ~ ~ ~ ~ ~ ~ w | | | | | ",
"~ ~ ~ ~ ~ ~ ~ ~ ~ ~ ~ ~ ~ ~ ~ ~ ~ ~ ~ } | | | u 5 x ~ ~ ~ 9 b b b b b 9 9 ~ 9 9 b b b b b 9 9 ~ ~ ~ ~ ~ ~ ~ ~ ~ ~ ~ y | | | | | ",
"~ ~ ~ ~ ~ ~ ~ ~ ~ ~ ~ ~ ~ ~ ~ ~ ~ ~ ~ } | | | u 5 x z x 2 A b b b b b B B 2 2 A b b b b b A 2 x x x x x x C C x y y D | | | | | ",
"~ ~ ~ ~ ~ ~ ~ ~ ~ ~ ~ ~ ~ ~ ~ ~ ~ ~ ~ } | | | u 5 5 E E E 5 F G G G G F 5 5 5 5 H H I I J K 5 5 5 5 5 5 | | | | | | | | | | | | ",
"~ ~ ~ ~ ~ ~ ~ ~ ~ ~ ~ ~ ~ ~ ~ ~ ~ ~ ~ } | | | u u u q q q L M N O O O q q | | | | K K H 5 5 5 | | | | q P q q P q q q q | | | | ",
"~ ~ ~ ~ ~ ~ ~ ~ ~ ~ ~ ~ ~ ~ ~ ~ ~ ~ ~ } | | | u | | | | | | | | | | | | | | | | | | | | | | | | | | | | | | | | | | | | | | | | ",
"~ ~ ~ ~ ~ ~ ~ ~ ~ ~ ~ ~ ~ ~ ~ ~ ~ ~ ~ } | | | u | | | | | | | | Q Q s | | | | | | | R R | | | | | | | | | | | | | | | | | | | | ",
"~ ~ ~ ~ ~ ~ ~ ~ ~ ~ ~ ~ ~ ~ ~ ~ ~ ~ ~ } | | | u | s s s s s R R R R R s s s s s S T T S S U s s | | | | | | | | | | | | | | | | ",
"~ ~ ~ ~ ~ ~ ~ ~ ~ ~ ~ ~ ~ ~ ~ ~ ~ ~ ~ } | | | u s V V W X Y b b b b b Z `  .Y ..b b b b b ` X +.| | | | | k l i l m m 7 7 7 7 7 ",
"~ ~ ~ ~ ~ ~ ~ ~ ~ ~ ~ ~ ~ ~ ~ ~ ~ ~ ~ } | | | u s W @.~ #.#.b b g b b $.%.&.*.=.b b g b b &.~ -.s | | | | ;.p a ~ ~ ~ ~ ~ ~ ~ ~ ",
"~ ~ ~ ~ ~ ~ ~ ~ ~ ~ ~ ~ ~ ~ ~ ~ ~ ~ ~ } | | | u s V a ~ #.#.b b g b b >.#.#.#.,.b b g b b #.#.d | | | | | l ~ ~ ~ ~ ~ ~ ~ ~ ~ ~ ",
"~ ~ ~ ~ ~ ~ ~ ~ ~ ~ ~ ~ ~ ~ ~ ~ ~ ~ ~ } | | | u s W ~ ~ #.#.b b g b b ,.#.~ #.,.b b g b b #.#.d s | | 4 | l ~ ~ ~ ~ ~ ~ ~ ~ ~ ~ ",
"~ ~ ~ ~ ~ ~ ~ ~ ~ ~ ~ ~ ~ ~ ~ ~ ~ ~ ~ } | | | u s X ~ ~ ~ #.b b b b b ,.#.~ #.#.b b b b b #.#.d s | | 6 | i ~ ~ ~ ~ ~ ~ ~ ~ ~ ~ ",
"~ ~ ~ ~ ~ ~ ~ ~ ~ ~ ~ ~ ~ ~ ~ ~ ~ ~ ~ } | | | u s '.~ ~ ~ #.b b b b b #.#.~ ~ #.b b b b b #.~ d s | | 4 ).m ~ ~ ~ ~ ~ ~ ~ ~ ~ ~ ",
"~ ~ ~ ~ ~ ~ ~ ~ ~ ~ ~ ~ ~ ~ ~ ~ ~ ~ ~ } | | | u s +.~ ~ ~ #.#.#.#.#.#.#.~ ~ ~ #.#.#.#.#.#.#.~ d s | | 4 ).7 ~ ~ ~ ~ ~ ~ ~ ~ ~ ~ ",
"~ ~ ~ ~ ~ ~ ~ ~ ~ ~ ~ ~ ~ ~ ~ ~ ~ ~ ~ } | | | u s d ~ ~ ~ ~ #.#.#.#.~ ~ ~ ~ ~ ~ #.#.#.#.~ ~ ~ d s | | 4 | } ~ ~ ~ ~ ~ ~ ~ ~ ~ ~ ",
"~ ~ ~ ~ ~ ~ ~ ~ ~ ~ ~ ~ ~ ~ ~ ~ ~ ~ ~ } | | | u s d ~ ~ ~ ~ ~ ~ ~ ~ ~ ~ ~ ~ ~ ~ ~ ~ ~ ~ ~ ~ ~ d s | | 4 | } ~ ~ ~ ~ ~ ~ ~ ~ ~ ~ ",
"~ ~ ~ ~ ~ ~ ~ ~ ~ ~ ~ ~ ~ ~ ~ ~ ~ ~ ~ $ # # # !.~.{.~ ~ ~ ~ ~ ~ ~ ~ ~ ~ ~ ~ ~ ~ ~ ~ ~ ~ ~ ~ ~ $ ~.# # # # $ ~ ~ ~ ~ ~ ~ ~ ~ ~ ~ ",
"~ ~ ~ ~ ~ ~ ~ ~ ~ ~ ~ ~ ~ ~ ~ ~ ~ ~ ~ $ # # # !.].^.{ { { { { { { { { { { { { { { ~ ~ ~ ~ ~ ~ $ ~.# # # # $ ~ ~ ~ ~ ~ ~ ~ ~ ~ ~ ",
"{ { { { { { { { { { { { { { { { { { { ] ^ ^ ^ / ].^.{ { { { { { { { { { { { { { { { { { { { { /./ / ^ ^ ^ ] ~ ~ ~ { { { { { { { ",
"                                      % & & ^ (._.:.! ! ! ! ! ! ! ! ! ! ! ! ! ! ! ! ! ! ! ! ! :.(.(.* . .                       ",
"                                      % & & ^ (.(.:.! ! ! ! ! ! ! ! ! ! ! ! ! ! ! ! ! ! ! ! ! :.(.(.* . .                       "};
