/* XPM */
static char * texture_ceiling_xpm[] = {
"64 64 5 1",
" 	c #2A2A2A",
".	c #F4F488",
"+	c #F5F5AE",
"@	c #F5F5CF",
"#	c #F5F5ED",
"                                                                ",
"                                                                ",
"                                                                ",
"                                                                ",
"                                                                ",
"                                                                ",
"                                                                ",
"                                                                ",
"                                                                ",
"                                                                ",
"                                                                ",
"                                                                ",
"                                                                ",
"                                                                ",
"                                                                ",
"                                                                ",
"                                                                ",
"                                                                ",
"                                                                ",
"                                                                ",
"                                                                ",
"                                                                ",
"                                                                ",
"                       ..................                       ",
"                       .++++++++++++++++.                       ",
"                       .+@@@@@@@@@@@@@@+.                       ",
"                       .+@############@+.                       ",
"                       .+@############@+.                       ",
"                       .+@############@+.                       ",
"                       .+@############@+.                       ",
"                       .+@############@+.                       ",
"                       .+@############@+.                       ",
"                       .+@############@+.                       ",
"                       .+@############@+.                       ",
"                       .+@############@+.                       ",
"                       .+@############@+.                       ",
"                       .+@############@+.                       ",
"                       .+@############@+.                       ",
"                       .+@@@@@@@@@@@@@@+.                       ",
"                       .++++++++++++++++.                       ",
"                       ..................                       ",
"                                                                ",
"                                                                ",
"                                                                ",
"                                                                ",
"                                                                ",
"                                                                ",
"                                                                ",
"                                                                ",
"                                                                ",
"                                                                ",
"                                                                ",
"                                                                ",
"                                                                ",
"                                                                ",
"                                                                ",
"                                                                ",
"                                                                ",
"                                                                ",
"                                                                ",
"                                                                ",
"                                                                ",
"                                                                ",
"                                                                "};
