/* XPM */
static char * texture_south_test_xpm[] = {
"64 64 126 2",
"  	c #1D1E67",
". 	c #1D1F68",
"+ 	c #1D206B",
"@ 	c #1C1C92",
"# 	c #1A26A1",
"$ 	c #1D1C7E",
"% 	c #1C1A67",
"& 	c #1C1A68",
"* 	c #1D1C6A",
"= 	c #1C1A69",
"- 	c #1D1D6D",
"; 	c #1D1D6C",
"> 	c #1F1D6C",
", 	c #201B6A",
"' 	c #211F70",
") 	c #221D6D",
"! 	c #1D1C6B",
"~ 	c #1E1978",
"{ 	c #1D1E6E",
"] 	c #1D1D75",
"^ 	c #1C1F7C",
"/ 	c #271F7F",
"( 	c #291C75",
"_ 	c #1E0F81",
": 	c #1D1689",
"< 	c #172EAF",
"[ 	c #2A2DB1",
"} 	c #3C1591",
"| 	c #1C1B91",
"1 	c #1434BC",
"2 	c #1D1F85",
"3 	c #3533BF",
"4 	c #501A9F",
"5 	c #3548BD",
"6 	c #4857BF",
"7 	c #4932C2",
"8 	c #626EC1",
"9 	c #1A229C",
"0 	c #7029A7",
"a 	c #1927A4",
"b 	c #1D1A72",
"c 	c #E503FE",
"d 	c #182AAA",
"e 	c #361A96",
"f 	c #6571C1",
"g 	c #623AA2",
"h 	c #C3D8F6",
"i 	c #521E8B",
"j 	c #1E2368",
"k 	c #1A2065",
"l 	c #1A2063",
"m 	c #1E2369",
"n 	c #1E236B",
"o 	c #1E236C",
"p 	c #1E2273",
"q 	c #4E5CBF",
"r 	c #1D2168",
"s 	c #1E2269",
"t 	c #1F226A",
"u 	c #1F226B",
"v 	c #6054C5",
"w 	c #7044AD",
"x 	c #3333BF",
"y 	c #686DC3",
"z 	c #6459C5",
"A 	c #3521A1",
"B 	c #4B21A6",
"C 	c #4F21A8",
"D 	c #4A25AD",
"E 	c #6620B1",
"F 	c #702EB0",
"G 	c #1A37A0",
"H 	c #6719A9",
"I 	c #5224B0",
"J 	c #6230C8",
"K 	c #613EC9",
"L 	c #6149CA",
"M 	c #713DCE",
"N 	c #7146CF",
"O 	c #5F49CA",
"P 	c #5F3FC9",
"Q 	c #7769C8",
"R 	c #7270C8",
"S 	c #5F62C8",
"T 	c #5F5CC6",
"U 	c #756DC6",
"V 	c #3342C1",
"W 	c #4441C3",
"X 	c #5140C5",
"Y 	c #5B3FC7",
"Z 	c #4432C2",
"` 	c #3A1A71",
" .	c #3A1A7A",
"..	c #3A1A80",
"+.	c #6E2E9D",
"@.	c #603D97",
"#.	c #6E2E9A",
"$.	c #6E2E97",
"%.	c #603D95",
"&.	c #3C1A8E",
"*.	c #331774",
"=.	c #472C92",
"-.	c #593C99",
";.	c #6F2AA2",
">.	c #6F2B9E",
",.	c #6F2C9B",
"'.	c #683B9B",
").	c #4B1A94",
"!.	c #1C2167",
"~.	c #1E4B90",
"{.	c #1E3F8B",
"].	c #3C1A87",
"^.	c #1330AC",
"/.	c #1F226D",
"(.	c #4A40A7",
"_.	c #2A25A3",
":.	c #21226E",
"<.	c #20236E",
"[.	c #20226A",
"}.	c #1F2269",
"|.	c #1E236D",
"1.	c #1D1D67",
"2.	c #1E2268",
"3.	c #1E226A",
"4.	c #1E2168",
"5.	c #1E2068",
"      . + @ @ # # $ % % % % % % % % % & * = - ; > , & & & & & % % & & & & & & = & & & & & & & & & & & & % % % % % % % % % % % & ",
"      . + @ @ # # $ % % % % % % % % % & * = - ; ' ) ! ! ! ! ! = = = = = = = = = ! = = = = = = = = = = = & & & & & & & & & & & & ",
"      . + @ @ # # $ ~ ~ ~ ~ ~ - - - - { ] ] ] ^ / ( - - - - - - - - - - - - - - - - - - - - - - - - - - ! ! ! ! ! ! ! ! ! ! ! ! ",
"_ _ _ : # # # # # $ ~ ~ ~ ~ ~ ~ ~ ~ ~ $ < < < < [ } ~ ~ ~ ~ ~ ~ ~ ~ ~ ~ - - - - - - - ~ ~ ~ ~ ~ ~ ~ ~ ~ ~ ~ ~ ~ ~ ~ ~ ~ - - - - ",
"_ _ _ : # # # # # $ ~ ~ ~ ~ ~ ~ ~ ~ ~ $ < < < < [ } ~ ~ ~ ~ ~ ~ ~ ~ ~ ~ ~ ~ ~ ~ ~ ~ ~ ~ ~ ~ ~ ~ ~ ~ ~ ~ ~ ~ ~ ~ ~ ~ ~ ~ ~ ~ ~ ~ ",
"_ _ _ | 1 1 1 1 1 2 ~ ~ ~ ~ ~ ~ ~ ~ ~ 2 1 1 1 1 3 4 ~ ~ ~ ~ ~ ~ ~ ~ ~ ~ ~ ~ ~ ~ ~ ~ ~ ~ ~ ~ ~ ~ ~ ~ ~ ~ ~ ~ ~ ~ ~ ~ ~ ~ ~ ~ ~ ~ ",
"_ _ _ | 1 1 1 1 1 2 ~ ~ ~ ~ ~ ~ ~ ~ ~ 2 1 1 1 1 3 4 ~ ~ ~ ~ ~ ~ ~ ~ ~ ~ ~ ~ ~ ~ ~ ~ ~ ~ ~ ~ ~ ~ ~ ~ ~ ~ ~ ~ ~ ~ ~ ~ ~ ~ ~ ~ ~ ~ ",
"_ _ _ | 1 1 1 1 1 2 ~ ~ ~ ~ ~ ~ ~ ~ ~ 2 1 1 1 5 3 4 ~ ~ ~ ~ ~ ~ ~ ~ ~ ~ ~ ~ ~ ~ ~ ~ ~ ~ ~ ~ ~ ~ ~ ~ ~ ~ ~ ~ ~ ~ ~ ~ ~ ~ ~ ~ ~ ~ ",
"_ _ _ | 1 1 1 1 1 2 ~ ~ ~ ~ ~ ~ ~ ~ ~ 2 1 1 1 6 7 4 ~ ~ ~ ~ ~ ~ ~ ~ ~ ~ ~ ~ ~ ~ ~ ~ ~ ~ ~ ~ ~ ~ ~ ~ ~ ~ ~ ~ ~ ~ ~ ~ ~ ~ ~ ~ ~ ~ ",
"_ _ _ | 1 1 1 1 1 2 ~ ~ ~ ~ ~ ~ ~ ~ ~ 2 1 1 1 8 7 4 ~ ~ ~ ~ ~ ~ ~ ~ ~ ~ ~ ~ ~ ~ ~ ~ ~ ~ ~ ~ ~ ~ ~ ~ ~ ~ ~ ~ ~ ~ ~ ~ ~ ~ ~ ~ ~ ~ ",
"_ _ _ | 1 1 1 1 1 2 ~ ~ ~ ~ ~ ~ ~ ~ ~ 2 1 1 1 6 7 4 ~ ~ ~ ~ ~ ~ ~ ~ ~ ~ ~ ~ ~ ~ ~ ~ ~ ~ ~ ~ ~ ~ ~ ~ ~ ~ ~ ~ ~ ~ ~ ~ ~ ~ ~ ~ ~ ~ ",
"_ _ _ | 1 1 1 1 1 2 ~ ~ ~ ~ ~ ~ ~ ~ ~ 2 1 1 1 6 7 4 ~ ~ ~ ~ ~ ~ ~ ~ ~ ~ ~ ~ ~ ~ ~ ~ ~ ~ ~ ~ ~ ~ ~ ~ ~ ~ ~ ~ ~ ~ ~ ~ ~ ~ ~ ~ ~ ~ ",
"_ _ _ | 1 1 1 1 1 2 ~ ~ ~ ~ ~ ~ ~ ~ ~ 2 1 1 1 6 7 4 ~ ~ ~ ~ ~ ~ ~ ~ ~ ~ ~ ~ ~ ~ ~ ~ ~ ~ ~ ~ ~ ~ ~ ~ ~ ~ ~ ~ ~ ~ ~ ~ ~ ~ ~ ~ ~ ~ ",
"_ _ _ | 1 1 1 1 1 ^ ~ ~ ~ ~ ~ ~ ~ ~ ~ 9 1 1 1 6 7 4 ~ ~ ~ ~ ~ 0 0 0 0 ~ ~ ~ ~ ~ ~ 0 0 0 0 ~ ~ ~ ~ ~ ~ ~ ~ ~ ~ ~ ~ ~ ~ ~ ~ ~ ~ ~ ",
"_ _ _ | 1 1 1 1 1 ^ ~ ~ ~ ~ ~ ~ ~ ~ ~ a 1 1 1 1 7 4 ~ ~ ~ 0 0 0 0 0 0 0 ~ ~ ~ 0 0 0 0 0 0 0 ~ ~ ~ ~ ~ ~ ~ ~ ~ ~ ~ ~ ~ ~ ~ ~ ~ ~ ",
"_ _ _ | 1 1 1 1 1 ^ b ~ ~ ~ ~ ~ ~ ~ ~ a 1 1 1 1 7 4 ~ ~ ~ 0 c c c c c 0 ~ ~ ~ 0 c c c c c 0 ~ ~ ~ ~ ~ ~ ~ ~ ~ ~ ~ ~ ~ ~ ~ ~ ~ ~ ",
"| | | | 1 1 1 1 1 ^ ^ ^ ^ 2 2 2 9 a a d 1 1 1 1 7 4 ~ ~ ~ 0 c c c c c 0 ~ ~ ~ 0 c c c c c 0 ~ ~ ~ ~ ~ ~ ~ ~ ~ ~ ~ ~ 2 2 2 2 2 2 ",
"1 1 1 1 1 1 1 1 1 1 1 1 1 1 1 1 1 1 1 1 1 1 1 1 7 4 ~ ~ ~ 0 c c c c c 0 ~ ~ 0 0 c c c c c 0 0 ~ ~ ~ ~ ~ ~ ~ ~ ~ ~ ~ 2 1 1 1 1 1 ",
"1 1 1 1 1 6 6 8 8 6 6 6 6 6 6 6 6 1 1 1 1 1 1 1 7 4 ~ ~ ~ 0 c c c c c 0 0 ~ 0 0 c c c c c 0 0 ~ ~ ~ ~ ~ ~ ~ ~ ~ ~ ~ e 1 1 1 1 1 ",
"1 1 1 1 1 1 1 1 1 1 1 1 1 1 1 1 1 1 1 1 1 1 1 1 7 4 ~ ~ 0 0 c c c c c 0 0 ~ 0 0 c c c c c 0 0 ~ ~ ~ ~ ~ ~ ~ ~ ~ ~ ~ e 1 1 1 f 1 ",
"1 1 1 1 1 1 1 1 1 1 1 1 1 1 1 1 1 1 1 1 1 1 1 1 7 4 ~ ~ 0 g c c h c c g 0 ~ 0 0 c c h c c 0 0 ~ ~ ~ ~ ~ ~ ~ ~ ~ ~ ~ e 1 1 1 f 1 ",
"1 1 1 1 1 1 1 1 1 1 1 1 1 1 1 1 1 1 1 1 1 1 1 1 7 4 ~ ~ 0 g c c h c c g 0 i 0 g c c h c c 0 0 ~ ~ ~ ~ ~ ~ ~ ~ ~ ~ ~ e 1 1 1 f 1 ",
"j k k l m n n o o p p p p p p p p p p p 1 1 1 1 7 4 ~ ~ 0 g c c h c c g 0 i 0 g c c h c c 0 0 ~ ~ ~ ~ ~ ~ ~ ~ ~ ~ ~ e 1 1 1 q 1 ",
"r s t t t u t t t t t t t u u u u u u p 1 1 1 1 7 4 ~ ~ 0 g c c h c c g 0 i 0 g c c h c c g 0 ~ ~ ~ ~ ~ ~ ~ ~ ~ ~ ~ e 1 1 1 q 1 ",
"s u u u u u u u u u u u u u u u u u u p 1 1 1 1 7 4 ~ ~ 0 g c c h c c g 0 i 0 g c c h c c g 0 ~ ~ ~ ~ ~ ~ ~ ~ ~ ~ ~ e 1 1 1 q 1 ",
"u u u u u u u u u u u u u u u u u u u p 1 1 1 v 7 4 ~ ~ 0 w c c h c c g 0 i 0 g c c h c c g 0 ~ ~ ~ ~ ~ ~ ~ ~ ~ ~ ~ e x 1 1 q 1 ",
"u u u u u u u u u u u u u u u u u u u p 1 1 1 v 7 4 ~ ~ 0 w c c h c c g 0 i 0 g c c h c c g 0 ~ ~ ~ ~ ~ ~ ~ ~ ~ ~ ~ e 1 1 1 q 1 ",
"u u u u u u u u u u u u u u u u u u u p 1 1 1 y 7 4 ~ ~ 0 w c c h c c w 0 i 0 g c c h c c g 0 ~ ~ ~ ~ ~ ~ ~ ~ ~ ~ ~ e x 1 1 1 1 ",
"u u u u u u u u u u u u u u u u u u u p 1 1 1 y 7 4 ~ ~ 0 w c c h c c w 0 i 0 g c c h c c g 0 ~ ~ ~ ~ ~ ~ ~ ~ ~ ~ ~ e x 1 1 1 1 ",
"u u u u u u u u u u u u u u u u u u u p 1 1 1 y 7 4 ~ ~ 0 w c c h c c w 0 i 0 g c c h c c w 0 ~ ~ ~ ~ ~ ~ ~ ~ ~ ~ ~ e x 1 1 1 1 ",
"u u u u u u u u u u u u u u u u u u u p 1 1 1 v 7 4 ~ ~ 0 w c c h c c g 0 i 0 w c c h c c w 0 ~ ~ ~ ~ ~ ~ ~ ~ ~ ~ ~ e x 1 1 1 1 ",
"u u u u u u u u u u u u u u u u u u u p 1 1 1 v 7 4 ~ ~ 0 w c c h c c g 0 i 0 w c c h c c w 0 ~ ~ ~ ~ ~ ~ ~ ~ ~ ~ ~ e 1 1 1 1 1 ",
"u u u u u u u u u u u u u u u u u u u p 1 1 1 z 7 4 ~ ~ 0 g c c h c c g 0 i 0 g c c h c c g 0 ~ ~ ~ ~ ~ ~ ~ ~ ~ ~ ~ e 1 1 1 1 1 ",
"u u u u u u u u u u u u u u u u u u u p 1 1 1 z 7 4 ~ ~ 0 g c c h c c g 0 i 0 g c c h c c g 0 ~ ~ ~ ~ ~ ~ ~ ~ ~ ~ ~ e 1 1 1 1 1 ",
"u u u u u u u u u u u u u u u u u u u p 1 1 1 z 7 4 ~ ~ 0 g c c h c c g 0 i 0 0 c c h c c g 0 ~ ~ ~ ~ ~ ~ ~ ~ ~ ~ ~ e 1 1 1 1 1 ",
"u u u u u u u u u u u u u u u u u u u p 1 1 1 z 7 4 ~ ~ 0 g c c h c c 0 0 i 0 0 c c h c c g 0 ~ ~ ~ ~ ~ ~ ~ ~ ~ ~ ~ e 1 1 1 1 1 ",
"u u u u u u u u u u u u u u u u u u u p 1 1 1 z 7 4 ~ ~ 0 g c c h c c 0 0 i 0 0 c c h c c 0 0 ~ ~ ~ ~ ~ ~ ~ ~ ~ ~ ~ e 1 1 1 1 1 ",
"u u u u u u u u u u u u u u u u u u u p 1 1 1 z 7 4 ~ ~ 0 g c c h c c 0 0 i 0 0 c c h c c 0 0 ~ ~ ~ ~ ~ ~ ~ ~ ~ ~ ~ e 1 1 1 1 1 ",
"u u u u u u u u u u u u u u u u u u u p 1 1 1 z 7 4 ~ ~ 0 g c c h c c 0 0 i 0 0 c c h c c 0 0 ~ ~ ~ ~ ~ ~ ~ ~ ~ ~ ~ e 1 1 1 1 1 ",
"u u u u u u u u u u u u u u u u u u u p 1 1 1 z 7 4 ~ ~ 0 g c c h c c 0 0 i 0 0 c c h c c 0 0 ~ ~ ~ ~ ~ ~ ~ ~ ~ ~ ~ e 1 1 1 1 1 ",
"u u u u u u u u u u u u u u u u u u u p 1 1 1 z 7 4 ~ ~ 0 g c c h c c 0 0 i 0 0 c c h c c 0 0 ~ ~ ~ ~ ~ ~ ~ ~ ~ ~ ~ A 7 1 1 1 1 ",
"u u u u u u u u u u u u u u u u u u u p 1 1 1 z 7 4 ~ ~ 0 0 c c c c c 0 0 i 0 0 c c c c c 0 0 ~ ~ ~ ~ ~ ~ ~ ~ ~ ~ ~ B 7 1 1 1 1 ",
"u u u u u u u u u u u u u u u u u u u p 1 1 1 z 7 4 ~ ~ 0 0 c c c c c 0 0 _ 0 0 c c c c c 0 0 ~ ~ ~ ~ ~ ~ ~ ~ ~ ~ ~ B 1 1 1 1 1 ",
"u u u u u u u u u u u u u u u u u u u p 1 1 1 z 7 C ~ ~ ~ 0 c c c c c 0 0 _ 0 0 c c c c c 0 0 ~ ~ ~ ~ ~ ~ ~ ~ ~ ~ ~ D 1 1 1 1 1 ",
"u u u u u u u u u u u u u u u u u u u p 1 1 1 z 7 C E C 4 F c c c c c G G 4 4 F c c c c c F 4 C C C C C C H H C D D I 1 1 1 1 1 ",
"u u u u u u u u u u u u u u u u u u u p 1 1 1 z 7 7 J J J 7 K L L L L K 7 7 7 7 M M N N O P 7 7 7 7 7 7 1 1 1 1 1 1 1 1 1 1 1 1 ",
"u u u u u u u u u u u u u u u u u u u p 1 1 1 z z z v v v Q R S T T T v v 1 1 1 1 P P M 7 7 7 1 1 1 1 v U v v U v v v v 1 1 1 1 ",
"u u u u u u u u u u u u u u u u u u u p 1 1 1 z 1 1 1 1 1 1 1 1 1 1 1 1 1 1 1 1 1 1 1 1 1 1 1 1 1 1 1 1 1 1 1 1 1 1 1 1 1 1 1 1 ",
"u u u u u u u u u u u u u u u u u u u p 1 1 1 z 1 1 1 1 1 1 1 1 V V x 1 1 1 1 1 1 1 W W 1 1 1 1 1 1 1 1 1 1 1 1 1 1 1 1 1 1 1 1 ",
"u u u u u u u u u u u u u u u u u u u p 1 1 1 z 1 x x x x x W W W W W x x x x x X Y Y X X Z x x 1 1 1 1 1 1 1 1 1 1 1 1 1 1 1 1 ",
"u u u u u u u u u u u u u u u u u u u p 1 1 1 z x ` `  ...+.c c c c c @.#.$.+.%.c c c c c #...&.1 1 1 1 1 l m j m n n o o o o o ",
"u u u u u u u u u u u u u u u u u u u p 1 1 1 z x  .*.u =.=.c c h c c -.;.>.,.'.c c h c c >._ ).x 1 1 1 1 !.s t u u u u u u u u ",
"u u u u u u u u u u u u u u u u u u u p 1 1 1 z x ` t u =.=.c c h c c ~.=.=.=.{.c c h c c =.=.e 1 1 1 1 1 m u u u u u u u u u u ",
"u u u u u u u u u u u u u u u u u u u p 1 1 1 z x  .u u =.=.c c h c c {.=.u =.{.c c h c c =.=.e x 1 1 6 1 m u u u u u u u u u u ",
"u u u u u u u u u u u u u u u u u u u p 1 1 1 z x ..u u u =.c c c c c {.=.u =.=.c c c c c =.=.e x 1 1 8 1 j u u u u u u u u u u ",
"u u u u u u u u u u u u u u u u u u u p 1 1 1 z x ].u u u =.c c c c c =.=.u u =.c c c c c =.u e x 1 1 6 ^.n u u u u u u u u u u ",
"u u u u u u u u u u u u u u u u u u u p 1 1 1 z x &.u u u =.=.=.=.=.=.=.u u u =.=.=.=.=.=.=.u e x 1 1 6 ^.o u u u u u u u u u u ",
"u u u u u u u u u u u u u u u u u u u p 1 1 1 z x e u u u u =.=.=.=.u u u u u u =.=.=.=.u u u e x 1 1 6 1 p u u u u u u u u u u ",
"u u u u u u u u u u u u u u u u u u u p 1 1 1 z x e u u u u u u u u u u u u u u u u u u u u u e x 1 1 6 1 p u u u u u u u u u u ",
"u u u u u u u u u u u u u u u u u u u /.# # # (._.:.u u u u u u u u u u u u u u u u u u u u u /._.# # # # /.u u u u u u u u u u ",
"u u u u u u u u u u u u u u u u u u u /.# # # (.<.[.}.}.}.}.}.}.}.}.}.}.}.}.}.}.}.u u u u u u /._.# # # # /.u u u u u u u u u u ",
"}.}.}.}.}.}.}.}.}.}.}.}.}.}.}.}.}.}.}.t u u u |.<.[.}.}.}.}.}.}.}.}.}.}.}.}.}.}.}.}.}.}.}.}.}.t |.|.u u u t u u u }.}.}.}.}.}.}.",
"1.1.1.1.1.1.1.1.1.1.1.1.1.1.1.1.1.1.1.  2.2.u 3.t }.4.4.4.4.4.4.4.4.4.4.4.4.4.4.4.4.4.4.4.4.4.}.3.3.s 5.5.1.1.1.1.1.1.1.1.1.1.1.",
"1.1.1.1.1.1.1.1.1.1.1.1.1.1.1.1.1.1.1.  2.2.u 3.3.}.4.4.4.4.4.4.4.4.4.4.4.4.4.4.4.4.4.4.4.4.4.}.3.3.s 5.5.1.1.1.1.1.1.1.1.1.1.1."};
